<svg id="Layer_1" enable-background="new 0 0 512 512" height="512" viewBox="0 0 512 512" width="512" xmlns="http://www.w3.org/2000/svg"><path clip-rule="evenodd" d="m231.63 58.995c33.989 0 66.184 7.675 94.952 21.38-5.067 6.123-7.036 14.102-5.334 21.997l8.061 37.403-15.034 15.034c-23.702-15.664-52.109-24.785-82.646-24.785-41.447 0-78.971 16.801-106.133 43.962-27.162 27.162-43.962 64.686-43.962 106.133s16.801 78.971 43.962 106.133c27.162 27.162 64.686 43.962 106.133 43.962s78.971-16.801 106.133-43.962c27.162-27.162 43.962-64.686 43.962-106.133 0-30.276-8.966-58.458-24.386-82.037l15.138-15.139 37.402 8.061c7.815 1.684 15.711-.228 21.808-5.18 13.508 28.602 21.065 60.564 21.065 94.294 0 122.123-99 221.123-221.123 221.123s-221.123-99-221.123-221.123c.002-122.123 99.002-221.123 221.125-221.123zm243.661-22.034c-5.649-5.649-14.892-5.649-20.54 0l-20.033 20.033-9.112-42.278c-.396-1.837-1.672-3.211-3.475-3.743-1.802-.531-3.62-.068-4.948 1.261l-77.589 77.589c-2.473 2.474-3.441 5.758-2.704 9.178l9.897 45.924-123.719 123.719c-5.649 5.649-5.649 14.892 0 20.54 5.649 5.649 14.892 5.649 20.541 0l123.719-123.719 45.923 9.897c3.42.737 6.704-.231 9.178-2.705l77.589-77.59c1.329-1.329 1.792-3.146 1.26-4.949-.531-1.803-1.905-3.078-3.743-3.474l-42.277-9.111 20.033-20.033c5.649-5.647 5.649-14.89 0-20.539zm-243.661 188.09c-15.207 0-28.974 6.164-38.939 16.128-9.965 9.965-16.128 23.732-16.128 38.939s6.164 28.974 16.128 38.939c9.965 9.965 23.732 16.128 38.939 16.128s28.974-6.164 38.939-16.128c9.965-9.965 16.128-23.732 16.128-38.939 0-3.56-.338-7.041-.983-10.412l-30.792 30.792c-11.893 11.893-31.275 11.893-43.168 0s-11.892-31.275 0-43.168l31.128-31.128c-3.633-.754-7.396-1.151-11.252-1.151zm-50.252 4.816c12.861-12.861 30.628-20.816 50.252-20.816 8.491 0 16.633 1.49 24.181 4.222l46.888-46.888c-20.604-12.902-44.965-20.362-71.069-20.362-37.03 0-70.555 15.009-94.82 39.275s-39.275 57.79-39.275 94.82 15.009 70.555 39.275 94.82 57.79 39.275 94.82 39.275 70.555-15.009 94.82-39.275c24.266-24.265 39.275-57.79 39.275-94.82 0-25.842-7.312-49.975-19.976-70.447l-47.009 47.009c2.563 7.339 3.957 15.225 3.957 23.438 0 19.624-7.955 37.39-20.816 50.251s-30.628 20.816-50.251 20.816-37.391-7.955-50.252-20.816-20.816-30.628-20.816-50.251c.001-19.623 7.956-37.39 20.816-50.251z" fill-rule="evenodd"/></svg>