<?xml version="1.0" ?><!DOCTYPE svg  PUBLIC '-//W3C//DTD SVG 1.1//EN'  'http://www.w3.org/Graphics/SVG/1.1/DTD/svg11.dtd'><svg height="256px" style="shape-rendering:geometricPrecision; text-rendering:geometricPrecision; image-rendering:optimizeQuality; fill-rule:evenodd; clip-rule:evenodd" version="1.1" viewBox="0 0 30669 30669" width="256px" xml:space="preserve" xmlns="http://www.w3.org/2000/svg" xmlns:xlink="http://www.w3.org/1999/xlink"><defs><style type="text/css">
   <![CDATA[
    .str0 {stroke:#105286;stroke-width:300}
    .str2 {stroke:#105286;stroke-width:300;stroke-linecap:round;stroke-linejoin:round}
    .str1 {stroke:#105286;stroke-width:300;stroke-dasharray:479.193180 479.193180}
    .fil0 {fill:none}
    .fil5 {fill:#3FE4C0}
    .fil2 {fill:#ccc}
    .fil1 {fill:#f5f0f7}
    .fil4 {fill:#FF576B}
    .fil6 {fill:#FFD027}
    .fil3 {fill:white}
   ]]>
  </style></defs><g id="Layer_x0020_1"><rect class="fil0" height="30669" width="30669"/><g id="_448183192"><path class="fil1" d="M4484 28009l1538 0c1759,0 1759,-2659 0,-2659l-4166 0c-1759,0 -1759,-2659 0,-2659l4081 0c1759,0 1759,-2659 0,-2659l-1465 0c-1759,0 -1759,-2660 0,-2660l7301 0 2597 0 3959 0c1759,0 1759,2660 0,2660l-733 0c-1759,0 -1759,2659 0,2659l1999 0c1759,0 1759,2659 0,2659l-2083 0c-1760,0 -1760,2659 0,2659l640 0c1759,0 1759,2659 0,2659l-3782 0 -2597 0 -7289 0c-1759,0 -1759,-2659 0,-2659z"/><path class="fil2" d="M12441 17372l13694 0c1759,0 1758,2660 0,2660l-1366 0c-1859,0 -2023,2659 203,2659l3841 0c1759,0 1758,2659 0,2659l-5532 0c-1759,0 -1759,2659 0,2659l1338 0c1759,0 1759,2660 0,2660l-12178 0 -734 -1c-1759,0 -1759,-2659 0,-2659l734 0c1770,0 1844,-2659 0,-2659l-3132 0c-1759,0 -1759,-2659 0,-2659l2269 0c1948,60 2179,-2659 0,-2659l-1386 0c-1759,0 -1759,-2660 0,-2660l2249 0 0 0zm15408 10637l-8 0c-731,0 -1329,599 -1329,1330l0 0c0,731 598,1329 1329,1329l8 0c732,0 1330,-598 1330,-1329l0 0c0,-731 -598,-1330 -1330,-1330z"/></g><g id="_448199896"><path class="fil3" d="M3790 3471l6151 0 0 4155c0,594 -484,1078 -1078,1078l-5073 0 1561 -2677 -1561 -2556z"/><path class="fil4" d="M4712 3988l1242 2033 -1264 2166 4173 0c308,0 561,-252 561,-561l0 -3638 -4712 0z"/><path class="fil3" d="M15279 1422l-5829 0c-624,0 -1135,510 -1135,1134l0 4079 6964 0 0 -5213z"/><path class="fil4" d="M14752 1949l-5302 0c-333,0 -607,274 -607,607l0 3552 5909 0 0 -4159z"/></g><path class="fil0 str0" d="M2167 28774l-285 285m-777 -285l285 285m492 491l285 285m-777 -285l-285 285"/><polygon class="fil3" points="3956,26251 15334,9261 26712,26251 "/><polygon class="fil5" points="4884,26251 25762,26251 15334,10668 "/><polyline class="fil0 str0" points="3956,26251 15334,9261 26712,26251 "/><path class="fil0 str1" d="M15383 10754c17,2058 -16,3135 -858,4034 -1099,1173 -1022,2687 666,3117 2973,757 2734,3555 -38,3966 -4384,649 -4638,6132 1220,6101"/><line class="fil0 str0" x1="15279" x2="15279" y1="1422" y2="9261"/><path class="fil0 str0" d="M9941 6635l0 991c0,594 -484,1078 -1078,1078l-5073 0 1561 -2677 -1561 -2556 4538 0"/><path class="fil0 str0" d="M15279 1422l-5829 0c-624,0 -1135,510 -1135,1134l0 4079 6964 0 0 -5213z"/><polygon class="fil3" points="6580,10861 7290,12584 9148,12727 7729,13934 8167,15746 6580,14769 4993,15746 5432,13934 4012,12727 5871,12584 "/><polygon class="fil0 str2" points="6580,10861 7290,12584 9148,12727 7729,13934 8167,15746 6580,14769 4993,15746 5432,13934 4012,12727 5871,12584 "/><polygon class="fil6" points="6580,12017 6993,13019 8074,13102 7248,13805 7503,14858 6580,14290 5657,14858 5912,13805 5087,13102 6168,13019 "/><g id="_448171768"><circle class="fil4" cx="22653" cy="10680" r="2956"/><circle class="fil3" cx="22653" cy="10680" r="1138"/></g><path class="fil0 str0" d="M25918 9040c317,629 455,1355 359,2106 -257,2001 -2088,3415 -4090,3158 -2001,-258 -3415,-2089 -3157,-4090 257,-2001 2088,-3415 4089,-3158 278,36 545,102 798,195"/><path class="fil0 str0" d="M24740 10942c-148,1152 -1202,1965 -2354,1817 -1151,-148 -1965,-1202 -1817,-2354 111,-864 732,-1538 1522,-1758"/><line class="fil0 str2" x1="27307" x2="22653" y1="5310" y2="10680"/><polyline class="fil0 str0" points="27307,5310 26662,3432 25417,5137 26022,6793 "/><polyline class="fil0 str0" points="27307,5310 29257,5681 27747,7156 26022,6793 "/><path class="fil0 str0" d="M1777 925l-285 285m-776 -285l285 285m491 491l285 285m-776 -285l-285 285"/><path class="fil0 str0" d="M29833 925l-285 285m-777 -285l285 285m492 491l285 285m-777 -285l-285 285"/><circle class="fil0 str0" r="685" transform="matrix(0.505832 -0.554696 0.554696 0.505832 21920.1 2558.42)"/><path class="fil0 str0" d="M18346 5441l-284 285m-777 -285l285 285m491 491l285 285m-776 -285l-285 285"/><path class="fil0 str0" d="M28979 14613l-285 285m-777 -285l285 285m492 491l285 285m-777 -285l-285 285"/><circle class="fil0 str0" r="685" transform="matrix(0.505832 -0.554696 0.554696 0.505832 29356.9 21235.2)"/><circle class="fil0 str0" r="685" transform="matrix(0.505832 -0.554696 0.554696 0.505832 12173.5 10000.4)"/><path class="fil0 str0" d="M2862 20124l-285 285m-776 -285l285 285m491 491l285 285m-776 -285l-285 285"/><circle class="fil0 str0" r="685" transform="matrix(0.505832 -0.554696 0.554696 0.505832 1211.83 14253.3)"/></g></svg>
