<?xml version="1.0" ?><!DOCTYPE svg  PUBLIC '-//W3C//DTD SVG 1.1//EN'  'http://www.w3.org/Graphics/SVG/1.1/DTD/svg11.dtd'><svg height="256px" style="shape-rendering:geometricPrecision; text-rendering:geometricPrecision; image-rendering:optimizeQuality; fill-rule:evenodd; clip-rule:evenodd" version="1.1" viewBox="0 0 45169 45169" width="256px" xml:space="preserve" xmlns="http://www.w3.org/2000/svg" xmlns:xlink="http://www.w3.org/1999/xlink"><defs><style type="text/css">
   <![CDATA[
    .str0 {stroke:#105286;stroke-width:400}
    .str1 {stroke:#105286;stroke-width:400;stroke-linecap:round;stroke-linejoin:round}
    .fil0 {fill:none}
    .fil8 {fill:#00DCAB}
    .fil5 {fill:#4D4D4D}
    .fil2 {fill:#ccc}
    .fil1 {fill:#f5f0f7}
    .fil7 {fill:#FF576B}
    .fil3 {fill:#FF8527}
    .fil4 {fill:#FFD027}
    .fil6 {fill:white}
   ]]>
  </style></defs><rect class="fil0" height="45169" width="45169"/><g id="Layer_x0020_1"><path class="fil1" d="M6604 41252l2265 0c2591,0 2591,-3916 0,-3916l-6136 0c-2590,0 -2590,-3917 0,-3917l6011 0c2591,0 2591,-3916 0,-3916l-2158 0c-2591,0 -2591,-3917 0,-3917l10753 0 3825 0 5831 0c2591,0 2591,3917 0,3917l-1079 0c-2591,0 -2591,3916 0,3916l2943 0c2591,0 2591,3917 0,3917l-3068 0c-2591,0 -2591,3916 0,3916l943 0c2591,0 2591,3917 0,3917l-5570 0 -3825 0 -10735 0c-2591,0 -2591,-3917 0,-3917z"/><path class="fil2" d="M18323 25586l20168 0c2591,0 2590,3917 0,3917l-2011 0c-2737,0 -2979,3916 300,3916l5656 0c2590,0 2590,3917 0,3917l-8148 0c-2591,0 -2591,3916 0,3916l1972 0c2590,0 2590,3917 0,3917l-17937 0 -1081 0c-2591,0 -2591,-3917 0,-3917l1081 0c2607,0 2716,-3916 0,-3916l-4613 0c-2591,0 -2591,-3917 0,-3917l3343 0c2868,88 3208,-3916 0,-3916l-2042 0c-2591,0 -2591,-3917 0,-3917l3312 0 0 0zm22694 15666l-12 0c-1077,0 -1958,881 -1958,1958l0 1c0,1077 881,1958 1958,1958l12 0c1077,0 1958,-881 1958,-1958l0 -1c0,-1077 -881,-1958 -1958,-1958z"/><path class="fil0 str0" d="M1288 42315l419 419m1144 -419l-420 419m-724 724l-419 420m1143 -420l420 420"/><polygon class="fil0 str0" points="22935,6964 29548,10782 36161,14600 36161,22236 36161,29872 29548,33690 22935,37508 16322,33690 9709,29872 9709,22236 9709,14600 16322,10782 "/><g id="_703993888"><path class="fil3" d="M20303 22237l570 0 0 -1127c-357,-356 -705,-684 -802,-1211 -107,-573 -196,-1753 -208,-3193 -29,-3452 5614,-3452 5585,0 -12,1440 -101,2620 -207,3193 -98,527 -446,855 -802,1211l0 1127 569 0c1719,0 3125,1407 3125,3126l0 2631c0,946 -773,1719 -1718,1719l-7519 0c-945,0 -1718,-773 -1718,-1719l0 -2631c0,-1719 1406,-3126 3125,-3126z"/><path class="fil4" d="M20303 22237c1591,2216 3108,2286 4705,0 1719,0 3125,1407 3125,3126l0 2631c0,946 -773,1719 -1718,1719l-7519 0c-945,0 -1718,-773 -1718,-1719l0 -2631c0,-1719 1406,-3126 3125,-3126z"/><path class="fil5" d="M19877 17464l30 38c0,0 1232,-975 1278,-1960 0,0 1878,2611 4248,1265 5,-3 9,-6 14,-9l1 -92c29,-3452 -5614,-3452 -5585,0 2,262 7,515 14,758z"/><path class="fil0 str0" d="M17178 27994l0 -2631c0,-1719 1406,-3126 3125,-3126l570 0 0 -1127c-357,-356 -705,-684 -802,-1211 -107,-573 -196,-1753 -208,-3193 -29,-3452 5614,-3452 5585,0 -12,1440 -101,2620 -207,3193 -98,527 -446,855 -802,1211l0 1127 569 0c1719,0 3125,1407 3125,3126l0 2631"/><path class="fil0 str0" d="M20873 21110c0,0 1616,2255 3566,0"/><polygon class="fil6" points="22660,31081 21429,29995 22175,23892 23145,23892 23891,29995 "/><polygon class="fil7" points="22660,30399 23357,29822 22752,24358 22568,24358 21962,29822 "/><polygon class="fil0 str0" points="22660,31081 21429,29995 22175,23892 23145,23892 23891,29995 "/></g><g id="_703989544"><circle class="fil6" cx="22935" cy="6964" r="4795"/><g><path class="fil3" d="M21610 8435l321 0 0 -636c-201,-200 -397,-385 -453,-682 -59,-323 -110,-988 -117,-1800 -16,-1945 3164,-1945 3148,0 -6,812 -57,1477 -117,1800 -55,297 -251,482 -452,682l0 636 321 0c969,0 1762,793 1762,1761l0 436c-835,703 -1912,1127 -3088,1127 -1176,0 -2253,-424 -3087,-1127l0 -436c0,-968 793,-1761 1762,-1761z"/><path class="fil8" d="M21610 8435c896,1249 1751,1288 2651,0 969,0 1762,793 1762,1761l0 436c-835,703 -1912,1127 -3088,1127 -1176,0 -2253,-424 -3087,-1127l0 -436c0,-968 793,-1761 1762,-1761z"/><path class="fil5" d="M21369 5745l17 21c0,0 695,-549 721,-1105 0,0 1058,1472 2393,713 3,-1 6,-3 9,-5l0 -52c16,-1945 -3164,-1945 -3148,0 2,148 4,291 8,428z"/><path class="fil0 str1" d="M19848 10632l0 -436c0,-968 793,-1761 1762,-1761l321 0 0 -636c-201,-200 -397,-385 -453,-682 -59,-323 -110,-988 -117,-1800 -16,-1945 3164,-1945 3148,0 -6,812 -57,1477 -117,1800 -55,297 -251,482 -452,682l0 636 321 0c969,0 1762,793 1762,1761l0 436"/><path class="fil0 str0" d="M21931 7799c0,0 910,1272 2009,0"/></g><circle class="fil0 str0" cx="22935" cy="6964" r="4795"/></g><g id="_703980376"><circle class="fil6" cx="36161" cy="14318" r="4795"/><g><path class="fil3" d="M34836 15789l321 0 0 -635c-201,-201 -397,-386 -453,-683 -59,-322 -110,-987 -117,-1799 -16,-1946 3164,-1946 3148,0 -6,812 -57,1477 -117,1799 -55,297 -251,482 -452,683l0 635 321 0c969,0 1762,793 1762,1762l0 436c-835,703 -1912,1126 -3088,1126 -1176,0 -2253,-423 -3087,-1126l0 -436c0,-969 793,-1762 1762,-1762z"/><path class="fil8" d="M34836 15789c896,1249 1751,1289 2651,0 969,0 1762,793 1762,1762l0 436c-835,703 -1912,1126 -3088,1126 -1176,0 -2253,-423 -3087,-1126l0 -436c0,-969 793,-1762 1762,-1762z"/><path class="fil5" d="M34595 13099l17 22c0,0 695,-550 721,-1105 0,0 1058,1472 2394,713 2,-2 5,-3 8,-5l0 -52c16,-1946 -3164,-1946 -3148,0 2,148 4,290 8,427z"/><path class="fil0 str1" d="M33074 17987l0 -436c0,-969 793,-1762 1762,-1762l321 0 0 -635c-201,-201 -397,-386 -453,-683 -59,-322 -110,-987 -117,-1799 -16,-1946 3164,-1946 3148,0 -6,812 -57,1477 -117,1799 -55,297 -251,482 -452,683l0 635 321 0c969,0 1762,793 1762,1762l0 436"/><path class="fil0 str0" d="M35157 15154c0,0 910,1271 2009,0"/></g><circle class="fil0 str0" cx="36161" cy="14318" r="4795"/></g><g id="_703976944"><circle class="fil6" cx="36161" cy="29289" r="4795"/><g><path class="fil3" d="M34836 30760l321 0 0 -636c-201,-200 -397,-385 -453,-682 -59,-323 -110,-988 -117,-1800 -16,-1945 3164,-1945 3148,0 -6,812 -57,1477 -117,1800 -55,297 -251,482 -452,682l0 636 321 0c969,0 1762,792 1762,1761l0 436c-835,703 -1912,1126 -3088,1126 -1176,0 -2253,-423 -3087,-1126l0 -436c0,-969 793,-1761 1762,-1761z"/><path class="fil8" d="M34836 30760c896,1249 1751,1288 2651,0 969,0 1762,792 1762,1761l0 436c-835,703 -1912,1126 -3088,1126 -1176,0 -2253,-423 -3087,-1126l0 -436c0,-969 793,-1761 1762,-1761z"/><path class="fil5" d="M34595 28070l17 21c0,0 695,-550 721,-1105 0,0 1058,1472 2394,713 2,-1 5,-3 8,-5l0 -52c16,-1945 -3164,-1945 -3148,0 2,148 4,291 8,428z"/><path class="fil0 str1" d="M33074 32957l0 -436c0,-969 793,-1761 1762,-1761l321 0 0 -636c-201,-200 -397,-385 -453,-682 -59,-323 -110,-988 -117,-1800 -16,-1945 3164,-1945 3148,0 -6,812 -57,1477 -117,1800 -55,297 -251,482 -452,682l0 636 321 0c969,0 1762,792 1762,1761l0 436"/><path class="fil0 str0" d="M35157 30124c0,0 910,1271 2009,0"/></g><circle class="fil0 str0" cx="36161" cy="29289" r="4795"/></g><g id="_703994776"><circle class="fil6" cx="22935" cy="37508" r="4795"/><g><path class="fil3" d="M21610 38979l321 0 0 -636c-201,-200 -397,-385 -453,-682 -59,-323 -110,-988 -117,-1799 -16,-1946 3164,-1946 3148,0 -6,811 -57,1476 -117,1799 -55,297 -251,482 -452,682l0 636 321 0c969,0 1762,793 1762,1762l0 435c-835,703 -1912,1127 -3088,1127 -1176,0 -2253,-424 -3087,-1127l0 -435c0,-969 793,-1762 1762,-1762z"/><path class="fil8" d="M21610 38979c896,1249 1751,1289 2651,0 969,0 1762,793 1762,1762l0 435c-835,703 -1912,1127 -3088,1127 -1176,0 -2253,-424 -3087,-1127l0 -435c0,-969 793,-1762 1762,-1762z"/><path class="fil5" d="M21369 36289l17 22c0,0 695,-550 721,-1105 0,0 1058,1471 2393,713 3,-2 6,-4 9,-5l0 -52c16,-1946 -3164,-1946 -3148,0 2,147 4,290 8,427z"/><path class="fil0 str1" d="M19848 41176l0 -435c0,-969 793,-1762 1762,-1762l321 0 0 -636c-201,-200 -397,-385 -453,-682 -59,-323 -110,-988 -117,-1799 -16,-1946 3164,-1946 3148,0 -6,811 -57,1476 -117,1799 -55,297 -251,482 -452,682l0 636 321 0c969,0 1762,793 1762,1762l0 435"/><path class="fil0 str0" d="M21931 38343c0,0 910,1272 2009,0"/></g><circle class="fil0 str0" cx="22935" cy="37508" r="4795"/></g><g id="_703983784"><circle class="fil6" cx="9709" cy="29872" r="4795"/><g><path class="fil3" d="M8384 31343l320 0 0 -636c-201,-200 -396,-385 -452,-682 -60,-323 -110,-988 -117,-1799 -16,-1946 3164,-1946 3148,0 -7,811 -57,1476 -117,1799 -55,297 -251,482 -452,682l0 636 321 0c969,0 1761,793 1761,1762l0 435c-834,703 -1911,1127 -3087,1127 -1176,0 -2253,-424 -3087,-1127l0 -435c0,-969 793,-1762 1762,-1762z"/><path class="fil8" d="M8384 31343c896,1249 1751,1288 2651,0 969,0 1761,793 1761,1762l0 435c-834,703 -1911,1127 -3087,1127 -1176,0 -2253,-424 -3087,-1127l0 -435c0,-969 793,-1762 1762,-1762z"/><path class="fil5" d="M8143 28653l17 22c0,0 695,-550 721,-1105 0,0 1058,1471 2393,713 3,-2 6,-4 9,-5l0 -52c16,-1946 -3164,-1946 -3148,0 2,147 4,290 8,427z"/><path class="fil0 str1" d="M6622 33540l0 -435c0,-969 793,-1762 1762,-1762l320 0 0 -636c-201,-200 -396,-385 -452,-682 -60,-323 -110,-988 -117,-1799 -16,-1946 3164,-1946 3148,0 -7,811 -57,1476 -117,1799 -55,297 -251,482 -452,682l0 636 321 0c969,0 1761,793 1761,1762l0 435"/><path class="fil0 str0" d="M8704 30707c0,0 911,1272 2010,0"/></g><circle class="fil0 str0" cx="9709" cy="29872" r="4795"/></g><g id="_703982680"><circle class="fil6" cx="9709" cy="14600" r="4795"/><g><path class="fil3" d="M8384 16071l320 0 0 -636c-201,-200 -396,-385 -452,-682 -60,-323 -110,-988 -117,-1800 -16,-1945 3164,-1945 3148,0 -7,812 -57,1477 -117,1800 -55,297 -251,482 -452,682l0 636 321 0c969,0 1761,793 1761,1762l0 435c-834,703 -1911,1127 -3087,1127 -1176,0 -2253,-424 -3087,-1127l0 -435c0,-969 793,-1762 1762,-1762z"/><path class="fil8" d="M8384 16071c896,1249 1751,1288 2651,0 969,0 1761,793 1761,1761l0 436c-834,703 -1911,1127 -3087,1127 -1176,0 -2253,-424 -3087,-1127l0 -436c0,-968 793,-1761 1762,-1761z"/><path class="fil5" d="M8143 13381l17 21c0,0 695,-549 721,-1105 0,0 1058,1472 2393,713 3,-1 6,-3 9,-4l0 -53c16,-1945 -3164,-1945 -3148,0 2,148 4,291 8,428z"/><path class="fil0 str1" d="M6622 18268l0 -435c0,-969 793,-1762 1762,-1762l320 0 0 -636c-201,-200 -396,-385 -452,-682 -60,-323 -110,-988 -117,-1800 -16,-1945 3164,-1945 3148,0 -7,812 -57,1477 -117,1800 -55,297 -251,482 -452,682l0 636 321 0c969,0 1761,793 1761,1762l0 435"/><path class="fil0 str0" d="M8704 15435c0,0 911,1272 2010,0"/></g><circle class="fil0 str0" cx="9709" cy="14600" r="4795"/></g><path class="fil0 str0" d="M1902 1181l504 503m1373 -503l-504 503m-869 869l-504 504m1373 -504l504 504"/><path class="fil0 str0" d="M41942 1181l503 503m1373 -503l-504 503m-869 869l-503 504m1372 -504l504 504"/><circle class="fil0 str0" cx="32027" cy="4617" r="965"/><circle class="fil0 str0" cx="2121" cy="9558" r="965"/><path class="fil0 str0" d="M3389 20699l504 504m1373 -504l-504 504m-869 869l-504 504m1373 -504l504 504"/><circle class="fil0 str0" cx="2121" cy="30431" r="965"/><path class="fil0 str0" d="M41942 31731l503 504m1373 -504l-504 504m-869 869l-503 503m1372 -503l504 503"/><circle class="fil0 str0" cx="41682" cy="21633" r="965"/><path class="fil0 str0" d="M13063 4934l503 504m1373 -504l-504 504m-869 869l-503 503m1372 -503l504 503"/><path class="fil0 str0" d="M41538 7473l504 503m1372 -503l-503 504m-869 868l-504 504m1373 -504l503 504"/><circle class="fil0 str0" cx="35750" cy="39195" r="965"/></g></svg>
