<?xml version="1.0" ?><!DOCTYPE svg  PUBLIC '-//W3C//DTD SVG 1.1//EN'  'http://www.w3.org/Graphics/SVG/1.1/DTD/svg11.dtd'><svg height="256px" style="shape-rendering:geometricPrecision; text-rendering:geometricPrecision; image-rendering:optimizeQuality; fill-rule:evenodd; clip-rule:evenodd" version="1.1" viewBox="0 0 30669 30669" width="256px" xml:space="preserve" xmlns="http://www.w3.org/2000/svg" xmlns:xlink="http://www.w3.org/1999/xlink"><defs><style type="text/css">
   <![CDATA[
    .str0 {stroke:#105286;stroke-width:300}
    .str2 {stroke:white;stroke-width:300}
    .str1 {stroke:#105286;stroke-width:300;stroke-linecap:round;stroke-linejoin:round}
    .fil0 {fill:none}
    .fil8 {fill:#00DCAB}
    .fil5 {fill:#4D4D4D}
    .fil7 {fill:#53B4ED}
    .fil2 {fill:#ccc}
    .fil1 {fill:#f5f0f7}
    .fil3 {fill:#FF8527}
    .fil4 {fill:#FFD027}
    .fil6 {fill:white}
   ]]>
  </style></defs><rect class="fil0" height="30669" width="30669"/><g id="Layer_x0020_1"><path class="fil1" d="M4484 28009l1538 0c1759,0 1759,-2659 0,-2659l-4166 0c-1759,0 -1759,-2659 0,-2659l4081 0c1759,0 1759,-2659 0,-2659l-1465 0c-1759,0 -1759,-2660 0,-2660l7301 0 2597 0 3959 0c1759,0 1759,2660 0,2660l-733 0c-1759,0 -1759,2659 0,2659l1999 0c1759,0 1759,2659 0,2659l-2083 0c-1760,0 -1760,2659 0,2659l640 0c1759,0 1759,2659 0,2659l-3782 0 -2597 0 -7289 0c-1759,0 -1759,-2659 0,-2659z"/><path class="fil2" d="M12441 17372l13694 0c1759,0 1758,2660 0,2660l-1366 0c-1859,0 -2023,2659 203,2659l3841 0c1759,0 1758,2659 0,2659l-5532 0c-1759,0 -1759,2659 0,2659l1338 0c1759,0 1759,2660 0,2660l-12178 0 -734 -1c-1759,0 -1759,-2659 0,-2659l734 0c1770,0 1844,-2659 0,-2659l-3132 0c-1759,0 -1759,-2659 0,-2659l2269 0c1948,60 2179,-2659 0,-2659l-1386 0c-1759,0 -1759,-2660 0,-2660l2249 0 0 0zm15408 10637l-8 0c-731,0 -1329,599 -1329,1330l0 0c0,731 598,1329 1329,1329l8 0c732,0 1330,-598 1330,-1329l0 0c0,-731 -598,-1330 -1330,-1330z"/><path class="fil0 str0" d="M2167 28774l-285 285m-777 -285l285 285m492 491l285 285m-777 -285l-285 285"/><path class="fil0 str0" d="M16818 4801c90,207 215,394 369,553l-192 849c250,124 499,248 749,372l560 -667c109,13 220,16 333,9 113,-7 224,-25 330,-51l639 591c233,-155 465,-309 697,-464l-298 -818c132,-177 233,-378 295,-595l832 -259c-18,-278 -36,-556 -53,-834l-857 -152c-90,-207 -215,-393 -369,-552l192 -850c-250,-124 -500,-248 -749,-371l-560 666c-109,-12 -220,-16 -333,-8 -114,7 -224,24 -330,50l-640 -590c-232,154 -464,309 -696,463l298 819c-132,177 -233,378 -296,595l-831 258c18,278 36,556 53,835l857 151zm906 -682c28,439 407,773 846,745 440,-28 773,-407 745,-846 -27,-440 -406,-773 -846,-745 -439,28 -772,406 -745,846z"/><g id="_705481312"><path class="fil3" d="M9463 18016l767 0 0 -1519c-480,-479 -949,-922 -1081,-1631 -143,-771 -263,-2361 -279,-4301 -39,-4650 7561,-4650 7523,0 -16,1940 -136,3530 -280,4301 -131,709 -600,1152 -1080,1631l0 1519 767 0c2315,0 4210,1894 4210,4210l0 3544c0,1273 -1042,2315 -2315,2315l-10127 0c-1273,0 -2315,-1042 -2315,-2315l0 -3544c0,-2316 1895,-4210 4210,-4210z"/><path class="fil4" d="M9463 18016c2143,2985 4185,3079 6337,0 2315,0 4210,1894 4210,4210l0 3544c0,1273 -1042,2315 -2315,2315l-10127 0c-1273,0 -2315,-1042 -2315,-2315l0 -3544c0,-2316 1895,-4210 4210,-4210z"/><path class="fil5" d="M8889 11586l40 52c0,0 1660,-1314 1722,-2641 0,0 2529,3517 5721,1704 7,-4 13,-8 20,-12l1 -124c38,-4650 -7561,-4650 -7523,0 3,353 9,694 19,1021z"/><path class="fil0 str0" d="M10230 16497c0,0 2177,3038 4803,0"/><path class="fil0 str0" d="M5495 25464l0 -3428c0,-2240 1832,-4072 4072,-4072l742 0 0 -1470c-465,-463 -918,-891 -1045,-1577 -139,-746 -255,-2284 -271,-4160 -37,-4498 7314,-4498 7277,0 -16,1876 -132,3414 -271,4160 -127,686 -580,1114 -1045,1577l0 1470 742 0c928,0 1786,303 2474,823"/></g><path class="fil6" d="M10568 20066l525 6921c47,621 562,1098 1185,1098l10995 0c623,0 1137,-477 1184,-1098l525 -6921c26,-342 -80,-646 -313,-897 -233,-252 -528,-381 -871,-381l-12045 0c-343,0 -638,129 -871,381 -233,251 -340,555 -314,897z"/><path class="fil0 str0" d="M10568 20066l525 6921c47,621 562,1098 1185,1098l10995 0c623,0 1137,-477 1184,-1098l525 -6921c26,-342 -80,-646 -313,-897 -233,-252 -528,-381 -871,-381l-12045 0c-343,0 -638,129 -871,381 -233,251 -340,555 -314,897z"/><path class="fil7" d="M11084 20027l525 6921c27,351 316,620 669,620l10995 0c352,0 642,-269 668,-620l525 -6921c15,-198 -41,-361 -176,-507 -135,-145 -293,-214 -492,-214l-12045 0c-199,0 -357,69 -492,214 -135,146 -192,309 -177,507z"/><g id="_705480544"><line class="fil0 str0" x1="1998" x2="5068" y1="3983" y2="3983"/><line class="fil0 str0" x1="1998" x2="3033" y1="5025" y2="5025"/><line class="fil0 str0" x1="1998" x2="3217" y1="6066" y2="6066"/><line class="fil0 str0" x1="1998" x2="3033" y1="7108" y2="7108"/><line class="fil0 str0" x1="1998" x2="4114" y1="8149" y2="8149"/><line class="fil0 str0" x1="6487" x2="5850" y1="3983" y2="3983"/><line class="fil0 str0" x1="3619" x2="4654" y1="5025" y2="5025"/><line class="fil0 str0" x1="6487" x2="4091" y1="6066" y2="6066"/><line class="fil0 str0" x1="3757" x2="5378" y1="7108" y2="7108"/><line class="fil0 str0" x1="5079" x2="4596" y1="8149" y2="8149"/></g><path class="fil0 str1" d="M1415 9107c0,0 -678,0 -558,-1040 121,-1041 213,-1391 41,-1604l-374 -397 374 -397c172,-212 80,-563 -41,-1603 -120,-1041 558,-1041 558,-1041"/><path class="fil0 str1" d="M7056 9107c0,0 678,0 557,-1040 -121,-1041 -213,-1391 -40,-1604l374 -397 -374 -397c-173,-212 -81,-563 40,-1603 121,-1041 -557,-1041 -557,-1041"/><path class="fil0 str0" d="M25335 7835c276,110 535,248 776,409l886 -632c218,202 437,404 655,607l-564 932c181,231 337,479 467,742l1085 -105c88,285 176,569 263,854l-953 525c41,286 53,580 33,876l991 451c-66,291 -132,581 -198,872l-1089 -22c-110,276 -248,535 -409,776l633 885c-203,219 -405,437 -608,656l-932 -564c-231,181 -479,337 -742,467l105 1084c-285,88 -569,176 -854,264l-525 -953c-286,40 -580,52 -876,33l-451 991c-291,-66 -581,-132 -872,-199l22 -1088c-276,-111 -535,-248 -776,-409l-885 632c-219,-202 -437,-405 -656,-607l564 -933c-181,-230 -337,-479 -467,-741l-1084 105c-88,-285 -176,-570 -264,-854l954 -525c-41,-287 -53,-580 -33,-876l-992 -452c66,-290 133,-581 199,-871l1088 22c111,-276 248,-535 409,-776l-632 -886c202,-218 405,-437 607,-655l933 564c230,-181 479,-337 741,-467l-105 -1084c285,-88 570,-176 854,-264l525 953c287,-41 580,-53 877,-33l451 -991c290,66 581,132 871,198l-22 1089zm-902 959c1641,373 2669,2006 2295,3648 -373,1641 -2006,2668 -3648,2295 -1641,-374 -2668,-2007 -2295,-3648 374,-1641 2007,-2669 3648,-2295z"/><circle class="fil8" cx="23757" cy="11765" r="2438"/><g id="_705494032"><polyline class="fil0 str2" points="22751,10970 21993,11765 22751,12561 "/><polyline class="fil0 str2" points="24762,10970 25521,11765 24762,12561 "/></g><line class="fil0 str2" x1="24295" x2="23218" y1="10202" y2="13328"/><circle class="fil6" cx="17775" cy="23437" r="766"/><path class="fil0 str0" d="M28256 28085l-639 0m-1056 0l-20826 0m-962 0l-570 0"/><path class="fil4" d="M3096 11434c1221,0 2211,990 2211,2211 0,845 -474,1579 -1170,1951l0 1308c0,338 -276,615 -614,615l-854 0c-338,0 -614,-277 -614,-615l0 -1308c-696,-372 -1170,-1106 -1170,-1951 0,-1221 990,-2211 2211,-2211z"/><path class="fil0 str0" d="M3096 11434c1221,0 2211,990 2211,2211 0,845 -474,1579 -1170,1951l0 1308c0,338 -276,615 -614,615l-854 0c-338,0 -614,-277 -614,-615l0 -1308c-696,-372 -1170,-1106 -1170,-1951 0,-1221 990,-2211 2211,-2211z"/><line class="fil0 str0" x1="3096" x2="3096" y1="13832" y2="16469"/><line class="fil0 str2" x1="3953" x2="2239" y1="13832" y2="13832"/><line class="fil0 str0" x1="4137" x2="2055" y1="16469" y2="16469"/><path class="fil0 str0" d="M3096 18683l0 -415m0 3114l0 -415m0 -485l0 -415m0 -484l0 -416"/><circle class="fil0 str0" cx="24217" cy="3895" r="597"/><path class="fil0 str0" d="M28316 877l285 284m776 -284l-284 285m-492 491l-285 285m777 -285l284 285"/><path class="fil0 str0" d="M1227 877l285 284m776 -284l-285 285m-491 491l-285 285m776 -285l285 285"/><path class="fil0 str0" d="M6804 14199l285 285m776 -285l-285 285m-491 492l-285 285m776 -285l285 285"/><path class="fil0 str0" d="M12159 4729l284 285m777 -285l-285 285m-492 491l-284 285m776 -285l285 285"/><circle class="fil0 str0" cx="10689" cy="1670" r="597"/><path class="fil0 str0" d="M28841 17889l285 285m776 -285l-285 285m-491 492l-285 285m776 -285l285 285"/><circle class="fil0 str0" cx="28945" cy="26590" r="597"/><circle class="fil0 str0" cx="1481" cy="22691" r="597"/></g></svg>
