<svg viewBox="0 0 110 41" fill="none" xmlns="http://www.w3.org/2000/svg">
<g clip-path="url(#clip0_84_468)">
<path fill-rule="evenodd" clip-rule="evenodd" d="M16.3639 0.113454C16.5873 0.113454 16.8108 0.0489889 16.8746 0.0167567H16.8427C17.7021 -0.03987 18.5649 0.0472558 19.3961 0.274615L19.7153 0.371311L20.2899 0.564704L20.5452 0.661401L20.641 0.693633C20.641 0.758097 20.7048 0.758098 20.7048 0.758098L21.1197 0.95149L21.5985 1.17712L21.7581 1.30604L21.8858 1.37051C21.9794 1.39347 22.0667 1.43755 22.1411 1.49944C22.3007 1.6606 22.3645 1.69283 22.4922 1.72506L22.6518 1.85399C22.6572 1.87756 22.669 1.89912 22.6859 1.91622C22.7029 1.93332 22.7242 1.94526 22.7476 1.95069L22.8433 1.98292C23.6972 2.5514 24.4796 3.22244 25.1733 3.98132C26.0671 4.88382 26.6416 5.52846 26.6097 5.52846L27.4076 6.49543C27.4715 6.55989 27.5672 6.65659 27.5672 6.75329L27.663 6.84998L27.9502 7.23677L28.2694 7.62356L28.3013 7.68802C28.3013 7.75249 28.5248 8.10704 28.5886 8.1715C28.6205 8.1715 28.6843 8.23597 28.6843 8.33266L28.7801 8.49383L29.1312 9.10624L29.195 9.20293C29.2589 9.23517 29.2908 9.33186 29.2908 9.3641L29.3546 9.46079L29.4504 9.62195C29.4504 9.71865 29.5142 9.81535 29.5461 9.81535C29.61 9.84758 29.6419 9.91204 29.6419 9.97651L29.7057 10.1054C29.7377 10.1054 29.8015 10.1699 29.8015 10.2344C29.8015 10.3311 29.8653 10.3955 29.8653 10.3955C29.8972 10.3955 29.9611 10.46 29.9611 10.5567L30.0568 10.7501L30.1207 10.7823C30.1385 10.8935 30.1707 11.0019 30.2164 11.1046C30.2732 11.2058 30.3161 11.3142 30.3441 11.427L30.376 11.4914C30.4079 11.4914 30.4718 11.5559 30.4718 11.6848L30.5994 12.0071C30.8229 12.5229 30.9186 12.7485 30.9186 12.8452L31.0782 13.1675C31.0782 13.2964 31.1421 13.3931 31.1421 13.3931C31.174 13.4254 31.2378 13.5543 31.2378 13.651L31.3336 13.9411L31.4293 14.1989L31.4932 14.5212C31.5251 14.5212 31.5889 14.6824 31.5889 14.8436C31.5993 14.9529 31.6206 15.0609 31.6527 15.1659C31.7166 15.2304 31.7485 15.3271 31.8123 15.8105L31.9081 16.2618C31.94 16.2618 32.0038 16.4552 32.0038 16.713L32.0677 17.1321C32.1315 17.1321 32.1315 17.1643 32.1315 17.1965C32.1634 17.8412 32.2273 18.2924 32.2592 18.2924C32.2911 18.3246 32.3549 18.9048 32.3549 19.5495C32.3185 21.365 32.5334 23.1768 32.9933 24.9322L33.1848 25.5769C33.2308 25.6452 33.2633 25.7218 33.2806 25.8025C33.2806 25.9314 33.3444 26.0281 33.3444 26.0281C33.3763 26.0281 33.4402 26.1248 33.4402 26.2538L33.5359 26.4472L33.5998 26.5116C33.7167 26.8137 33.8781 27.0962 34.0785 27.3497L34.1743 27.4464C34.1743 27.5431 34.7169 28.091 34.8127 28.091C34.8446 28.091 34.9084 28.1232 34.9084 28.1877C34.9084 28.2199 35.0042 28.2844 35.0999 28.2844L35.2595 28.3811C35.2595 28.4133 35.3872 28.4778 35.5149 28.4778L35.7702 28.5745C35.8021 28.639 36.8554 28.639 36.8554 28.5745C36.8873 28.5423 37.0469 28.4778 37.2384 28.4778C37.4137 28.4588 37.5856 28.4154 37.7491 28.3489L38.0045 28.2522L38.1321 28.2199C38.1321 28.1555 38.1641 28.1555 38.2279 28.1555C38.3543 28.11 38.4728 28.0448 38.579 27.9621C39.3801 27.45 40.1009 26.8199 40.7175 26.0926C40.8637 25.8576 41.0236 25.6316 41.1963 25.4157L41.324 25.2223L41.3559 25.1579C41.4197 25.2223 41.4197 25.1579 41.4197 25.1579L41.6751 24.7066L41.707 24.6099C41.7708 24.5777 41.8666 24.3843 42.09 23.933C42.2177 23.7074 42.2815 23.6107 42.3773 23.6107C42.5049 23.6107 42.6645 23.7397 42.888 23.933L43.0156 24.0297C43.3029 24.0297 43.271 24.4165 42.888 25.2223L42.6965 25.6736L42.6645 25.7381L42.473 26.0281L42.3134 26.3182C42.2815 26.3182 42.2177 26.4149 42.2177 26.4794L42.1219 26.6728C41.5144 27.6253 40.7846 28.4924 39.9515 29.2514C39.9027 29.2514 39.8726 29.289 39.8468 29.3211C39.8389 29.331 39.8314 29.3405 39.8238 29.3481C39.8238 29.4125 39.76 29.4448 39.7281 29.4448C39.6642 29.4448 39.6642 29.477 39.6642 29.5092L39.6004 29.5415C39.5685 29.5415 39.4727 29.5737 39.4727 29.6381L38.9301 29.9927L38.7705 30.0894L38.579 30.1861C38.4513 30.1861 38.3556 30.2506 38.3556 30.2506C38.2917 30.315 37.5576 30.5406 37.398 30.5406C37.3023 30.5406 37.2704 30.6051 37.3023 30.6051C37.3661 30.7663 35.5149 30.7663 35.068 30.6051C34.4296 30.4117 33.887 30.1539 33.7913 30.0249C33.2524 29.5919 32.7793 29.0815 32.3869 28.51L32.2911 28.3811L31.9081 27.6398L31.8443 27.5753C31.8123 27.5753 31.7804 27.6075 31.7804 27.672L31.7485 27.8009C31.6373 28.2318 31.4653 28.6443 31.2378 29.0257C30.8867 29.7348 30.6633 30.0894 30.5994 30.1539C29.6879 31.496 28.6278 32.7288 27.4395 33.8283L27.1204 34.0862C26.9927 34.2474 26.8331 34.3763 26.8012 34.3763L26.6097 34.5374L26.4182 34.7308C26.3543 34.7308 26.3224 34.7631 26.3224 34.7953L26.0032 35.0209L25.7479 35.2466C25.7479 35.2788 25.716 35.311 25.6521 35.311C25.6202 35.311 25.5244 35.3432 25.4925 35.4077L25.301 35.5366C25.2372 35.5366 25.2372 35.5689 25.2372 35.6011C25.2372 35.6333 25.1733 35.6978 25.1095 35.6978C24.918 35.7945 24.7265 35.9234 24.6946 35.9879C24.6626 36.0524 24.5988 36.0524 24.5669 36.0524L24.4711 36.1168C24.4392 36.1813 23.6732 36.6648 23.6093 36.6648L23.5455 36.697C23.5455 36.7615 23.5136 36.7615 23.4498 36.7615L23.2902 36.8259L22.8433 37.1483L22.6837 37.2449L22.4922 37.3094L22.3326 37.4061C22.3326 37.4383 22.2369 37.5028 22.1092 37.535C21.9496 37.5673 21.8219 37.6317 21.79 37.6962L21.6623 37.7607C21.5985 37.7607 21.5666 37.7929 21.5666 37.8251L21.4389 37.8896L21.2793 37.9541L21.1516 37.9863C21.1516 38.0185 21.0878 38.083 20.9921 38.083L20.8325 38.1797L20.641 38.2764C20.5452 38.2764 20.4814 38.3408 20.4814 38.3408C20.4814 38.3731 20.3856 38.4375 20.2579 38.4375L20.0664 38.5342L20.0026 38.5987C19.8925 38.6167 19.7852 38.6492 19.6834 38.6954C19.5557 38.7921 19.4281 38.7921 19.3961 38.7921L18.5343 39.1144C17.159 39.7298 15.7107 40.1632 14.2254 40.4037L13.7785 40.5004L13.3636 40.5649C13.3317 40.5971 13.0763 40.6616 12.7891 40.6616L12.1826 40.7583C12.1188 40.7905 12.023 40.8227 10.842 40.855L9.69299 40.9516C9.66107 41.0161 9.27806 41.0161 9.24614 40.9516C9.24614 40.9194 8.76736 40.855 8.19284 40.855L7.0757 40.7583C7.0757 40.6938 6.91611 40.6938 6.75652 40.6938L6.27774 40.6293L5.70321 40.5004L5.32019 40.4037L5.06485 40.307L4.74567 40.2425L4.17114 40.0169L3.69236 39.8235L3.37318 39.6301L3.054 39.469C3.054 39.4367 2.99016 39.3723 2.89441 39.3723L2.41563 39.0499C1.95214 38.6959 1.52448 38.2964 1.1389 37.8574L0.947395 37.5673C0.755885 37.3094 0.500539 36.8582 0.500539 36.7292C0.500539 36.6648 0.468621 36.6648 0.436702 36.6648L0.340947 36.4391L0.277111 36.2458C0.245193 36.2458 0.181356 36.1168 0.181356 35.9234C0.0189204 35.107 -0.0347516 34.2723 0.0217649 33.4416C0.181356 32.6035 0.245193 32.3779 0.277111 32.4101C0.309029 32.4424 0.30903 32.3779 0.30903 32.249L0.404784 31.9266C0.410236 31.9156 0.417551 31.9018 0.425933 31.8859C0.466622 31.809 0.532457 31.6845 0.532457 31.6043L0.692048 31.1853L0.787803 30.9274L0.819721 30.8307C0.883558 30.8307 1.1389 30.2828 1.1389 30.1861C2.27061 28.3516 3.6941 26.7181 5.35211 25.3513L5.76705 25.0289L6.02239 24.8033L6.05431 24.7389C6.11815 24.7389 6.24582 24.6744 6.56501 24.3521L6.78843 24.2231C6.85227 24.2231 6.88419 24.1909 6.88419 24.1587L7.0757 24.0297L7.39488 23.8041C7.4268 23.7397 7.52255 23.7074 7.55447 23.7074C7.61831 23.7074 7.68214 23.643 7.68214 23.6107C7.68214 23.5463 7.74598 23.514 7.7779 23.514L8.57585 23.0305C8.60777 22.9983 9.21422 22.6438 9.40573 22.5793L9.56532 22.4504C9.56532 22.4181 9.62916 22.3859 9.72491 22.3859L9.91642 22.2892L10.0441 22.1925C10.1398 22.1925 10.2037 22.128 10.2037 22.0958L10.2994 22.0636C10.3724 22.0546 10.44 22.0204 10.4909 21.9669C10.5103 21.9571 10.5325 21.9415 10.5568 21.9244C10.6128 21.885 10.6795 21.838 10.7463 21.838L10.874 21.7735C11.279 21.6046 11.6734 21.4109 12.0549 21.1933L12.2784 21.0966C12.3885 21.0786 12.4958 21.0461 12.5976 20.9999L12.9167 20.871C13.215 20.7017 13.5383 20.582 13.8743 20.5164L13.9381 20.4842C13.9062 20.452 14.002 20.3875 14.0977 20.3875C14.2089 20.3744 14.3169 20.3416 14.4169 20.2908C14.4807 20.2263 15.0872 20.033 15.3106 20.0007L15.5021 19.9363L15.949 19.8073L16.3639 19.7106C16.3639 19.6784 16.4916 19.6139 16.6831 19.6139L17.0023 19.5495C19.9131 18.8873 22.9163 18.7455 25.8755 19.1305L26.1947 19.1949C26.1947 19.2271 26.3224 19.2916 26.5139 19.2916C26.7054 19.2916 26.865 19.3561 26.865 19.3883L27.1842 19.485C27.3438 19.485 27.4715 19.5495 27.4715 19.5495C27.4715 19.5817 27.5672 19.6462 27.6949 19.6462L27.9183 19.7429C27.9183 19.7751 28.0141 19.8073 28.1417 19.8073L28.3332 19.904C28.3332 19.9363 28.3971 20.0007 28.4609 20.0007C28.7801 20.0974 29.3227 20.3875 29.5461 20.6131C29.5758 20.6331 29.6054 20.6561 29.6341 20.6784C29.6981 20.7282 29.7574 20.7743 29.8015 20.7743C29.8653 20.7743 29.8972 20.8388 29.8972 20.871L29.9611 20.9032C30.1393 21.0196 30.3005 21.1606 30.4399 21.3222L30.8229 21.7735V21.4834C30.7607 21.044 30.7075 20.6034 30.6633 20.1619L30.5675 19.3561L30.4399 18.7759C30.3208 18.2089 30.2144 17.6394 30.1207 17.0676L30.0249 16.6486C29.993 16.6163 29.9292 16.4552 29.9292 16.294L29.7377 15.6494L29.6738 15.3915C29.6419 15.3915 29.5781 15.2948 29.5781 15.1659L29.5142 14.8436L29.3866 14.4568L29.2589 14.1022C29.227 14.1022 29.1631 14.0055 29.1631 13.8766C29.1631 13.7477 29.0993 13.651 29.0993 13.651C29.0674 13.651 29.0035 13.5543 29.0035 13.4576C28.996 13.4348 28.9885 13.4083 28.9805 13.3805C28.9548 13.2902 28.9246 13.1845 28.8759 13.1353C28.812 13.0386 28.812 12.9419 28.812 12.8774L28.7482 12.8129C28.7163 12.8129 28.6524 12.7485 28.6524 12.6518L28.5567 12.4584C28.3044 11.8366 27.9717 11.2514 27.5672 10.7178C26.487 9.05433 25.1997 7.53777 23.737 6.20534C23.4119 5.93301 23.0926 5.6536 22.7795 5.3673L22.588 5.30284L22.4922 5.20614C22.5241 5.14168 22.4922 5.14168 22.4603 5.14168L22.2369 5.01275C22.173 4.94828 22.0773 4.91605 22.0134 4.91605L21.9496 4.85159C21.9496 4.81936 21.8858 4.75489 21.79 4.75489L21.6623 4.65819L21.5985 4.62596L21.1197 4.40034C20.4175 4.07801 20.1622 3.98132 20.0345 3.98132L19.9068 3.91685C19.9068 3.88462 19.7792 3.82016 19.5876 3.82016L19.2685 3.72346C19.2046 3.62676 16.8427 3.62676 16.7788 3.72346C16.7788 3.75569 16.6512 3.82016 16.5235 3.82016L16.332 3.91685C16.3639 3.94909 16.3001 3.98132 16.2362 4.01355C16.1405 4.01355 16.0766 4.07801 16.0766 4.07801C16.0766 4.14248 16.0447 4.14248 16.0128 4.14248C15.949 4.14248 15.3425 4.59373 15.3425 4.69043L15.1191 4.98052C14.7999 5.33507 14.7999 5.3673 14.7999 5.43177L14.7042 5.59293L14.5765 5.81855L14.5126 5.91525C14.4807 5.91525 14.4488 5.91525 14.4488 5.97971L14.385 6.20534L14.2254 6.62436L14.0977 6.91445L14.0339 7.20454L13.9381 7.4624C13.9062 7.49463 13.8424 7.65579 13.8424 7.81695L13.7466 8.13927L13.6509 8.59052C13.6509 8.81615 13.587 9.00954 13.587 9.00954L13.4913 9.49302C13.4913 9.75088 13.4274 10.0732 13.3955 10.1699C13.3292 11.2127 13.2547 12.2549 13.1721 13.2964V13.8121H12.1507C11.5274 13.8121 11.2704 13.8406 11.1657 13.7277C11.0773 13.6325 11.0974 13.4368 11.0974 13.0386C10.9655 11.4297 10.9655 9.81259 11.0974 8.20374C11.1172 7.68506 11.1705 7.16825 11.257 6.65659L11.4166 6.14088L11.4804 5.75409L11.5762 5.33507C11.6081 5.30284 11.6719 5.17391 11.6719 5.07721L11.7677 4.75489L11.8634 4.3681L11.9911 3.98132L12.2784 3.27221C12.2784 3.20774 12.3103 3.20774 12.3422 3.20774L12.438 3.01435C12.438 2.91766 12.5018 2.85319 12.5018 2.85319C12.8982 2.14202 13.4427 1.52619 14.0977 1.04819C14.1615 1.04819 14.2254 1.01595 14.2254 0.95149L14.6084 0.725865L14.9276 0.564704C14.9595 0.50024 15.0233 0.50024 15.0233 0.50024L15.2468 0.435776C15.3106 0.371311 15.5021 0.306846 15.6298 0.306846L15.8851 0.21015C15.9171 0.177918 16.1086 0.113454 16.3639 0.113454ZM24.8222 20.3553L24.5031 20.2908V20.2586H22.3326L21.3751 20.3875L20.8005 20.452C20.6442 20.5063 20.4842 20.5494 20.3218 20.5809C19.7802 20.6325 19.2454 20.7405 18.7259 20.9032C18.6988 20.9101 18.6688 20.9169 18.6375 20.924C18.5212 20.9506 18.3864 20.9814 18.3109 21.0322L17.8321 21.1288L17.5768 21.2255C17.5768 21.2578 17.4491 21.3222 17.2895 21.3222L17.0342 21.4189C17.0342 21.4189 16.9704 21.4834 16.8427 21.4834L16.4916 21.5801L15.8532 21.9024C15.3495 22.1338 14.8385 22.3488 14.3211 22.5471L14.0977 22.7082L13.9062 22.7727L13.7466 22.8694C13.7466 22.9016 13.6509 22.9661 13.5551 22.9661C13.4593 22.9661 13.3955 23.0305 13.3955 23.0628L13.2998 23.1595L12.7252 23.4818L12.1826 23.7397L12.0869 23.8364C12.0549 23.9008 12.023 23.933 11.9592 23.933L11.8634 23.9653C11.7394 24.1042 11.5869 24.2142 11.4166 24.2876L11.3527 24.3198L11.0974 24.5455C10.9378 24.6422 10.842 24.7389 10.842 24.7711C9.7813 25.5206 8.84417 26.4344 8.06516 27.4786L8.00133 27.5753L7.7779 27.8009L7.55447 28.1232C7.3989 28.3082 7.26996 28.5143 7.17145 28.7356L7.04378 28.8968L6.97994 29.0902L6.88419 29.2514L6.82035 29.3803L6.50117 30.1216C6.2139 30.7663 6.05431 32.7324 6.27774 32.9581C6.33788 33.0176 6.3723 33.0987 6.3735 33.1837L6.50117 33.6027L6.66076 33.925L6.69268 34.0217C6.75652 34.0217 6.75652 34.054 6.75652 34.0862C6.7556 34.1155 6.76458 34.1442 6.78199 34.1676C6.79939 34.1911 6.82418 34.2078 6.85227 34.2151C7.11496 34.6083 7.43822 34.9565 7.80982 35.2466L7.96941 35.3433C7.98955 35.3839 8.07324 35.4374 8.16434 35.4957C8.2176 35.5298 8.2734 35.5654 8.32051 35.6011C8.51202 35.6656 8.63969 35.7623 8.63969 35.7945C8.63969 35.7945 8.70353 35.859 8.8312 35.859L9.02271 35.9234C8.99079 35.9557 9.1823 36.0524 9.43765 36.1168C9.91008 36.2687 10.3894 36.3977 10.874 36.5036C11.2699 36.6058 11.6785 36.6492 12.0869 36.6325L13.0125 36.697C13.0444 36.7937 13.2998 36.7937 13.3636 36.697C13.5825 36.6414 13.8085 36.6197 14.0339 36.6325C14.6722 36.6325 15.4702 36.5681 15.7894 36.5036L16.4277 36.4069L16.9384 36.278C16.9384 36.278 17.098 36.2135 17.2895 36.2135L17.6726 36.1168C18.1684 35.9525 18.6687 35.802 19.1727 35.6656L19.8749 35.4077L20.4175 35.2143L20.9282 34.9887C20.9282 34.9887 21.024 34.9242 21.1516 34.9242L21.3432 34.8275C21.9777 34.5884 22.5872 34.286 23.1625 33.925L23.354 33.7961L23.5455 33.7316C24.0339 33.3913 24.5343 33.0687 25.0457 32.7647C25.5492 32.3579 26.06 31.9603 26.5777 31.5721L26.9288 31.2498C27.0246 31.1208 27.1523 31.0564 27.1842 31.0564C27.3764 30.7919 27.5899 30.544 27.8226 30.315L28.4609 29.6704C28.4367 29.6459 28.4676 29.603 28.5117 29.5414C28.5258 29.5218 28.5412 29.5004 28.5567 29.477C28.6524 29.4125 28.7163 29.3158 28.7163 29.2836L28.8439 29.1224C28.9078 29.058 29.0035 28.9613 29.0035 28.8968L29.1312 28.8001L29.1631 28.7034L29.2589 28.5423L29.4823 28.1232L29.7057 27.7365L29.7696 27.672L29.8653 27.3819L29.993 27.0596C29.993 26.9951 30.0249 26.9629 30.0568 26.9629C30.0888 26.9629 30.1207 26.9306 30.1207 26.8662L30.1845 26.5439C30.2483 26.4472 30.3441 26.0604 30.376 25.7381L30.4079 25.6414C30.4718 25.5769 30.4718 24.481 30.4079 24.4165C30.376 24.4165 30.3122 24.2554 30.3122 24.0297L30.2164 23.7074C30.1845 23.7074 30.1526 23.643 30.1526 23.5463L30.0888 23.3206C30.0249 23.2884 29.9611 23.1595 29.9611 23.095L29.8653 22.9339L29.61 22.5471C29.5142 22.4504 29.3866 22.3214 29.3866 22.257L29.227 22.0958L28.9078 21.838C28.6205 21.5801 28.4609 21.4512 28.3971 21.4512L28.3013 21.4189C28.3013 21.3545 28.2694 21.3545 28.2056 21.3545C28.1737 21.3545 28.1098 21.3222 28.1098 21.2578L28.0141 21.1611L27.7906 21.0966L27.5991 20.9999C26.7209 20.6137 25.7793 20.3951 24.8222 20.3553Z" fill="#B1A095"/>
<path fill-rule="evenodd" clip-rule="evenodd" d="M98.7768 1.49928C98.7768 1.37036 99.1279 0.951337 99.3514 0.790176V0.822408C99.7982 0.500086 100.532 0.886873 100.692 1.46705C100.692 1.56375 100.756 1.59598 100.788 1.59598C100.88 2.43416 100.848 3.28153 100.692 4.11009L100.596 5.0126C100.585 5.06887 100.566 5.13694 100.546 5.20857C100.509 5.34206 100.468 5.48789 100.468 5.59278L100.373 6.01179C100.341 6.01179 100.277 6.17295 100.277 6.33412L100.181 6.59197L100.085 6.88206L100.022 7.20439C99.9897 7.20439 99.9259 7.33331 99.9259 7.46224L99.7344 8.10689L99.6705 8.36474C99.6386 8.39698 99.5748 8.55814 99.5748 8.68707L99.479 9.00939C99.479 9.00939 99.4152 9.13832 99.4152 9.29948L99.3514 9.5251H99.7344C103.073 9.90664 106.441 9.94983 109.789 9.65403C109.948 9.7185 109.98 9.84743 109.852 9.97635C109.757 10.0731 109.757 10.0731 109.884 10.1697C110.076 10.2987 110.012 10.6532 109.821 10.6532C108.953 10.9275 108.049 11.0687 107.139 11.0723C106.82 11.0723 106.565 11.0723 106.565 11.1367C106.501 11.2012 105.288 11.2012 105.288 11.1367C104.042 10.9359 102.783 10.8282 101.522 10.8144L99.3833 10.7177C99.096 10.621 98.9683 10.6532 98.9683 10.8144L98.9045 10.9756L98.8087 11.2334C98.8087 11.3623 98.7449 11.4913 98.713 11.4913L98.6811 11.6524L98.5534 11.9748L98.4577 12.3293L98.3938 12.4582C98.3619 12.4582 98.2981 12.5872 98.2981 12.7161L98.2023 13.0062C98.1092 13.4038 97.9811 13.7921 97.8193 14.1665C97.7874 14.231 97.7235 14.3599 97.7235 14.4889L97.6278 14.6823L97.532 14.9401L97.4682 15.198C97.4363 15.198 97.3724 15.3269 97.3724 15.4558L97.2767 15.6815L97.2128 15.8104L97.1171 16.1972L96.9894 16.5517L96.9575 16.7129C96.9256 16.7129 96.8298 16.8418 96.8298 17.0352L96.5426 17.9055C96.4609 18.2042 96.3541 18.4954 96.2234 18.7757L96.1915 18.9047C96.1595 18.9047 96.0957 19.0336 96.0957 19.1625L95.9042 19.6782C95.9042 19.8072 95.8404 19.9039 95.8404 19.9039C95.7765 19.9039 95.7765 19.9683 95.7765 20.0328L95.6488 20.4841C95.3616 21.2899 95.5212 30.476 95.8404 31.1207L95.9042 31.7009L95.9999 32.1521C96.0319 32.1521 96.0957 32.3777 96.0957 32.6678L96.1915 33.1835L96.2553 33.6993L96.3511 34.1505C96.383 34.1505 96.4468 34.3117 96.4468 34.4728C96.5007 34.8028 96.5862 35.1266 96.7021 35.4398L96.8298 35.891L96.9256 36.2134C96.9575 36.2134 97.0213 36.3101 97.0213 36.4068C97.0213 36.5357 97.0852 36.6324 97.1171 36.6324L97.1809 36.7613C97.2778 36.911 97.3735 37.0615 97.4682 37.2126C97.5224 37.2856 97.5459 37.3172 97.5561 37.3134C97.5639 37.3105 97.5639 37.2867 97.5639 37.2448C97.5639 36.9869 97.8512 36.8903 97.9789 37.0514C98.0117 37.1177 98.0276 37.1499 98.0354 37.148C98.0427 37.1463 98.0427 37.1141 98.0427 37.0514C98.0427 36.8903 98.1385 36.8258 98.2342 36.9225C98.3619 37.0192 98.33 37.7928 98.2023 37.9217L97.7874 38.3729C97.4363 38.663 96.6383 38.3407 96.4468 37.825L96.3511 37.7283L96.2553 37.5671L96.1915 37.3737C96.1595 37.3737 96.0957 37.3093 96.0957 37.2126L95.9999 37.0192L95.9042 36.858C95.9042 36.7825 95.8713 36.707 95.8441 36.6444C95.8249 36.6002 95.8084 36.5624 95.8084 36.5357C95.7446 36.4712 95.6808 36.3101 95.6808 36.1811L95.585 35.9233L95.5212 35.6654L95.4254 35.4076L95.3297 35.0852L95.2658 34.7629C95.2339 34.7307 95.1701 34.6018 95.1701 34.4084L95.0743 34.0216C94.9467 33.1691 94.7977 32.3201 94.6275 31.4752C94.6379 29.89 94.5312 28.3063 94.3083 26.7371L94.2764 24.9966C94.2516 23.6712 94.246 23.3741 94.2001 23.3677C94.1868 23.3659 94.1702 23.3883 94.1487 23.4172L94.021 23.6428L93.9572 23.7395L93.9253 23.804C93.9253 23.8684 93.8614 23.9329 93.8295 23.9329C93.7976 23.9652 93.7018 24.0619 93.7018 24.1263L93.638 24.3197C93.6061 24.3197 93.5422 24.3842 93.5422 24.4486L93.4465 24.6098L93.2231 24.9643L92.872 25.609L92.7762 25.7701C92.7762 25.8346 92.7124 25.8991 92.6805 25.8991L92.6485 25.9635L92.3932 26.4148L92.3613 26.4792L92.2336 26.6404L92.0102 27.0594L91.8187 27.3817C91.7229 27.5429 91.5952 27.6396 91.5952 27.6396C91.5314 27.6396 91.5314 27.7041 91.5314 27.7363C91.0588 28.433 90.4506 29.0252 89.744 29.4768L89.6801 29.5091C89.6801 29.7347 88.0842 29.8959 88.0204 29.7347C87.9885 29.6702 87.9566 29.638 87.8927 29.638C87.6693 29.638 86.9032 28.6066 86.9032 28.2842C86.9032 28.2198 86.8394 28.1876 86.8394 28.1876C86.8075 28.1876 86.7437 28.0586 86.7437 27.9297L86.6479 27.6074L86.5521 27.1561C86.4036 25.7215 86.3715 24.2769 86.4564 22.837L86.5841 22.2891L86.6479 21.87C86.6798 21.87 86.7437 21.6766 86.7437 21.4833L86.8394 21.0965C86.8963 20.9081 86.9285 20.7131 86.9352 20.5163L87.0628 19.8716C87.1131 19.7369 87.1453 19.596 87.1586 19.4526L87.2224 19.0014C87.2727 18.8666 87.3049 18.7257 87.3182 18.5824L87.4139 18.1956L87.5097 17.7766C87.5097 17.5509 87.5735 17.3898 87.5735 17.3898C87.6054 17.3898 87.6693 17.1964 87.6693 16.9707L87.765 16.5195C87.797 16.4873 87.8608 16.1649 87.8608 15.7782L87.8927 15.069L87.1586 15.8104C86.9352 16.0038 86.7756 16.2294 86.7756 16.2294L86.6798 16.3583C86.5202 16.5195 86.5521 17.0352 86.7117 17.422C86.9671 18.1633 86.7756 19.5171 86.3926 19.5171L86.2649 19.5493C86.2649 19.646 86.0415 19.646 85.9776 19.5493C85.9457 19.5171 85.8819 19.1625 85.8819 18.808C85.8819 18.4212 85.818 18.0666 85.7861 17.9699L85.7223 17.8088L85.4031 18.1956L85.0201 18.7435L84.8605 18.9691L84.669 19.227C84.5531 19.3816 84.4465 19.543 84.3498 19.7105L84.0944 20.0328C84.0306 20.065 84.0306 20.1295 84.0306 20.194L83.9668 20.2584L83.7753 20.4841L83.5837 20.7741L83.4242 20.9675L83.2326 21.2254L83.0092 21.5477L82.8496 21.7411L82.7858 21.8056L82.69 21.999L82.5624 22.1601L82.4666 22.3213C82.2432 22.5469 82.0836 22.7403 82.0836 22.837L81.9559 22.9982C81.8921 22.9982 81.8602 23.0626 81.8602 23.0949C81.8602 23.1916 81.2856 23.7717 81.1899 23.7717C81.126 23.7717 81.126 23.8362 81.126 23.8362C81.126 23.8684 81.0622 23.9329 80.9664 23.9329L80.8388 24.0296L80.5834 24.0941L80.2643 24.1908C80.0408 24.5775 78.9237 23.8362 78.9237 23.3205L78.796 22.9982C78.7641 22.8692 78.6045 23.0304 76.4341 25.2867C74.5828 27.2528 74.0402 27.7685 73.9444 27.7685L73.7848 27.8975L73.5933 27.9942L73.4976 28.0909L73.3699 28.1876L73.2741 28.2198C73.2422 28.3165 72.54 28.7033 72.3485 28.7355L72.1889 28.8322L71.9336 28.8967L71.6463 29.0256C71.5825 29.1223 70.21 29.1223 70.1462 29.0256C70.1462 28.9934 70.0504 28.9289 69.9866 28.9289C69.7951 28.8644 69.3801 28.4776 69.3801 28.3809L69.3163 28.2842L69.2205 28.1553C69.2205 28.0586 69.1567 27.9942 69.1567 27.9942C69.1248 27.9942 69.0609 27.8975 69.0609 27.7363L68.9652 27.414C68.867 26.3396 68.8992 25.2572 69.0609 24.1908L69.1567 23.7073L69.2524 23.385C69.2524 23.1916 69.3163 23.0304 69.3482 23.0304C69.444 22.9659 69.444 22.4825 69.3482 22.4825C68.7809 22.7564 68.2061 23.0143 67.6246 23.256C67.2914 23.4023 67.1226 23.469 66.9958 23.5825C66.8432 23.7191 66.7515 23.9236 66.5075 24.4164L66.0606 25.2544C66.0606 25.2544 65.9968 25.3189 65.9968 25.4156L65.8372 25.7379L65.7414 25.8991C65.6776 25.8991 65.6776 25.9313 65.6776 25.9635C65.6776 26.1247 64.8797 26.995 64.6562 27.0594C64.5605 27.0594 64.4966 27.1239 64.4966 27.1239C64.4966 27.1561 64.4009 27.2206 64.3051 27.2206L63.8902 27.3173C63.6987 27.3817 63.0922 27.2528 62.9965 27.1239L62.805 26.995C62.7092 26.9305 62.6454 26.866 62.6454 26.8016C62.6454 26.7693 62.6135 26.7049 62.5496 26.7049L62.4858 26.5759C62.4858 26.5115 62.4539 26.4792 62.422 26.4792C62.39 26.4792 62.3262 26.4148 62.3262 26.3181C62.3262 26.2214 62.2624 26.1247 62.2304 26.1247L62.1985 26.0602L62.0708 25.609C62.007 25.4156 61.9113 25.0288 61.9113 24.7065C61.9113 24.4164 61.8474 24.1908 61.8155 24.1908L61.7517 24.0618V24.0296L61.6559 24.1263L61.5921 24.3197L61.4963 24.4809C61.4644 24.4809 61.4006 24.5775 61.4006 24.6742L61.3048 24.8354L61.241 24.8999L61.1452 25.19L61.0175 25.5123L60.9856 25.609C60.5716 26.6017 60.1027 27.5702 59.5812 28.5099L59.1663 29.4124L59.1024 29.4768C59.0705 29.4768 59.0386 29.5413 59.0386 29.638L58.9429 29.8314C58.879 29.8314 58.879 29.8636 58.879 29.8959L58.7514 30.1859L58.6556 30.5083C58.6556 30.5727 58.5918 30.5727 58.5918 30.5727C58.5598 30.5727 58.496 30.6694 58.496 30.7661L58.4002 30.9273L58.3364 31.1207C58.0906 31.7267 57.7915 32.3092 57.4427 32.8612C57.3789 32.8935 57.3789 32.9902 57.3789 32.9902C57.2049 33.221 57.0552 33.4694 56.932 33.7315L56.7086 34.0538L56.6767 34.1183C56.6767 34.1827 56.2617 34.7952 56.1979 34.7952L56.1341 34.8596C56.1341 34.9563 55.7191 35.4076 55.6553 35.4076L55.5276 35.472C55.4957 35.5365 55.3999 35.5687 55.3361 35.5687L55.2084 35.601C55.2084 35.7299 54.5381 35.6977 54.4743 35.601L54.3466 35.5043C54.2509 35.5043 54.0594 35.3109 54.0594 35.2464L53.9955 35.1497C53.9317 35.1175 53.6125 34.4728 53.5487 34.2472L53.4848 34.0538C53.4529 34.0538 53.3891 33.9249 53.3891 33.7637L53.2933 33.3769C52.9436 31.3549 52.7727 29.3054 52.7826 27.2528L52.7507 24.1908L52.5911 24.5131L52.3677 24.8999L52.2719 25.0933C52.2719 25.19 52.2081 25.2544 52.2081 25.2544C52.1762 25.2544 52.1124 25.3189 52.1124 25.4156L51.9528 25.7379L51.6974 26.3181L51.5059 26.8338L51.4421 26.8983L51.3463 27.0594L51.2825 27.2528C51.2506 27.2528 51.1867 27.3173 51.1867 27.414L51.091 27.6074L50.9952 27.7685L50.9314 27.9619C50.6188 28.7427 50.2452 29.4972 49.8142 30.2182L49.7185 30.4116C49.7185 30.5083 49.6547 30.5727 49.6547 30.5727C49.5908 30.5727 49.5908 30.6372 49.5908 30.6694C49.3451 31.1485 49.1318 31.6439 48.9524 32.1521C48.9524 32.2166 48.9205 32.2166 48.8886 32.2166L48.7929 32.41C48.7929 32.5067 48.729 32.5711 48.6971 32.5711L48.6652 32.6678C48.6652 32.7323 48.6333 32.7968 48.5694 32.7968L48.4737 32.8935C48.4737 32.9257 48.4098 33.0868 48.2822 33.248L47.8672 33.9893L47.8034 34.1183C47.7715 34.1183 47.7076 34.1827 47.7076 34.2472L47.6119 34.4084L47.548 34.4728C47.548 34.5373 47.5161 34.6018 46.9735 35.1497C46.7501 35.4076 46.5267 35.5687 46.4628 35.5687L46.3352 35.6332C46.3352 35.6654 46.1756 35.6977 45.9841 35.6977C45.7925 35.6977 45.6329 35.6332 45.6329 35.6332C45.6329 35.5687 45.601 35.5687 45.5691 35.5687C45.3776 35.5687 44.7712 34.7952 44.7712 34.5373L44.7073 34.4406L44.6116 34.2472C44.6116 34.1183 44.5477 33.9571 44.5158 33.9571C44.5158 33.9487 44.5093 33.9249 44.4996 33.8897C44.4723 33.7902 44.4201 33.5997 44.4201 33.4092L44.2924 32.9257C44.2924 32.9257 44.2285 32.7001 44.2285 32.41L44.1328 31.8298C44.1009 31.7976 44.037 31.4108 44.037 30.9595C43.892 28.1035 43.892 25.2418 44.037 22.3858L44.1328 21.6444L44.2285 20.9998L44.2924 20.2262C44.3243 20.2262 44.3881 19.9039 44.3881 19.5816L44.4839 18.7757L44.7712 17.2931L44.835 16.9063C44.8669 16.8418 44.9308 16.6484 44.9308 16.455L45.0265 16.036C45.0742 15.9116 45.1063 15.7817 45.1223 15.6492L45.1861 15.2302C45.218 15.198 45.2819 15.069 45.2819 14.9079L45.3776 14.6823C45.4095 14.6823 45.4414 14.5533 45.4414 14.3922L45.5372 14.0698C45.5691 14.0376 45.633 13.8765 45.6649 13.6508L45.7925 13.2318L45.8564 12.9095L45.9521 12.6516C45.9841 12.6194 46.0479 12.4905 46.0479 12.3615C46.0479 12.2004 46.1117 12.1037 46.1117 12.1037C46.1436 12.1037 46.2075 11.9748 46.2075 11.8136L46.3032 11.4913C46.3352 11.459 46.399 11.3301 46.399 11.2012L46.4947 10.8789L46.5586 10.621L46.6543 10.2987C46.6863 10.2987 46.7501 10.1375 46.7501 10.0086C46.7501 9.84743 46.8139 9.75073 46.8139 9.75073C46.8458 9.75073 46.9097 9.65403 46.9097 9.5251C46.9097 9.39618 46.9735 9.17055 47.0374 9.04162C47.1331 8.88046 47.165 8.7193 47.165 8.65483L47.2289 8.55814C47.2608 8.55814 47.3246 8.49367 47.3246 8.39698L47.3885 8.10689C47.5161 7.88126 47.7076 7.46224 47.7076 7.36555L47.7396 7.26885C47.7715 7.26885 47.8353 7.20439 47.8353 7.10769L47.9311 6.8176L48.0907 6.43081C48.247 6.03142 48.4506 5.65262 48.6971 5.30268L48.7609 5.10929L48.8567 4.94813L48.9205 4.78697C49.1635 4.40667 49.3769 4.00795 49.5589 3.59438L49.7823 3.27206C49.8584 3.17253 49.9227 3.06435 49.9738 2.94973C50.0454 2.7919 50.1309 2.64088 50.2292 2.49848L50.5484 2.1117C50.708 1.88607 50.9633 1.62821 51.2186 1.43482C51.4421 1.20919 52.1762 1.17696 52.3996 1.37036C52.655 1.59598 52.8146 1.85384 52.8146 1.98277L52.8465 2.1117C53.0061 2.1117 52.8784 4.07786 52.6869 4.30349L52.5911 4.62581L52.5273 4.9159C52.4635 4.9159 52.4635 5.0126 52.4635 5.0126L52.3677 5.33492L52.24 5.65724C52.24 5.78617 52.1762 5.88286 52.1762 5.88286C52.1443 5.88286 52.0804 5.94733 52.0804 6.07626L52.0166 6.26965C51.9847 6.30188 51.9208 6.43081 51.9208 6.55974L51.6017 7.39778C51.5697 7.46224 51.5059 7.59117 51.5059 7.7201L51.4102 7.91349C51.3782 7.91349 51.3463 8.01019 51.3463 8.13912L51.2506 8.33251C51.1867 8.33251 51.1867 8.39698 51.1867 8.46144L51.0591 8.84823L50.9633 9.17055L50.8995 9.29948C50.8675 9.33171 50.8037 9.42841 50.8037 9.5251C50.8037 9.65403 50.7399 9.75073 50.7399 9.75073C50.708 9.75073 50.6441 9.87966 50.6122 10.0731C50.3822 10.8915 50.0383 11.6729 49.5908 12.3938L49.527 12.5872L49.4312 12.7483C49.3993 12.7483 49.3674 12.7806 49.3674 12.845L49.144 13.4252L48.9205 13.9409C48.9205 14.0054 48.8886 14.0376 48.8567 14.0376L48.7609 14.1988L48.6971 14.3922C48.6652 14.3922 48.6013 14.4566 48.6013 14.5533L48.5056 14.7145L48.4098 14.9079L48.346 15.1013C48.0313 15.8811 47.6578 16.6354 47.2289 17.3575L47.1331 17.5509C47.1331 17.6476 47.0693 17.7121 47.0693 17.7121C47.0054 17.7121 47.0054 17.7766 47.0054 17.7766C47.0054 17.841 46.9735 17.9377 46.6863 18.5501L46.5267 18.9369L46.4947 19.0014C46.4628 19.0014 46.399 19.0981 46.399 19.1948L46.3032 19.3559L46.2075 19.5493C46.2075 19.646 46.1436 19.7105 46.1436 19.7105C46.1117 19.7105 46.0479 19.7749 46.0479 19.9039L45.8564 20.2262L45.7925 20.4196C45.6402 20.8352 45.4477 21.2346 45.218 21.6122C44.9946 21.999 44.9627 22.1279 44.8988 23.1271C44.8031 24.8999 44.8988 29.7347 45.0584 29.7992C45.1531 31.2117 45.3666 32.6134 45.6968 33.9893L45.7925 34.2472L45.8564 34.4406C45.9202 34.6018 46.1436 34.7307 46.1756 34.634C46.3506 34.4313 46.5106 34.2158 46.6543 33.9893L46.8778 33.667L46.9735 33.4736L47.1331 33.3125C47.1331 33.2802 47.1969 33.1191 47.3246 32.9579L47.5161 32.6034L47.58 32.5389C47.6438 32.5389 47.6438 32.5067 47.6438 32.4422C47.9032 32.0376 48.1173 31.6052 48.2822 31.1529C48.2822 31.0885 48.3141 31.0885 48.346 31.0885L48.4098 30.8951L48.5056 30.7339C48.5375 30.7339 48.6013 30.6694 48.6013 30.5727L48.6971 30.3793L48.7609 30.3149C48.7813 30.2147 48.8135 30.1173 48.8567 30.0248L48.9844 29.7025L49.0163 29.6058C49.0482 29.6058 49.112 29.5413 49.112 29.4446L49.2078 29.2834C49.2716 29.2834 49.2716 29.2512 49.2716 29.1868L49.3993 28.8L49.5589 28.4776C49.5589 28.4132 49.5908 28.3809 49.6227 28.3809L49.6866 28.3165C49.707 28.2163 49.7391 28.1189 49.7823 28.0264L49.91 27.7041C49.91 27.6396 49.9419 27.6396 49.9738 27.6396L50.0377 27.4462L50.1334 27.2851C50.1653 27.2851 50.2292 27.1884 50.2292 27.0917C50.2292 26.995 50.293 26.9305 50.3249 26.9305L50.3888 26.7371C50.6234 26.1318 50.9119 25.5493 51.2506 24.9966L51.3144 24.8032L51.4102 24.642C51.4421 24.642 51.5059 24.5453 51.5059 24.4164C51.5059 24.3197 51.5697 24.223 51.6017 24.223C51.6017 24.223 51.6655 24.1585 51.6655 24.0618L51.7613 23.8684C51.8251 23.8684 51.8251 23.8362 51.8251 23.7717L51.9528 23.4494L52.1124 23.0626C52.1124 22.9982 52.1443 22.9982 52.1762 22.9982L52.2719 22.8048C52.2719 22.7081 52.3358 22.6436 52.3358 22.6436C52.3996 22.6436 52.3996 22.5791 52.3996 22.5791L52.5273 22.2568L52.6231 21.9667C52.6231 21.9023 52.6869 21.87 52.6869 21.87C52.7507 21.87 52.7507 21.8378 52.7507 21.8056L52.9103 21.4833C53.0699 21.2254 53.1018 21.0965 53.1657 20.2907C53.2933 19.227 53.3891 18.5179 53.4529 18.4534L53.5487 18.0022C53.5487 17.7765 53.6125 17.6154 53.6125 17.6154C53.6444 17.6154 53.7083 17.3898 53.7083 17.1641L53.804 16.7129L53.8998 16.3261C54.0275 15.5848 54.0913 15.2302 54.1551 15.1013L54.2509 14.779C54.2509 14.65 54.3147 14.5533 54.3147 14.5533L54.4424 14.1343L54.5381 13.7153C54.5701 13.6831 54.6339 13.5541 54.6339 13.4252L54.7296 13.1029L54.8254 12.845L54.8892 12.5227C54.9212 12.5227 54.985 12.3938 54.985 12.2648L55.0808 11.9425L55.1446 11.6202L55.2403 11.3946C55.2723 11.3946 55.3361 11.2656 55.3361 11.1045L55.4319 10.8144C55.4319 10.8144 55.4957 10.6855 55.4957 10.4921L55.5914 10.1697C55.6234 10.1375 55.6872 9.97635 55.6872 9.81519C55.783 9.49287 55.8787 9.20278 56.0064 8.97716C56.3312 8.26218 56.6188 7.53059 56.8682 6.78537C57.0278 6.36635 57.2193 5.9151 57.2831 5.88286L57.3789 5.68947C57.3789 5.59277 57.4427 5.52831 57.4427 5.52831L57.6342 5.20599L57.7938 4.88367C57.8257 4.88367 57.8896 4.8192 57.8896 4.72251C57.8896 4.65804 57.9534 4.59358 57.9853 4.59358C58.0172 4.59358 58.0492 4.56134 58.0492 4.49688C58.1088 4.32913 58.1836 4.16728 58.2726 4.0134C58.329 3.89948 58.378 3.7997 58.4209 3.71233C58.645 3.25583 58.7029 3.13795 58.7833 3.1109L58.8471 2.98197C58.8471 2.9175 58.879 2.88527 58.9109 2.88527C58.9429 2.88527 58.9748 2.85304 58.9748 2.78857L59.0705 2.59518L59.1982 2.43402L59.2301 2.36955C59.262 2.36955 59.3578 2.27286 59.4216 2.14393C59.6131 1.85384 60.06 1.43482 60.1558 1.43482C60.1877 1.43482 60.2515 1.40259 60.2834 1.33812C60.3473 1.04803 61.4644 1.30589 61.5602 1.62821C61.5602 1.72491 61.624 1.75714 61.624 1.75714C61.8793 1.75714 61.8793 3.88447 61.624 4.20679L61.5602 4.52911L61.4644 4.8192C61.4006 4.8192 61.4006 4.88367 61.4006 4.94813L61.2729 5.33492C61.2091 5.43161 61.1771 5.59278 61.1771 5.65724C61.1771 5.7217 61.1452 5.75394 61.1133 5.75394C61.0814 5.75394 61.0175 5.85063 61.0175 5.97956C61.0175 6.10849 60.9537 6.23742 60.9218 6.23742C60.9218 6.23742 60.858 6.33412 60.858 6.46304L60.7622 6.68867L60.6664 6.88206C60.6664 7.07546 60.443 7.6234 60.3473 7.8168L60.2834 8.07466L60.1877 8.26805C60.1558 8.26805 60.0919 8.36475 60.0919 8.49367C60.0919 8.59037 60.0281 8.75153 59.9642 8.84823C59.9004 8.94492 59.9004 9.07385 59.9004 9.10608C59.9004 9.17055 59.8366 9.20278 59.8366 9.20278C59.7727 9.20278 59.7727 9.26725 59.7727 9.33171L59.677 9.58957C58.8228 11.6058 57.9289 13.6045 56.9958 15.5848L56.5809 16.5517L56.5171 16.6162L56.4213 16.7774L56.3575 16.9707L56.2936 17.003L56.166 17.3253L56.0702 17.6476C56.0702 17.7121 56.0064 17.7121 56.0064 17.7121C55.9745 17.7121 55.9106 17.8088 55.9106 17.9055L55.8149 18.0666L55.751 18.26L55.6553 18.4212C55.5914 18.4212 55.5914 18.4857 55.5914 18.4857C55.5914 18.5501 55.4957 18.7757 55.3361 19.0336C54.9612 19.9387 54.535 20.8212 54.0594 21.6766C53.6728 24.1398 53.6191 26.6445 53.8998 29.1223C53.941 30.5677 54.1336 32.0047 54.4743 33.4092L54.5381 33.7315C54.5701 33.796 54.6339 33.9249 54.6339 34.0538L54.7296 34.3117L54.7935 34.4406C54.8573 34.6985 55.3042 34.5695 55.3042 34.3117L55.4319 34.1505C55.4957 34.1183 55.5276 34.0216 55.5276 33.9893C55.5276 33.9249 55.5595 33.8927 55.5914 33.8927C55.6234 33.8927 55.9425 33.4414 55.9425 33.3769L55.9745 33.3125L56.1341 33.0868L56.3256 32.829L56.5809 32.3777L56.7086 32.1843C57.0201 31.4237 57.3937 30.6906 57.8257 29.9926C57.9267 29.6809 58.0549 29.3789 58.2087 29.0901L58.3364 28.7677L58.3683 28.671C58.4003 28.671 58.4641 28.6066 58.4641 28.5099L58.5598 28.3165L58.6556 28.1553C58.6556 28.0586 58.7194 27.9942 58.7194 27.9942C58.7833 27.9942 58.7833 27.9297 58.7833 27.9297C58.8112 27.8169 58.8542 27.7085 58.9109 27.6074L59.0067 27.2851C59.0067 27.2206 59.0705 27.2206 59.0705 27.2206C59.1025 27.2206 59.1663 27.1239 59.1663 27.0272L59.262 26.866L59.3259 26.8016L59.4536 26.4148L59.6131 26.0602L59.6451 25.9958C59.677 25.9958 59.7408 25.8991 59.7408 25.8024L59.8366 25.6412C59.8685 25.6412 59.9004 25.609 59.9004 25.5445L59.9962 25.2544L60.1238 24.9321L60.1877 24.8676L60.2834 24.7065L60.3473 24.5131C60.3792 24.5131 60.443 24.4486 60.443 24.3519L60.5388 24.1585C60.7039 23.7173 60.8958 23.2867 61.1133 22.8692L61.3048 22.5791C61.4006 22.5791 61.3367 22.418 61.1771 22.1279C60.6345 21.2576 60.3473 18.5501 60.7622 18.0666L60.858 17.7443C60.858 17.5832 60.9218 17.4865 60.9218 17.4865C60.9537 17.4865 61.0175 17.3898 61.0175 17.2931L61.1133 17.0674L61.2091 16.9063L61.2729 16.7129C61.3048 16.7129 61.3686 16.6484 61.3686 16.584C61.3993 16.5122 61.4425 16.4467 61.4963 16.3906L61.6878 16.1327C62.0389 15.6815 62.39 15.3914 62.9007 15.1013L63.2837 14.8757H64.1775C65.0392 14.8757 65.135 14.8757 65.3904 15.0046C65.4918 15.059 65.5988 15.1023 65.7095 15.1335C65.7734 15.1335 65.7734 15.1657 65.7734 15.198L65.933 15.2947L66.0606 15.3591C66.0606 15.4236 66.1245 15.4236 66.1564 15.4236C66.2202 15.4236 66.2841 15.4558 66.2841 15.5203C66.6073 15.7482 66.8883 16.0319 67.1139 16.3583L67.2735 16.584C67.3054 16.6162 67.3693 16.7129 67.3693 16.8096L67.465 16.9707C67.4969 16.9707 67.5608 17.0674 67.5608 17.1964L67.6565 17.422C67.6565 17.422 67.7204 17.5509 67.7204 17.7121C67.862 18.5854 67.9049 19.4721 67.8481 20.3551L67.7204 20.8708C67.6246 21.4188 67.4969 21.9023 67.465 21.9345L67.3693 22.1279L67.3374 22.2891L67.5927 22.2568L67.88 22.1924C67.9119 22.1279 68.1034 21.999 68.263 21.9345C68.3587 21.9023 68.4545 21.8056 68.4545 21.7733L68.5822 21.6766H68.7098C68.7098 21.6444 68.8694 21.4833 69.0609 21.3543L69.6993 20.9031L69.9866 20.6774L70.1462 20.5163C70.1462 20.4196 70.3377 20.0006 70.3696 20.0006L70.4653 19.8394L70.5292 19.646C70.5611 19.646 70.6249 19.5816 70.6249 19.5171L71.008 18.7435L71.1675 18.5824C71.2314 18.5501 71.2314 18.4857 71.2314 18.4534C71.2314 18.389 71.2633 18.389 71.2952 18.389C71.5076 18.0342 71.7651 17.7091 72.0613 17.422C72.3166 17.1641 72.8911 16.7129 72.955 16.7129C72.9869 16.7129 73.0507 16.7129 73.0507 16.6484C73.2645 16.5007 73.5021 16.3916 73.7529 16.3261C74.104 16.2294 75.0616 16.1972 75.1892 16.2939L75.4127 16.3906C75.5723 16.455 75.9872 16.874 75.9872 16.9707C75.9863 17 75.9953 17.0287 76.0127 17.0522C76.0301 17.0756 76.0549 17.0924 76.083 17.0997C76.1468 17.0997 76.1468 17.3252 76.1468 17.9053C76.1468 18.4532 76.1149 18.7435 76.083 18.7757C76.0191 18.808 75.9872 18.9047 75.9872 19.0014L75.8914 19.3237L75.7638 19.646L75.6999 19.7105C75.6999 19.7105 75.6361 19.7749 75.6361 19.8716C75.5084 20.2907 74.8062 21.0642 74.4232 21.1932L74.104 21.2899C74.0402 21.3866 73.9125 21.3543 73.721 21.2899C73.5295 21.1932 73.4976 20.8386 73.6572 20.7741C73.721 20.7741 73.721 20.7097 73.721 20.6774C73.721 20.613 73.7848 20.5485 73.8487 20.4841L73.9764 20.3551L74.0083 20.2262C74.0359 20.1948 74.0613 20.1661 74.0846 20.1397C74.2767 19.9222 74.3275 19.8647 74.3275 19.8072L74.3913 19.6782C74.4551 19.6782 74.519 19.5816 74.519 19.4849L74.6147 19.2915L74.6786 19.227C74.6964 19.1158 74.7286 19.0074 74.7743 18.9047L74.9658 18.4534C74.9658 18.3567 74.9977 18.2923 75.0297 18.2923C75.1254 18.2923 75.0935 17.3253 74.9658 17.1964C74.8701 17.0674 74.6466 17.0352 74.5828 17.1319L74.4232 17.1964C74.2636 17.1964 73.6891 17.4865 73.6891 17.5509C73.3055 17.8358 72.9619 18.172 72.6677 18.5501C72.6479 18.5801 72.6251 18.61 72.603 18.639C72.5537 18.7036 72.5081 18.7635 72.5081 18.808L72.4443 18.9047C72.3804 18.9369 72.3485 18.9691 72.3485 19.0336L72.2847 19.1303L72.2208 19.1948L72.157 19.3559L72.0293 19.5816L71.9336 19.7105L71.8698 19.7749L71.7421 20.1617L71.5825 20.5163L71.5506 20.5808C71.5186 20.5808 71.4548 20.6774 71.4548 20.8064L71.3591 20.9998C71.3271 20.9998 71.2952 21.0965 71.2952 21.2254L71.1995 21.451C71.1675 21.451 71.1037 21.5799 71.1037 21.7089L70.9122 22.2246C70.9122 22.3535 70.8484 22.4502 70.8484 22.4502C70.8164 22.4502 70.7526 22.5791 70.7526 22.7403L70.6569 23.1271L70.5292 23.5461L70.4334 24.0296C70.0736 25.2873 70.0188 26.6139 70.2738 27.8975C70.4653 28.2198 70.8484 28.4132 70.8484 28.2198C70.8484 28.1553 70.9122 28.1553 71.008 28.1553C71.1675 28.1553 71.8698 27.9297 71.9336 27.8652L72.6996 27.414C72.7315 27.3495 72.7954 27.3173 72.8592 27.3173C74.314 26.0176 75.6992 24.6404 77.0086 23.1916C77.5312 22.6027 78.0632 22.0224 78.6045 21.451L78.6123 21.4422C78.8923 21.1281 78.9237 21.0929 78.9237 20.7097L79.0194 20.2584C79.0514 20.2584 79.1152 20.0973 79.1152 19.9361L79.2109 19.6138L79.2748 19.3559L79.3705 19.1303L79.4663 18.9369C79.4982 18.7113 79.8812 17.841 79.977 17.841L80.0089 17.7443L80.0727 17.6154L80.2962 17.2931C80.306 17.2798 80.3156 17.2668 80.3248 17.2543C80.4051 17.1452 80.4623 17.0674 80.5196 17.0674V17.003C80.5196 16.9385 80.5834 16.874 80.6153 16.8418L80.9345 16.5195C81.1133 16.2911 81.3292 16.0949 81.5729 15.9393L81.6687 15.8748C81.7006 15.8104 81.7325 15.7782 81.7963 15.7782C81.8282 15.7782 81.924 15.7459 81.924 15.6815C82.1378 15.5337 82.3754 15.4247 82.6262 15.3591L82.7539 15.3269C82.9454 15.1335 84.6051 15.1335 84.9882 15.3269L85.2116 15.4236C85.2754 15.4236 85.3073 15.4558 85.3073 15.4881C85.3073 15.5203 85.3712 15.5525 85.4988 15.5525L85.6904 15.6492C85.6904 15.7782 85.9457 15.6815 86.1372 15.4558C86.4564 15.1013 87.1905 14.3277 87.2543 14.3277L87.4139 14.1988C87.5097 14.1021 88.4034 14.0698 88.4672 14.1665C88.4992 14.1988 88.563 14.2632 88.6588 14.2632C88.7226 14.2955 88.8183 14.3599 88.8183 14.4566C88.8183 14.5211 88.8822 14.6178 88.9141 14.6178C89.0418 14.6823 89.2014 15.9393 89.0737 16.1005C89.0418 16.1327 88.9779 16.3583 88.9779 16.6162L88.8822 17.0997L88.8183 17.5509L88.7226 18.0022C88.6907 18.0022 88.6268 18.1956 88.6268 18.4534L88.5311 18.9047C88.1838 20.299 87.97 21.7237 87.8927 23.1593C87.7034 24.3118 87.7034 25.4879 87.8927 26.6404C87.9352 27.157 88.0424 27.666 88.2119 28.1553C88.2119 28.1553 88.2757 28.2198 88.2757 28.3165L88.3715 28.5099L88.4672 28.6388C88.4992 28.8 88.8503 28.8644 88.8503 28.7355L88.9779 28.6388C89.0958 28.596 89.2043 28.5303 89.2971 28.4454C89.8397 27.9619 90.4143 27.3495 90.4143 27.2851L90.51 27.1239L90.6377 26.9627C90.6377 26.8983 90.6696 26.866 90.7015 26.866L90.7973 26.7693C90.8798 26.5759 90.9991 26.4007 91.1484 26.2536C91.2122 26.2214 91.2122 26.1569 91.2122 26.1247C91.2122 26.0602 91.2441 26.028 91.276 26.028C91.308 26.028 91.3718 25.9635 91.3718 25.8991C91.3718 25.8024 91.4356 25.7379 91.4676 25.7379L91.4995 25.6412C91.4995 25.609 91.5314 25.5445 91.5952 25.5445C91.6028 25.5369 91.6121 25.5293 91.6219 25.5213C91.6537 25.4953 91.691 25.4648 91.691 25.4156C91.691 25.3834 91.7548 25.2222 91.8825 25.061L92.2974 24.3197L92.3932 24.223L92.457 24.0296L92.5528 23.8684C92.5847 23.8684 92.6166 23.8362 92.6166 23.7717L92.6805 23.6428C92.7443 23.6428 92.8081 23.5461 92.8081 23.4494L92.9039 23.2883C92.9358 23.2883 92.9677 23.2238 92.9677 23.1271L93.0635 22.9982C93.0954 22.9982 93.1592 22.9015 93.1592 22.8048C93.1911 22.7081 93.2231 22.6114 93.2869 22.5791C93.3507 22.5469 93.3507 22.4825 93.3507 22.418C93.3507 22.3858 93.3827 22.2891 93.4465 22.2891L93.6699 21.9023L93.8614 21.6444V21.5477C93.8614 21.4902 93.9122 21.4327 94.1043 21.2152C94.1276 21.1888 94.153 21.1601 94.1806 21.1287L94.3083 20.8708C94.3721 20.8708 94.404 20.5163 94.4679 19.5816C94.4927 18.6649 94.5673 17.7502 94.6913 16.8418C94.7025 16.2658 94.7775 15.6928 94.9147 15.1335C94.9466 15.069 95.0105 14.8757 95.0105 14.65L95.1062 14.231C95.1585 14.0746 95.1906 13.9122 95.202 13.7475C95.202 13.5219 95.2658 13.3285 95.2658 13.3285C95.2977 13.3285 95.3616 13.1029 95.3616 12.8773L95.4573 12.3938L95.5531 11.9425C95.5531 11.6847 95.6169 11.4913 95.6169 11.4913C95.6488 11.4913 95.7127 11.2979 95.7127 11.04L95.7765 10.5565L94.5636 10.5243C92.6485 10.5243 92.3293 10.5243 91.1484 10.621L89.2971 10.7499C88.8822 10.7822 88.3715 10.8466 88.1481 10.9111C88.0901 10.9208 88.0174 10.9365 87.9382 10.9536C87.7556 10.993 87.5378 11.04 87.382 11.04L86.999 11.1045C86.999 11.1367 86.8713 11.2012 86.6798 11.2012L86.0415 11.3946C85.8499 11.3946 85.7223 11.459 85.7223 11.459C85.2966 11.6078 84.8977 11.8255 84.5413 12.1037C84.3179 12.2971 84.2859 12.8128 84.4775 12.8128C84.5413 12.8128 84.7328 13.0384 84.7328 13.1029C84.7328 13.1673 84.7647 13.1673 84.8286 13.1673C84.8924 13.1673 84.9243 13.2318 84.9243 13.3285C84.9243 13.4574 84.8924 13.4574 84.669 13.4574C84.4136 13.4574 83.9987 13.3607 83.9987 13.264C83.9987 13.264 83.9668 13.1996 83.9029 13.1996C83.5837 13.1996 83.1369 12.0715 83.3922 11.9103C83.4242 11.9103 83.488 11.8136 83.488 11.7169C83.5199 11.5557 84.1264 10.9433 84.254 10.9433C84.2859 10.9433 84.3498 10.9111 84.3498 10.8466C84.3817 10.7822 84.4136 10.7822 84.4775 10.7822C84.5413 10.7822 84.5732 10.7177 84.5732 10.7177C84.5732 10.6532 84.6051 10.6532 84.637 10.6532L85.3073 10.3631L85.5946 10.2664C86.0037 10.0945 86.4327 9.97536 86.8713 9.91189C87.2453 9.80106 87.6311 9.73612 88.0204 9.7185C88.7139 9.57607 89.4193 9.50052 90.127 9.49287C91.3217 9.32612 92.5283 9.26143 93.7337 9.29948H96.0957V9.10608L96.1915 8.94492L96.2553 8.68707L96.3511 8.42921C96.383 8.42921 96.4468 8.30028 96.4468 8.17135L96.5426 7.88126C96.5426 7.88126 96.6064 7.78456 96.6064 7.65564L96.7021 7.39778L96.7979 7.10769C96.7979 6.97876 96.8617 6.8176 96.8937 6.78537L97.2767 5.56054L97.3724 5.23822L97.4682 4.98036L97.532 4.72251L97.6278 4.49688L97.7235 4.20679C97.7235 4.04563 97.7874 3.9167 97.7874 3.9167C97.8193 3.9167 97.8831 3.78777 97.8831 3.65884L97.9789 3.36875L98.0746 3.1109L98.1385 2.85304C98.1704 2.85304 98.2342 2.75634 98.2342 2.65964C98.2661 2.43402 98.6811 1.56375 98.7449 1.56375L98.7768 1.49928ZM59.7089 6.20519C60.3211 4.96697 60.6897 3.62058 60.7941 2.24063H60.826C60.826 1.98277 60.7941 1.98277 60.5069 2.30509C60.1339 2.69134 59.8121 3.1247 59.5493 3.59438L59.4855 3.69107C59.3176 4.04779 59.1257 4.39242 58.9109 4.72251C58.879 4.75474 58.8152 4.8192 58.8152 4.9159L58.7514 5.07706L58.4641 5.59278L58.2087 6.07626C58.1768 6.10849 58.113 6.17295 58.113 6.26965L57.9534 6.65644L57.8576 6.94653C57.8576 7.01099 57.8257 7.01099 57.7938 7.01099L57.698 7.20439L57.6023 7.52671L57.5065 7.78456L57.4746 7.88126C57.4427 7.88126 57.3789 7.97796 57.3789 8.10689L57.2512 8.46144L57.1554 8.7193L57.1235 8.84823C57.0916 8.84823 57.0278 8.94492 57.0278 9.07385L56.932 9.36394C56.9001 9.36394 56.8043 9.6218 56.7405 9.91189L56.5171 10.4921L56.4213 10.7822C56.4213 10.9111 56.3575 11.0078 56.3575 11.0078C56.3256 11.0078 56.2617 11.1045 56.2617 11.2334L56.166 11.5235C56.1341 11.5235 56.1021 11.6524 56.1021 11.8458L56.0064 12.1681C55.9745 12.1681 55.9106 12.2971 55.9106 12.4905L55.8149 12.8128L55.751 13.1351L55.6553 13.4574L55.5276 13.9409L55.4319 14.4566C55.3999 14.4566 55.3361 14.5856 55.3361 14.779L55.2403 15.1013L55.1765 15.4236L55.0808 15.8104C55.0488 15.8104 54.985 15.9393 54.985 16.1327L54.7935 16.7774L54.7296 17.0997C54.6977 17.1319 54.6339 17.3253 54.6339 17.5509L54.602 17.9377L54.7296 17.7121L54.9212 17.3898L54.985 17.1964L55.0808 17.0352L55.1446 16.9707C55.165 16.8706 55.1971 16.7732 55.2403 16.6807L55.368 16.3583L55.3999 16.2939C55.4319 16.2939 55.4957 16.1972 55.4957 16.1005L55.5914 15.9393L55.7191 15.6492L55.8149 15.3914C55.8468 15.3914 55.9106 15.3269 55.9106 15.2302L56.0064 15.0368L56.0702 15.0046C56.0881 14.8934 56.1202 14.785 56.166 14.6823L56.2936 14.3599C56.2936 14.2955 56.3256 14.2955 56.3575 14.2955L56.4213 14.1021L56.5171 13.9409C56.549 13.9409 56.6128 13.8442 56.6128 13.7475L56.7086 13.5864L56.7405 13.5219L57.1874 12.4905C57.315 12.2648 57.3789 12.0392 57.3789 12.007C57.3789 11.9425 57.4427 11.9425 57.4427 11.9425C57.4746 11.9425 57.5385 11.8458 57.5385 11.7491L57.6342 11.588C57.6661 11.588 57.698 11.5235 57.698 11.4268L57.7938 11.2334C57.8257 11.2334 57.8896 11.1367 57.8896 11.04C57.8896 10.9111 57.9534 10.8144 57.9534 10.8144C58.0172 10.7822 58.3364 10.0408 58.3364 9.91189L58.3683 9.81519C58.4322 9.81519 58.4322 9.78296 58.4322 9.68626L58.5598 9.33171L58.6556 9.00939L58.7194 8.88046C58.7514 8.84823 58.8152 8.75153 58.8152 8.6226L58.9109 8.42921C58.9429 8.42921 58.9748 8.33251 58.9748 8.20358L59.1024 7.84903L59.1982 7.59117L59.2301 7.46224C59.262 7.46224 59.3578 7.23662 59.4536 6.91429L59.677 6.33412L59.7089 6.20519ZM51.7613 3.30429C51.7932 3.27206 51.857 2.98197 51.857 2.65964V2.07946C51.5606 2.32754 51.2929 2.60868 51.0591 2.9175L50.8675 3.17536L50.7399 3.43322C50.708 3.43322 50.6441 3.49768 50.6441 3.56215L50.4526 3.88447C49.7708 5.00996 49.1938 6.19689 48.729 7.43001L48.6971 7.49447C48.6652 7.49447 48.6013 7.59117 48.6013 7.7201L48.5056 7.94573L48.4098 8.20358C48.4098 8.33251 48.346 8.42921 48.346 8.42921C48.3141 8.42921 48.2502 8.5259 48.2502 8.6226L48.1545 8.94492C48.1545 8.94492 48.0587 9.10608 48.0587 9.26725L47.9311 9.58957C47.8672 9.58957 47.8672 9.65403 47.8672 9.7185C47.8672 9.81519 47.8353 9.94412 47.7715 10.0408C47.7076 10.1053 47.7076 10.2342 47.7076 10.2664L47.6119 10.4921C47.601 10.5252 47.5826 10.5658 47.5631 10.6089C47.5256 10.6916 47.4842 10.783 47.4842 10.8466C47.4842 10.9756 47.4204 11.0723 47.4204 11.0723C47.3885 11.0723 47.3246 11.1689 47.3246 11.3301L47.2289 11.588L47.1331 11.8781C47.1331 12.0392 47.0693 12.1681 47.0693 12.1681C47.0374 12.1681 46.9735 12.3293 46.9735 12.5549L46.8778 12.8773L46.782 13.3285L46.6543 13.8442C46.6224 13.8765 46.5586 14.0376 46.5586 14.1988L46.4628 14.5211C46.4628 14.5211 46.399 14.65 46.399 14.8434L46.3032 15.198C46.2713 15.2302 46.2075 15.3591 46.2075 15.5525L46.1436 15.8748C46.1117 15.8748 46.0479 16.0038 46.0479 16.1972L45.9521 16.5195C45.9202 16.5195 45.8883 16.6484 45.8883 16.8418L45.7925 17.1641C45.7606 17.1641 45.6968 17.3575 45.6968 17.6154C45.6649 18.0344 45.7606 18.0344 45.8564 17.6154L45.9521 17.4542C45.9841 17.4542 46.0479 17.3575 46.0479 17.2608L46.1436 17.0997L46.1756 17.0352L46.3032 16.7129L46.4309 16.4228L46.4628 16.3261C46.4947 16.3261 46.5586 16.2616 46.5586 16.1649L46.6543 15.9715L46.7501 15.8104C46.7501 15.7137 46.8139 15.6492 46.8139 15.6492C46.8458 15.6492 46.9097 15.5525 46.9097 15.4881C46.9725 15.2903 47.0471 15.0966 47.1331 14.9079L47.3565 14.3922L47.3885 14.3599C47.4204 14.3599 47.4842 14.2632 47.4842 14.1988L47.58 14.0054C47.6438 13.9087 48.0587 13.0384 48.0587 12.9417L48.0907 12.8773C48.1545 12.8773 48.1545 12.845 48.1545 12.8128C48.1545 12.7161 48.4737 12.0715 48.5375 12.0715C48.6657 11.6774 48.837 11.299 49.0482 10.9433L49.112 10.7822L49.2078 10.5888C49.2517 10.5079 49.284 10.421 49.3036 10.3309L49.6227 9.49287L49.7185 9.17055C49.7185 9.04162 49.7823 8.94492 49.7823 8.94492C49.8462 8.94492 49.8462 8.91269 49.8462 8.84823L49.9419 8.59037L50.1334 8.01019C50.1653 8.01019 50.2292 7.91349 50.2292 7.8168L50.3249 7.55894L50.3569 7.43001L50.4845 7.10769L50.5803 6.78537C50.5803 6.65644 50.7718 6.20519 50.8995 6.01179L50.9952 5.68947L51.0591 5.49608C51.091 5.49608 51.1548 5.39938 51.1548 5.27045L51.2506 5.0126C51.2506 5.0126 51.3144 4.9159 51.3144 4.78697L51.4102 4.56134C51.4421 4.56134 51.5059 4.43242 51.5059 4.30349L51.6017 4.0134C51.6017 4.0134 51.6655 3.88447 51.6655 3.69107L51.7613 3.30429ZM98.9683 6.33412C99.3849 5.19673 99.6219 4.00028 99.6705 2.78857H99.6386V2.24063C99.5748 2.24063 99.1599 3.14313 99.1279 3.36875L99.0641 3.52991C99.0322 3.52991 98.9683 3.65884 98.9683 3.78777L98.8726 4.07786L98.8087 4.23902L98.7449 4.52911C98.6811 4.59358 98.6172 4.78697 98.6172 4.9159L98.4257 5.43161C98.4257 5.59278 98.3619 5.68947 98.3619 5.68947C98.33 5.68947 98.2661 5.8184 98.2661 5.94733L98.1704 6.23742C98.1704 6.23742 98.0746 6.39858 98.0746 6.59197L97.947 6.94653C97.915 6.97876 97.8512 7.10769 97.8512 7.23662L97.7874 7.49447C97.7554 7.49447 97.6916 7.6234 97.6916 7.75233L97.5959 8.01019L97.5001 8.30028C97.5001 8.46144 97.4363 8.59037 97.4363 8.59037C97.4044 8.6226 97.3405 8.75153 97.3405 8.88046L97.2448 9.10608C97.0852 9.23501 97.2128 9.36394 97.4682 9.42841C98.0108 9.49287 98.1385 9.39617 98.2342 8.84823L98.3619 8.39698C98.5335 7.91288 98.6721 7.41749 98.7768 6.91429L98.8726 6.65644C98.9045 6.65644 98.9683 6.49528 98.9683 6.33412ZM97.5959 10.9756C97.6278 10.9756 97.6597 10.9111 97.6597 10.8144H97.6916V10.621H97.3086C97.1137 10.621 97.0087 10.6103 96.9442 10.6563C96.8501 10.7234 96.8417 10.9107 96.766 11.4268L96.5106 13.0706L96.2553 14.4889L96.1276 15.0368C96.0638 15.1657 96.0638 15.3269 96.1276 15.2947C96.1595 15.2624 96.2234 15.1657 96.2234 15.0368L96.3191 14.7467C96.351 14.7467 96.4149 14.6178 96.4149 14.4889L96.4787 14.231C96.5106 14.1988 96.5745 14.1021 96.5745 13.9731L96.766 13.4574L96.8298 13.1996C96.8617 13.1996 96.9256 13.0706 96.9575 12.8773L97.1171 12.3938C97.1809 12.2971 97.1809 12.1681 97.1809 12.1037L97.2448 11.9748C97.2767 11.9748 97.3405 11.8781 97.3405 11.7491L97.4363 11.459L97.5001 11.2012L97.5959 10.9756ZM65.5499 16.1972C65.3904 16.0038 64.9754 15.8104 64.5924 15.7459H64.5605L64.2413 15.7137L63.9221 15.7782C63.6348 15.7782 63.1561 16.036 63.1561 16.1005C63.1561 16.1649 63.1241 16.1649 63.0922 16.1649L62.8369 16.3583L62.5815 16.6807L62.4539 16.9063L62.3581 17.0352L62.2624 17.1964L62.1985 17.3253C62.1666 17.3253 62.1028 17.422 62.1028 17.5509L62.0389 17.8088C61.8155 17.9377 61.6559 19.3237 61.7197 20.194C61.7836 21.2254 61.9113 21.2899 62.1028 20.3229L62.1666 20.065C62.1985 20.0328 62.2624 19.9039 62.2624 19.8072L62.39 19.4526L62.4858 19.227L62.5177 19.1625C62.5815 19.1625 62.5815 19.0981 62.5815 19.0336L62.805 18.5824C62.805 18.5179 62.8688 18.5179 62.8688 18.5179C62.9326 18.5179 62.9326 18.4857 62.9326 18.4212C62.9326 18.2923 63.5391 17.7121 63.6987 17.6476C63.7944 17.6476 63.8583 17.5832 63.8583 17.5832C63.8583 17.4542 64.6243 17.4865 64.7201 17.5832C64.752 17.6476 64.8477 17.6799 64.9116 17.6799C65.3904 17.6799 65.2946 18.0022 64.5924 18.7435C63.954 19.3882 63.6987 19.7105 63.6987 19.8394C63.6987 19.9039 63.6668 19.9039 63.6348 19.9039C63.6029 19.9039 63.5391 20.0006 63.5391 20.1295L63.4433 20.3551C63.1946 20.9579 63.0645 21.6038 63.0603 22.2568V22.8048H63.3795L63.7306 22.9015C63.7625 22.9659 65.0712 22.9659 65.1031 22.9015L65.518 22.837C65.901 22.8048 66.1245 22.6758 66.1245 22.5147C66.1245 22.4502 66.1564 22.4502 66.1883 22.4502L66.2841 22.2246L66.3479 21.999C66.3798 21.999 66.4436 21.87 66.4436 21.6766C66.6013 20.3939 66.644 19.0993 66.5713 17.8088C66.5075 17.7443 66.4436 17.6154 66.4436 17.4865L66.3798 17.2608C66.3479 17.2608 66.2841 17.1964 66.2521 17.0997C66.1564 16.8418 65.9649 16.6162 65.5499 16.1972ZM84.9243 16.3583L84.7647 16.2616C84.669 16.1327 83.2646 16.1649 83.2646 16.2939L83.0731 16.3583L82.7539 16.5517C82.6262 16.584 82.4347 16.7129 82.0198 17.0997C81.9963 17.1259 81.9744 17.1505 81.9538 17.1736C81.7215 17.4338 81.6556 17.5075 81.5091 17.7443L81.3495 17.9699C81.3176 18.0022 81.2537 18.0666 81.2537 18.1633L80.9984 18.5824C80.9664 18.5824 80.9026 18.6791 80.9026 18.7435L80.8069 18.9047C80.8069 18.9047 80.743 19.0014 80.743 19.1303L80.6473 19.3237L80.5196 19.646L80.4238 20.0006C80.1553 20.7445 80.0149 21.5295 80.0089 22.3213C80.0089 23.0949 80.0089 23.1271 80.3281 22.9015C80.5834 22.7081 81.126 22.0957 81.2537 21.87L81.3814 21.7089C81.4452 21.6766 81.4452 21.6122 81.4452 21.6122C81.4452 21.58 81.5091 21.4833 81.6048 21.4188L81.7325 21.2254L81.8602 21.0642C81.924 20.9998 81.9878 20.9353 81.9878 20.8708L82.0517 20.7419L82.2751 20.5163C82.4779 20.2106 82.7019 19.9198 82.9454 19.646L83.0731 19.4204L83.1369 19.2915C83.1688 19.2915 83.2965 19.1625 83.4242 18.9691L84.0306 18.1956L84.1264 18.0344C84.1264 18.0344 84.1902 17.9055 84.3179 17.8088L84.637 17.3575L84.8286 17.0997C85.0839 17.003 85.1477 16.4228 84.9243 16.3583ZM63.8902 23.8362L63.6348 23.7717L63.2199 23.7395L63.0603 23.675V24.0296C63.0964 24.6418 63.2035 25.2476 63.3795 25.8346L63.4753 26.0602L63.5391 26.1892C63.571 26.3181 63.8583 26.3503 63.8902 26.2214C63.9221 26.1569 63.954 26.1247 64.0179 26.1247C64.1136 26.1247 64.337 25.9313 64.5285 25.609L64.752 25.3511L64.7839 25.3189C64.7839 25.2633 64.9499 25.0163 65.0366 24.8871C65.0505 24.8664 65.0623 24.8488 65.0712 24.8354C65.135 24.8032 65.2627 24.5775 65.3265 24.4164L65.4542 24.2552L65.5499 23.9974V23.7717H65.3584L65.1031 23.8362C65.1031 23.9007 64.8477 23.9007 64.5285 23.9007L63.8902 23.8362Z" fill="#B1A095"/>
<path fill-rule="evenodd" clip-rule="evenodd" d="M102.064 16.2616C102.096 16.2294 102.224 16.1649 102.352 16.1649C103.373 15.9715 104.522 16.4228 104.522 17.0674L104.554 17.2286C104.618 17.2286 104.618 17.3898 104.618 17.6154L104.586 18.0344C104.554 18.0344 104.49 18.1633 104.49 18.2923C104.458 18.5179 104.107 19.2592 103.948 19.4526C103.61 19.9052 103.2 20.2975 102.735 20.613L102.639 20.6774C102.543 20.9675 101.011 21.2576 100.724 21.0642C100.532 20.9353 100.468 20.9998 100.405 21.3866L100.309 21.7089C100.05 23.1822 100.072 24.6918 100.373 26.1569L100.437 26.4148C100.437 26.5437 100.724 26.995 100.915 27.1884L101.107 27.3817H101.649C102.001 27.3817 102.224 27.3495 102.224 27.3173C102.256 27.285 102.352 27.2206 102.447 27.2206L102.607 27.1239L102.735 27.0272C102.828 27.0042 102.916 26.9602 102.99 26.8983C103.08 26.7846 103.218 26.687 103.381 26.5714C103.449 26.5232 103.521 26.4718 103.596 26.4148C103.619 26.3948 103.642 26.3741 103.666 26.3527C103.951 26.0975 104.345 25.7452 104.522 25.4478L104.841 25.0933L105.033 24.8032C105.118 24.7276 105.193 24.6409 105.256 24.5453C105.266 24.532 105.276 24.5191 105.285 24.5065C105.365 24.3975 105.422 24.3197 105.48 24.3197V24.223C105.48 24.1585 105.544 24.0941 105.575 24.0941C105.639 24.0941 105.671 24.0296 105.671 23.9974L105.799 23.804L105.895 23.6106L105.958 23.5139C106.044 23.4384 106.119 23.3516 106.182 23.256L106.373 23.0304L106.437 22.9337L106.501 22.8048C106.565 22.8048 106.597 22.7403 106.597 22.7081L106.661 22.5791C106.724 22.5469 106.852 22.3535 106.98 22.1279L107.299 21.7411L107.363 21.6444L107.459 21.4833C107.586 21.3866 107.65 21.2899 107.778 21.0642C108.033 20.7097 108.352 20.4841 108.352 20.7419C108.352 20.7741 108.416 20.8064 108.512 20.8064C108.735 20.8064 108.767 21.032 108.576 21.2899C108.257 21.7231 107.949 22.1637 107.65 22.6114L107.459 22.8692L107.363 23.0304L107.171 23.256L106.82 23.7395L106.693 23.9329C105.873 25.2696 104.825 26.4483 103.596 27.414L103.437 27.4784C103.405 27.5429 103.245 27.6396 103.086 27.7041L102.767 27.8975L102.543 27.9942C102.416 27.9942 102.288 28.0586 102.256 28.0909C102.16 28.1553 100.979 28.1553 100.883 28.0909C100.852 28.0264 100.788 27.9942 100.724 27.9942L100.564 27.9297C100.564 27.8652 100.5 27.8008 100.468 27.8008C100.373 27.8008 99.7344 27.2206 99.7344 27.1561C99.595 26.9249 99.4876 26.6754 99.4152 26.4148L99.2237 25.9313C99.1918 25.8991 99.1279 25.6734 99.1279 25.4478L99.0322 25.061C99.0003 25.061 98.9683 24.5775 98.9683 23.9329C98.9459 23.3588 98.9996 22.7843 99.1279 22.2246L99.2237 21.6766L99.3194 21.2576C99.3836 20.8393 99.4906 20.4288 99.6386 20.0328L99.7344 19.7105L99.8621 19.3237C99.9259 19.0658 100.117 18.6791 100.181 18.6791V18.6146C100.181 18.4857 100.437 18.0344 100.5 17.9699C100.833 17.3265 101.315 16.7736 101.905 16.3583L102.064 16.2616ZM103.054 18.5179C103.15 18.4534 103.309 17.7443 103.309 17.422C103.309 17.003 103.277 16.9707 102.767 17.2608C102.511 17.3575 101.905 17.9377 101.745 18.2278L101.586 18.389L101.554 18.4857C101.554 18.5179 101.522 18.6146 101.458 18.6146L101.362 18.7113L101.298 18.8724C101.235 18.9047 101.171 19.0014 101.171 19.0981L101.075 19.2592C101.011 19.3237 100.82 19.7105 100.82 19.9039L100.724 20.1295C100.5 20.2584 101.107 20.3229 101.49 20.194C101.841 20.065 102.224 19.7749 102.352 19.5493L102.575 19.3237C102.639 19.2915 102.639 19.227 102.639 19.1625L102.703 19.0981L102.894 18.8402L103.054 18.5179Z" fill="#B1A095"/>
</g>
<defs>
<clipPath id="clip0_84_468">
<rect width="100%" height="100%" fill="white"/>
</clipPath>
</defs>
</svg>
