<svg xmlns="http://www.w3.org/2000/svg" width="400" height="181.9">
    <g fill-rule="evenodd">
        <path class="company-logos__svg" d="M80.6 27.4c-.2.1-.9.3-1.6.3-.8 0-1.4.2-1.5.3l-.8.3c-.4 0-1 .2-1.2.4l-.7.2s-.2 0-.3.2l-1 .5-1.2.7c0 .2-.2.3-.4.3a17.5 17.5 0 00-5 5.6s-.2.2-.2.5l-.3.6c-.1 0-.2 0-.2.2l-.9 2.2-.4 1.2-.3 1.2-.3 1c0 .3-.2.7-.3.8l-.3 1.3-.2 1.2L63 48a37 37 0 00-.5 4.8 90.9 90.9 0 000 15c0 2.7-.3 2.4 3.3 2.4h3.2v-1.6a615.9 615.9 0 00.7-9.7c.1-.3.3-1.3.3-2.1l.3-1.5s.2-.6.2-1.3l.3-1.4.3-1c0-.5.2-1 .3-1.1l.3-.8.2-.9.4-.9.5-1.3.2-.7c0-.2.1-.2.2-.2l.2-.3.4-.7.3-.5c0-.2 0-.3 1-1.4l.7-.9c0-.3 1.9-1.7 2.1-1.7.1 0 .2 0 .2-.2 0 0 .2-.2.5-.2.2-.1.4-.2.3-.3l.6-.3c.4 0 .8-.2.8-.3.2-.3 7.6-.3 7.8 0l1 .3c.6 0 1 .2 1 .3l.4.2c.4 0 1.2.3 3.4 1.3l1.5.7.2.1.4.3c.3 0 .5.2.5.3l.2.2c.2 0 .5.1.7.3l.7.4c.1 0 .2 0 .1.2l.3.3.6.2a91.6 91.6 0 003 2.6 72.1 72.1 0 0112 14 23.6 23.6 0 013.1 5.4l.3.6c0 .3.2.5.3.5l.2.2c0 .2 0 .5.2.8.2.2.3.7.4 1 0 .3.2.6.3.6 0 0 .2.3.2.7 0 .4.2.7.3.7l.4 1.1.4 1.2.2 1c0 .4.2.7.3.7l.2.8.3 1 .3 1c0 .5.2 1 .3 1.1l.3 1.3a120 120 0 001 5.3l.4 1.8.3 2.5a100.3 100.3 0 00.5 4.1v.9l-1.2-1.4a7.1 7.1 0 00-1.5-1.3l-.2-.1c0-.1-.1-.3-.3-.3-.2 0-.5-.3-.8-.5-.7-.7-2.4-1.6-3.4-1.9-.2 0-.4-.2-.4-.3l-.6-.3c-.4 0-.7-.1-.7-.2l-.7-.3c-.4 0-.7-.2-.7-.3 0 0-.4-.2-.9-.2l-1-.3c0-.1-.5-.3-1.1-.3-.6 0-1-.2-1-.3l-1-.2A80 80 0 0081 88l-1 .2c-.6 0-1 .2-1 .3l-1.3.3-1.4.4-.6.2c-.7.1-2.6.7-2.8.9a3 3 0 01-1 .3c-.3 0-.6.2-.5.3l-.2.1a10 10 0 00-3 1.1l-1 .4a4 4 0 01-1 .3l-.7.3a33.6 33.6 0 01-3.7 1.8l-.4.2c-.3 0-.6.3-.8.4a1 1 0 01-.6.3l-.3.1c0 .1-.2.3-.5.3l-.4.3-.6.3c-.3 0-.5.1-.5.2l-.5.4c-.6.2-2.5 1.3-2.6 1.4l-2.5 1.5c-.1 0-.3.1-.3.3 0 .1-.2.3-.4.3-.1 0-.4.1-.5.3l-1 .7-.6.4c0 .1-.1.2-.3.2l-.7.4c-1 1-1.4 1.2-1.6 1.2l-.1.2-.8.7-1.3 1a61 61 0 00-13.2 15c0 .3-.8 2-1 2l-.1.3-.3.8-.5 1.3c0 .3-.3.8-.4 1l-.3 1c0 .4 0 .6-.1.5-.1-.1-.3.6-.8 3.2a29 29 0 00.5 7.7c0 .6.2 1 .3 1l.2.6.3.7c.1 0 .2 0 .2.2 0 .4.8 1.8 1.4 2.6l.6.9a27.6 27.6 0 004 3.7l1.5 1c.3 0 .5.2.5.3l1 .5 1 .6 1.5.6 1.8.7 1 .2.8.3 1.2.3 1.8.4 1.5.2c.5 0 1 0 1 .2l3.5.3c1.8 0 3.3.2 3.3.3.1.2 1.3.2 1.4 0l3.6-.3c3.7-.1 4-.2 4.2-.3l1.9-.3c.9 0 1.7-.2 1.8-.3l1.3-.2 1.4-.3a54.7 54.7 0 0013.5-4l2.7-1c.1 0 .5 0 .9-.3a4 4 0 011-.3l.2-.2.6-.3c.4 0 .7-.2.7-.3 0 0 .2-.2.5-.2l.6-.3.5-.3c.3 0 .5-.2.5-.3l.4-.1.5-.2.2-.1.2-.1c0-.1.1-.2.3-.2l.4-.2c.1-.2.5-.4 1-.5.4-.1.7-.3.7-.4l.5-.3.6-.2.5-.3 1.4-1 .5-.2c.2 0 .3 0 .3-.2l.2-.1c.2 0 2.6-1.5 2.7-1.7l.3-.2c.1 0 .3 0 .4-.2.1-.2.7-.6 1.3-.9.2 0 .4-.2.4-.3 0-.1 0-.2.2-.2l.6-.4c.1-.2.4-.3.5-.3.2 0 .3-.1.3-.2l.8-.7 1-.7c0-.1.1-.2.3-.2l.6-.6.6-.5c.1 0 .6-.4 1-.9l1-.8a66.4 66.4 0 009.9-11.4c.2-.2.9-1.3 2-3.5a14.4 14.4 0 001.6-3.8l.1-.4c0-.2.1-.3.2-.3l.2.2 1.2 2.3.3.4a22.1 22.1 0 004.4 4.7c.3.4 2 1.2 4 1.8 1.4.5 7.2.5 7 0-.1 0 0-.2.3-.2.5 0 2.8-.7 3-.9 0 0 .3-.2.7-.2l.6-.3.5-.3 1.7-1.1c0-.2.3-.3.4-.3l.2-.1c0-.1 0-.2.2-.2.1 0 .3-.1.3-.3.1-.1.2-.3.4-.3a39.8 39.8 0 006.8-8l.3-.6c0-.2.2-.5.3-.5l.5-.9.6-.9.1-.2.6-1.4c1.2-2.5 1.3-3.7.4-3.7l-.4-.3c-.7-.6-1.2-1-1.6-1-.3 0-.5.3-.9 1-.7 1.4-1 2-1.2 2.1l-.1.3-.4.7-.4.7s0 .2-.2 0l-.1.2-.4.6a21.8 21.8 0 00-1.5 2.1 29.8 29.8 0 01-6.7 5.8 4 4 0 01-1.1.6c-.2 0-.3 0-.3.2l-.4.1-.8.3a6 6 0 01-1.6.4c-.6 0-1.1.2-1.2.3 0 .2-3.3.2-3.4 0l-.8-.3c-.4 0-.8-.2-.8-.3l-.5-.3c-.3 0-.6-.2-.6-.3 0-.2-.2-.3-.3-.3-.3 0-2-1.7-2-2l-.3-.3a10 10 0 01-1.5-2.6l-.2-.2-.3-.6c0-.4-.2-.7-.3-.7 0 0-.2-.3-.2-.7a2 2 0 00-.3-.7l-.3-1-.3-1a60.5 60.5 0 01-2-16.7c0-2-.2-3.8-.3-3.9-.1 0-.3-1.4-.4-3.4 0-.1 0-.2-.2-.2l-.2-1.3c0-.8-.2-1.4-.3-1.4l-.3-1.4c-.2-1.5-.3-1.8-.5-2a5 5 0 01-.2-1c0-.5-.2-1-.3-1l-.2-1-.3-.8-.3-.9c0-.3-.2-.7-.3-.8 0 0-.2-.3-.2-.7l-.3-.6-.2-.4c0-.3-.3-1-1-2.6l-.4-1c0-.4-.2-.6-.3-.6l-.1-.2a4 4 0 00-.4-1 4 4 0 01-.3-1l-.2-.1-.3-.6c0-.3-.2-.5-.3-.5 0 0-.2-.2-.2-.5 0-.2-.2-.4-.3-.4l-.2-.4c0-.2-.1-.4-.3-.5-.1 0-.3-.3-.3-.6l-.3-.5-.2-.3c0-.1-.1-.4-.3-.5l-.2-.3-1.1-1.9-.3-.5c0-.3-.2-.5-.3-.5-.2-.2-.9-1.3-.9-1.5l-.1-.2-1-1.2-.9-1.2-.3-.3c0-.3-.3-.6-.5-.8l-.5-.6-1.5-1.8-.5-.6c.1 0-1.7-2-4.5-4.8a39.6 39.6 0 00-7.3-6.2l-.3-.1a.4.4 0 01-.3-.3l-.5-.4c-.4-.1-.6-.2-1.1-.7a2 2 0 00-.8-.4l-.4-.2-.5-.4-1.5-.7-1.3-.6s-.2 0-.2-.2l-.3-.1-.8-.3-1.2-.4-.6-.2-1-.3a24.5 24.5 0 00-8-.8m24 62.9l1 .2a24.3 24.3 0 018.7 2l.6.3.7.2.3.3c0 .2.2.3.3.3.2 0 .3 0 .3.2l.3.1c.2 0 .7.4 1.6 1.2l1 .8.5.5c0 .2.4.6.7.9l.6.9.2.3.3.5c0 .2.2.6.4.7l.2.7c0 .3.1.5.2.5l.3 1c0 .7.2 1.2.3 1.2.2.2.2 3.6 0 3.8l-.1.3c-.1 1-.4 2.2-.6 2.5l-.2 1c0 .2-.1.3-.2.3s-.2.1-.2.3l-.4 1-.3.9-.2.2-.7 1.2-.7 1.3-.3.5-.1.3-.4.3c0 .2-.3.5-.5.7l-.4.5c0 .1-.2.4-.5.6-.2.3-.4.5-.3.6l-2 2a18.5 18.5 0 00-2 2.3c-.1 0-.5.2-.8.6l-1.1 1a168.4 168.4 0 00-4.8 3.7 77.6 77.6 0 00-4.7 3l-.6.2-.6.4a32 32 0 01-5.7 2.8l-.6.3c-.4 0-.7.2-.7.2l-1.6.7-1.7.6-2.2.8a89 89 0 00-4.7 1.4l-1.2.3c-.6 0-1.1.2-1.1.2l-1.6.4-2 .3c-1 .2-3.5.4-5.5.4a7 7 0 00-2.1.2c-.2.3-1 .3-1.1 0l-2.9-.2a13.2 13.2 0 01-3.8-.4 49 49 0 01-4.5-1.2c-.8-.2-1.4-.5-1.3-.6l-.6-.2c-.4 0-.6-.2-.6-.2 0-.1-.4-.4-1-.6-.4-.3-1-.6-1.1-.8l-.5-.3a13.8 13.8 0 01-3-3.2.4.4 0 01-.3-.4c0-.1 0-.2-.2-.2l-.1-.3-.5-1-.4-1.3a1 1 0 00-.3-.7c-.7-.7-.2-6.8.7-8.8l1-2.3.2-.4.3-.5.2-.6.4-.5a8 8 0 011.2-1.9l.7-1 .7-.7.2-.3a38.6 38.6 0 018.7-8.4c0-.1.3-.4.8-.7l.8-.7.2-.1a4 4 0 001.4-1l.3-.1c.2 0 .3-.1.4-.3l.3-.3 1.7-.8 1.8-1 .3-.3c0-.1.2-.3.5-.3s.6-.2.6-.3l.5-.3.6-.2.7-.5a81.2 81.2 0 004.8-2l2-1 1.1-.3c.4 0 .6-.2.6-.2l.8-.3c.5 0 .9-.2.9-.3l.8-.3 1.5-.3c.3-.2.9-.3 1.3-.4a24.7 24.7 0 015-1 11 11 0 001.5-.4l1.8-.2 3-.4h6.8"></path>
        <path class="company-logos__svg" d="M339 29.8c-.7.5-1.8 1.8-1.8 2.2l-.1.2c-.2 0-1.5 2.7-1.6 3.4 0 .3-.2.6-.3.6l-.2.8-.3.8-.3.9c0 .4-.2.8-.3.8 0 0-.2.4-.2.9l-.3.9-.3.7-.2.8-.3.8-.3 1-.6 1.9-.6 1.9c-.1.1-.3.6-.3 1l-.3.9-.3.8c0 .4-.2.7-.2.7l-.3.9c0 .4-.2.8-.3.8l-.3.8-.2.8-.3.5v.6h-7.4a67.2 67.2 0 00-11.3.6 35 35 0 00-6.6.7 15.2 15.2 0 00-3.6.6 16.5 16.5 0 00-4 1.1l-.9.3-2.1.9c-.1 0-.2 0-.2.2 0 0-.1.2-.3.2-.2 0-.3 0-.4.2 0 .2-.2.3-.3.3-.4 0-2.3 1.9-2.4 2.4 0 .3-.2.6-.3.6-.8.5.6 4 1.6 4 .2 0 .3.2.3.2 0 .3 1.3.6 2.1.6.7 0 .8 0 .8-.4 0-.3-.1-.5-.3-.5-.2 0-.3 0-.3-.2s-.6-.9-.8-.9c-.6 0-.5-1.6.2-2.2a13 13 0 013.7-2s.4-.2 1-.2l1-.3 1-.3c.6 0 1-.2 1-.3l1.2-.2c.7 0 1.8-.3 2.4-.4.7-.2 2.3-.4 3.6-.5l5.8-.4C317 60 318 60 324 60l3.8.1-.2 1.5c0 .8-.2 1.4-.3 1.4 0 0-.2.6-.2 1.4l-.3 1.4-.3 1.5c0 .7-.2 1.4-.3 1.4 0 0-.2.6-.2 1.3a6 6 0 01-.3 1.5l-.3 1.3c0 .7-.2 1.3-.3 1.5a24 24 0 00-.7 5.3 77.8 77.8 0 00-.7 8.5c-.2 2.9-.3 4-.5 4l-.2.4-.2.4c-.8.9-1 1.1-1 1.3v.3l-.6.8-.7 1.2c-.2 0-.3.3-.3.4 0 .2 0 .4-.2.5-.2.1-.3.4-.4.7 0 .3-.2.6-.3.6l-.3.4c0 .3-.1.5-.2.5l-.3.5c0 .3-.2.6-.4.6l-.2.4c0 .2-.1.3-.2.3l-.3.5-.2.6-.3.3-1.3 2.3c-.4.5-.6 1-.6 1.1 0 .2-.2.3-.3.4-.2 0-.3.2-.3.3l-.1.3c-.1 0-.3.2-.3.5 0 .2-.2.4-.3.4-.1 0-.2.1-.2.3 0 .1 0 .3-.2.4a5 5 0 00-1.1 1.6l-.3.3c-.1 0-.2.1-.2.3l-.4.5-.3.5c0 .2-1.8 2.1-3.5 3.6a3 3 0 01-1 .6l-.4.3c0 .4-1.1.2-1.2-.3l-.3-.4-.3-.6c0-.3-.2-.5-.2-.5a19 19 0 01-1-4.7 33 33 0 010-10.8 69.6 69.6 0 012-13.2l.3-1.4c0-.8.2-1.4.3-1.4l.3-1.4.2-1.4.3-1.5c0-.8.2-1.5.3-1.6.4-.5-.1-4.4-.5-4.6-.1 0-.3-.3-.3-.5 0-.3-.3-.5-.5-.6-.3 0-.5-.2-.6-.3-.2-.3-3-.2-3.3.1l-.5.4c-.2 0-2.5 2.4-3.5 3.5-.6.7-1.4 1-1.4.6l-.6-.3c-.4 0-.6-.1-.6-.2s-.1-.2-.3-.2l-.7-.3c-1.2-.6-6.4-.6-7 0l-.4.1a7 7 0 00-2.2 1c0 .2-.3.3-.4.3-.2 0-.3.1-.4.3l-.3.2a8 8 0 00-2 1.8l-1 1c-.1.1-.3.3-.3.5v.2c-.2 0-.4.3-.7.7l-.7 1-.2.4-.1.3c-.3 0-1.5 2.7-1.6 3.4l-.3.6-.3.7-.2.8-.3 1c0 .5-.2 1-.3 1l-.3 1.4c0 1.2-.1 1.3-1 2.3a225.9 225.9 0 00-5 5.4 171 171 0 01-13 12.8c-.2 0-.4.1-.5.3l-1.2.7-1.2.7c-.2.2-2.4.9-2.9.9-.3 0-.5 0-.5.2 0 .6-1.2 0-1.8-1a25.3 25.3 0 01.5-12l.3-1.5.4-1.3.3-1.2c0-.5.2-.9.3-.9 0 0 .2-.3.2-.7l.3-.8.3-.8c0-.4.2-.8.3-.8l.3-.7c0-.4.1-.7.2-.7l.3-.6c0-.4.2-.7.3-.7l.1-.2.5-1.1.4-1.2.2-.2.3-.4.4-.7.2-.5.2-.2.2-.3c0-.2.1-.3.3-.4l.2-.3c0-.2.3-.5.5-.8a16.5 16.5 0 013.2-3.1c0-.2 1.8-1.1 2.3-1.1l.5-.2c.2-.3.9-.2 1.2.2.4.4.5 3.4.2 3.4-.1 0-.2.2-.2.5L262 86a4 4 0 00-.3 1l-.2.2-.3.6c0 .3-.2.6-.4.6l-.2.4c0 .2-.2.4-1 1.3l-.1.4-.4.4c-.2.2-.4.4-.4.6 0 .1 0 .3-.2.3-.5.2-.4 1.3.2 1.6.6.2 1 .3 1.2 0l1-.3c1.2-.4 3.4-2.8 3.8-4.1 0-.3.2-.5.2-.5l.2-.2.4-1 .3-1c0-.3.1-.6.3-.7.1-.1.2-1 .2-2.7 0-1.8 0-2.5-.2-2.5a.4.4 0 01-.3-.4c0-.3-1.3-1.6-1.8-1.8l-.7-.3c-.4-.3-3.4-.2-4.5.1a7 7 0 00-2.2 1c0 .2-.2.2-.3.2-.2 0-2 1.4-2.8 2.2a14.7 14.7 0 00-2.4 3c-.1 0-.2 0-.2.2 0 .1 0 .3-.2.4l-.5.5-1.2 2.4c0 .2-.2.4-.3.4l-.2.6-.3.5c-.1 0-.7 1.3-.7 1.6l-.5.5-.9.7-2 1.4c-.6.4-1.1.9-1.1 1h-.4l-.4.3c0 .1-.3.4-.6.5-.5.2-1.1.6-1.2.8l-.9.2-.8.1.1-.5.3-.6c.1-.1.5-1.6.8-3.3l.4-1.6a36.2 36.2 0 00-.4-8.2c0-.5-.2-.9-.2-.9l-.3-.7c0-.4-.2-.7-.3-.7l-.3-.5c0-.3-.2-.6-.3-.7l-.5-.7a10.5 10.5 0 00-2.6-2.6c0-.2-.2-.3-.4-.3-.1 0-.3 0-.3-.2l-.4-.2-.5-.3c0-.1 0-.2-.2-.2a5 5 0 01-1-.4c-.8-.4-1.1-.4-3.8-.4H226l-1.2.7c-1.6.9-2.7 1.8-3.8 3.2l-.6.8a2 2 0 00-.4.6c0 .2-.2.4-.3.4l-.2.6-.3.5-.3.7c0 .3-.2.6-.3.6 0 0-.2.3-.2.8l-.3 1c-1.3 1.5-.4 9.9 1.3 12.6.5.9.7 1.4.4 1.4l-.6.9a35.7 35.7 0 00-1.8 4l-.3.6c0 .3-.2.5-.3.5l-.2.6-.3.5-.2.2-.4 1-.3.9c0 .2-.1.3-.2.3l-.3.5c0 .3-.2.6-.3.6l-.1.2-.5 1.1-.4 1.2-.2.2-.3.5c0 .3-.2.6-.3.6 0 0-.2 0-.2.2l-.3 1a4 4 0 00-.4 1s0 .2-.2.2c0 0-.2.2-.2.5l-.3.5-.3.6c0 .3-.2.5-.3.5l-.1.3-.4 1a17.2 17.2 0 00-1.2 2.8 46 46 0 00-3.5 6.8l-.4.6-.8 1.4-.6.8-.5.7-.1.2c0 .2-1 1.6-1.1 1.6-.1 0-.2.1-.2.3 0 .1-.1.4-.3.5l-.4.5c0 .8-1.4 1.2-1.6.4l-.2-.4-.3-.8c0-.4-.2-.8-.3-1l-.2-1a63.6 63.6 0 01-1.8-13.3 85.5 85.5 0 01.5-23.1 79.1 79.1 0 004-8.2c.5-.8.8-1.5.8-1.7 0 0 0-.2.2-.2l.3-.5.2-.6.3-.5c0-.3.2-.6.3-.6 0 0 .2 0 .2-.2l.3-1 .4-1 .2-.1.2-.6.3-.5.2-.2 1.3-3a512 512 0 008.4-18.6l.3-.8c0-.2 0-.4.2-.4 0 0 .2-.1.2-.3 0-.1 0-.5.2-.8.2-.3.4-.8.4-1.1 0-.4.2-.7.3-.7l.3-.6.2-.8c.3-.6 1-2.3 1-2.9l.3-.6.3-.7c0-.4.2-.7.2-.7.1 0 .3-.4.3-.8s.2-.7.3-.7c.1 0 .2-.1.2-.3 0-.2.1-.7.3-1l.4-1.2c0-.2 0-.4.2-.4l.3-.9.2-1c.8-1 .8-7.6 0-7.6 0 0-.2-.1-.2-.4-.3-1-3.8-1.8-4-.9-.1.2-.3.3-.4.3-.3 0-1.7 1.3-2.3 2.2-.2.4-.5.7-.6.7l-.1.2-.4.5-.3.6c0 .2-.1.3-.2.3s-.2.1-.2.3l-.2.4c-.3.1-.5.6-1.6 2.8a9 9 0 00-.7 1.5c0 .2-.1.3-.2.3s-.3.2-.3.4c0 .3-.2.5-.3.5l-.5 1-.6 1s-.2.2-.2.5l-.3.6c-.2.1-.8 1.5-1.3 2.8a70.2 70.2 0 01-2.7 6.8c-.4.7-.7 1.6-1 2.6 0 .5-.2 1-.3 1.1l-.3 1c0 .6-.2 1-.2 1l-.3.9c0 .5-.2.9-.3.9l-.3.7-.2 1-.3 1c0 .4-.2.8-.3.8l-.2 1-.3.8-.3 1c0 .4-.2.8-.3.9l-.3 1.3-.4 1.3s-.2.3-.2.7l-.3 1c-.2.4-.4 1.5-.8 3.8l-.3 1.2-.3 1.4c0 .7-.2 1.4-.3 1.4 0 0-.2.5-.2 1.2l-.3 1.4c-.2.2-.5 2.4-.9 5.7-.2 2.5-.3 2.9-.8 3.7l-.5 1c0 .1 0 .2-.2.2 0 0-.2.1-.2.3l-.3.9-.4 1s0 .2-.2.2c0 0-.2.2-.2.5l-.3.6c-.1 0-.2 0-.2.2l-.5 1.2-.4 1c0 .2 0 .3-.2.3l-.3.6c0 .3-.2.5-.2.5-.1 0-.3.3-.3.6 0 .4-.2.7-.3.7l-.3.5-.2.6a33.4 33.4 0 00-2.7 5.4l-.2.6c-.1 0-.3.2-.3.5s-.2.6-.3.6l-.3.5-.2.6c-.1 0-.2 0-.2.2l-.4 1a4 4 0 00-.3.9l-.2.2c-.1 0-.2.1-.2.3l-.5 1-.4 1.2c0 .2 0 .3-.2.3l-.3.5c0 .3-.2.5-.3.5l-.1.3-.4 1a4 4 0 00-.3.9l-.2.2-.3.6c0 .3-.2.5-.3.5l-.3.5-.2.6c-.1 0-.2 0-.2.2a20.2 20.2 0 01-2 4c0 .2 0 .3-.2.3l-.2.2-.6 1.1c-.4.5-.6 1-.6 1.1l-.2.2-.3.3-.3.6-.7 1a17 17 0 01-1.5 2c-.1.3-.8-.1-1-.6l-.2-.6-.3-.8a77.4 77.4 0 01-2-13c-.5-.2-.8-15.2-.5-20.7.2-3.1.3-3.5 1-4.7a21 21 0 001.8-3.7l.2-.6.3-.5.3-.5c0-.4.2-.6.3-.6 0 0 .2-.2.2-.5l.3-.6.3-.5c0-.3.2-.6.3-.6l.1-.2.5-1.2c.9-1.9 1-2.2 1-2.4 0 0 0-.2.2-.2 0 0 .2-.2.2-.5l.3-.6a51.1 51.1 0 003.5-7l.2-.6.3-.6.3-.5c0-.3.2-.5.3-.5l.2-.6.3-.5c.1 0 .2-.1.2-.3l.7-1.6.7-1.8c0-.2.1-.3.2-.3l.3-.5.2-.6a27.9 27.9 0 003.2-7.2c.1-.6.3-1 .4-1 0 0 .2-.3.2-.7 0-.3.2-.6.3-.7l.2-.4.3-1 .4-1.2c0-.2 0-.4.2-.4l.3-.6c0-.4.1-.7.2-.7l.3-.6c0-.4.2-.8.3-1l1-2.6c0-.4.2-.8.3-.9l.2-.6c0-.4.2-.6.3-.6 0 0 .2-.3.2-.7l.4-1 .3-1s0-.3.2-.3l.2-.9.3-1c.6-.7 1-6.8.5-6.8l-.1-.4c0-.4-.5-1.2-1.3-1.9-.7-.6-3-.5-3.7.2-.8.6-1.6 1.4-2.1 2.1l-1 1.2a9 9 0 00-.8 1.4 5 5 0 01-.6 1l-.7 1a27.2 27.2 0 01-2 3.7l-.2.5-.3.5-.2.6a16.5 16.5 0 00-1.9 3.5l-.5 1.2-.3.9c0 .3-.2.5-.3.5l-.1.3c0 .3-.6 1.6-1 2.3l-.2.9c0 .3-.2.5-.3.5l-.2.3c0 .2-.1.7-.4 1.2-.2.4-.4 1.1-.4 1.5 0 .4-.2.7-.3.7 0 0-.2.3-.2.8 0 .4-.2.9-.3.9l-.3 1-.2.8-.3 1c0 .4-.2.8-.3.9l-.3 1c0 .5-.2.9-.3.9 0 0-.2.3-.2.8 0 .4-.2.8-.3.9l-.3.8-.2 1-.4 1.3c-.1.7-.3 1.2-.4 1.3l-.3 1c0 .5-.1.9-.2.9l-.3.7c0 .5-.2.9-.3 1l-.2 1.3a5 5 0 01-.3 1.2l-.3 1.3c0 .6-.2 1.2-.3 1.4L168 81l-.9 4.6-.3 2.5c0 1-.2 2-.3 2l-.2 2.4-.3 2-.3 2.3a259.6 259.6 0 000 26.6c0 1.4.2 2.6.3 2.7l.3 1.8c0 .9.2 1.6.2 1.6l.4 1.5c0 .8.3 1.6.3 1.7.1 0 .3.5.3.9l.3.6.2.3c0 .8 1.9 3.2 2.5 3.2.1 0 .2 0 .2.2 0 0 .5.2 1.1.2.6 0 1.1-.1 1.1-.2l.4-.2c.2 0 .9-.5 1.6-1.3 1.7-1.7 1.8-1.9 1.8-2.1l.2-.2.3-.5c0-.2.2-.4.3-.4l.2-.4 1.3-2.3c.4-.5.6-1 .6-1.1l.3-.3c.2 0 .3-.2.3-.4l.1-.3c.1 0 .3-.2.3-.5l.3-.6c.1 0 .2 0 .2-.2a37 37 0 012-4.6c0-.1 0-.3.2-.3 0 0 .2-.2.2-.5l.3-.6a49.3 49.3 0 003.5-7l.2-.6.3-.5.3-.6c0-.3.2-.5.3-.5l.2-.6.3-.5.2-.2.6-1.6.8-1.8.2-.4.3-.6c0-.3.2-.5.3-.5 0 0 .2-.2.2-.5l.3-.6.7-1.2.5-1 .1 9.5a107.4 107.4 0 001.6 19l.3 1.2c0 .5.2.9.3.9l.2.6c.2.7 1.2 2.7 1.4 2.8l.2.3c0 .2.6.8.9.8l.4.3c.2.3 2.3.4 2.3 0l.4-.1c.2 0 .5-.1.6-.3l.4-.2c.2 0 1.5-1.4 1.5-1.7l.2-.2c.2 0 1.5-1.9 1.5-2.1l.1-.2.7-1a13 13 0 011.4-2.3s0-.3.2-.4a34 34 0 002.8-5.4l.2-.6.3-.5c0-.3.2-.6.3-.6 0 0 .2 0 .2-.2l.3-1 .4-.9c0-.1 0-.2.2-.2l.3-.6c0-.3.1-.5.2-.5l.2-.2 1.3-2.8a89.3 89.3 0 004.4-9l.1-.3.4-1 .3-.9.2-.2.3-.5c0-.3.2-.6.3-.6l.3-.5.2-.6.3-.3v.1l.2.4c.1 0 .3.7.3 1.6 0 1 .3 2.2.5 2.8l.4 1.4.1.2c.1 0 .3.3.3.6s.2.5.3.5c.1 0 .2.1.2.3l.2.4c.2 0 .3.2.3.3 0 .2.2.4.5.6l.6.4c.3.4 2.2.8 2.8.6l1.3-.3c.3 0 .6-.2.6-.3 0 0 .2-.2.5-.2.7-.2 3.2-2.9 3.2-3.4 0-.1 0-.2.2-.2l.3-.5.2-.4.3-.6c0-.3.2-.5.2-.5l1.4-2.6c1.4-2.8 1.2-2.6 3.5-3.6a106.5 106.5 0 005.4-2.4c.3 0 .3 1.5 0 1.7-.1 0-.3.5-.3 1.1l-.3 1-.3 1.5a41.1 41.1 0 00-.3 10l.3 1c0 .5.2.8.3.8 0 0 .2.2.2.5l.3.4.2.3c0 .3 1.3 1.5 1.9 1.7.2 0 .5.2.5.3.2.3 4.5.3 4.7 0l.9-.4.8-.2.5-.3c.6-.1 2.8-1.3 2.9-1.6l.3-.1.4-.3.3-.3.6-.3.5-.4c.3 0 2-1.6 7.8-7.7 6.8-7 7.3-7.5 7.4-7.1l.2.5.2.5c0 1.6 3.5 3.9 4.2 2.7l1-.3.8-.2.4-.3c.3 0 .5-.2.5-.3 0 0 0-.2.2-.2.3 0 2.1-1.8 2.1-2.1 0-.1.1-.3.3-.3l.4-.5c0-.3.5-.9 1.2-1.6l.3-.5.4-.5.3-.6.2-.2.5-.6.7-1 .6-.8.5-.6.6-.9.6-.7.2-.2c0-.2 0-.4.2-.5l.8-1A15 15 0 01293 87l.6-.8.5-.7 1.2-1.7 1-1.2.2.5c.1.3.3 1.4.3 2.6 0 1.1.2 2.2.3 2.3.2.3.9.3.9 0l.4-.1c1.2 0 1.8-4.2 1-6.5-.5-1.2-.6-2.8-.1-3.3l.3-.4s.5-.7 1.2-1.3l1.7-1.7.6-.6-.1 2.2c0 1.2-.2 2.2-.3 2.3l-.3 1.4c0 .7-.2 1.3-.3 1.3 0 0-.2.5-.2 1.2l-.3 1.3-.3 1.2a5 5 0 01-.3 1.3l-.2 1.4a5 5 0 01-.3 1.3l-.4 2a7 7 0 01-.3 1.8l-.3 1.2c0 .6-.2 1.2-.3 1.2l-.2 1.3-.4 1.7a82 82 0 00.3 13.4l.3 1.4.3 1c0 .4.2.8.3.8 0 0 .2.1.2.3 0 1 2.4 4.2 3.1 4.2.2 0 .3.1.4.3.2.5 5.2 0 5.2-.7l.2-.1a19.3 19.3 0 005.6-5.4c0-.1 0-.3.2-.3 0 0 .4-.3.7-.8l.6-1 .7-1.3.4-.5.1-.2.4-.7.4-.7.1-.2c.1 0 .3-.2.3-.4l.3-.5 1.1-2 .7-1.1.3-.5c0-.2.2-.4.3-.4l.2-.6c0-.2.3-.5.4-.6.1 0 .3-.2.3-.4l.1-.2.2-.3.4-.7c.3-.4.3-.4.4 4.9l.1 5.4a98.9 98.9 0 011 14.7 158.1 158.1 0 011.4 7.9l.3 1.2c0 .6.2 1 .3 1.1l.2 1 .3 1 .3.8.2.8.3.8c0 .4.2.9.4 1.1 0 .2.3.6.3 1l.3.5.3.6c0 .3.2.5.3.5l.2.6.3.5.3.3c.6 1.6 3.1 2.6 4.2 1.7l1.3-1.4c.4-.4.5-2.8.1-3.1-.3-.3-.6-.1-.6.4 0 .4 0 .4-.2 0-.4-.5-1.3-.2-1.3.6 0 .3 0 .3-.3-.1a115 115 0 00-.9-1.4l-.2-.4c-.1 0-.3-.3-.3-.7 0-.3-.2-.6-.3-.6l-.3-1-.4-1.4a16 16 0 01-.8-3c0-.5-.2-1-.3-1l-.3-1.4-.2-1.6-.3-1.6c0-.9-.2-1.6-.3-1.6l-.3-1.4-.2-1.8c-1-2-1.5-30.5-.6-33l.4-1.4c0-.2 0-.4.2-.4 0 0 .2-.3.2-.7l.3-.8.3-.8c0-.4.2-.8.3-.8l.1-.4a16.9 16.9 0 001-2.7l.5-1.5.4-1.2c0-.6.3-1 .4-1l.1-.5.4-1.1.3-1.2.2-.4.3-.7c0-.4.2-.8.3-.8l.2-.8.3-.8.3-.6c0-.4.2-.8.3-1a21.2 21.2 0 001.2-3.6l.3-.9c0-.4.2-.8.3-.8l.2-.4.3-1.1.4-1 .1-.5c.1 0 .3-.4.3-.8l.3-.8.2-.5c0-.5.4-.6 1.3-.3l6.7.3a80.4 80.4 0 0111.8 1c0 .2 3.8.2 4 0 0-.2.8-.2 1.8-.2a28.5 28.5 0 008.4-1.3c.6 0 .8-1.1.2-1.5-.4-.3-.4-.3-.1-.6.4-.4.3-.8-.2-1a157.8 157.8 0 01-31.5-.4H339l.2-.7c0-.5.2-.9.2-.9l.3-1c0-.4.2-.9.3-1l.2-.8.3-1 .3-1c0-.4.2-.8.3-.8l.2-1 .3-.9.3-.8c0-.5.2-1 .3-1l.3-1.3c0-.5.3-1.3.4-1.8l.3-2.8a26.3 26.3 0 00.3-7.8c-.1 0-.3-.1-.3-.4-.5-1.8-2.8-3-4.2-2m-120.8 4.4a33.2 33.2 0 01-3.4 12.3l-.1.4-.7 1.8c-.3 1-.6 1.7-.7 1.7l-.1.4-.3.8-.4 1.1c0 .4-.1.7-.2.7l-.3.6c0 .4-.2.7-.3.8l-.2.4-.3 1-.4 1.1c0 .3 0 .4-.2.4l-.1.3c0 .4-1 2.7-1.2 2.8 0 0-.2.3-.2.7 0 .3-.2.6-.3.6l-.3.6c0 .3-.1.5-.2.5l-.3.5c0 .3-.2.6-.3.6 0 0-.2 0-.2.2 0 .1-.2.8-.6 1.5l-1.4 3.2-.1.2-.3.5c0 .3-.2.6-.3.6l-.3.5-.2.6c-.1 0-.2 0-.2.2l-.4 1a4 4 0 00-.3 1l-.2.1-.3.6c0 .3-.2.5-.3.5l-.3.8-.4.9-.3.5c0 .3-.2.6-.3.6l-.1.2-.4 1a4 4 0 00-.3.9l-.2.2-.3.5-.2.6-.6 1-.4.7.1-1.2c0-.7.2-1.3.3-1.4l.2-1 .3-1 .3-1c0-.6.2-1 .3-1l.3-1.2.2-1 .3-1c0-.6.2-1 .3-1l.3-1.6.4-1.5.3-1 .2-1 .3-1c0-.6.2-1 .3-1l.3-1c0-.6.1-1 .2-1l.3-.9c0-.4.2-.7.3-.7 0 0 .2-.3.2-.7l.3-.9.7-1.8c.2-.9.5-1.7.6-1.7l.3-.9c0-.4.2-.7.3-.7l.1-.4.3-.8.4-1.1c0-.4.2-.7.3-.7l.1-.3.3-.8.3-1 .3-.6c.1 0 .2 0 .2-.2l.3-.9.5-1.2c0-.3.2-.5.3-.6l.8-1.5.9-1.6.2-.5c0-.3.2-.5.3-.6a26.7 26.7 0 001.8-3.2l.2-.3a19.4 19.4 0 013-4c.9-1 1-1 1-.2m-28.1 1.3c0 1-.2 1.9-.3 2l-.3 1.2c0 .6-.2 1-.2 1l-.3.9c0 .4-.2.8-.3.8l-.3.7c0 .4-.2.7-.2.7l-.3.8c0 .4-.2.7-.3.7l-.2.6-.3 1c-.4.6-1 2-1 2.4l-.3 1-.4 1-.1.4-.3.8c0 .3-.2.6-.3.6l-.2.6-.4 1.2-.3.8c0 .2 0 .3-.2.3 0 0-.2.3-.2.7l-.3 1-1 2.6a3 3 0 01-.3.8l-.3.6-.2.5a17.3 17.3 0 00-1.6 3.5c-.2 0-1.2 2-1.2 2.3 0 .1 0 .2-.2.2l-.1.2c0 .3-1.3 3-1.5 3.3l-.3.6c0 .2-.2.5-.3.5l-.1.1-.7 1.6a16 16 0 00-.7 1.8c0 .2-.2.5-.3.5 0 0-.2.2-.2.5l-.3.5-.3.6c0 .3-.2.5-.3.5l-.1.3-.4.9-.4 1-.1.2-.3.5c0 .3-.2.6-.3.6l-.3.5c-.3 1.3-.6 1.3-.5 0 0-.8.2-1.4.3-1.4l.3-1c0-.6.1-1 .2-1l.3-1c0-.6.2-1 .3-1l.2-1c0-.6.2-1 .3-1.1l.3-1.1c0-.6.2-1 .2-1l.3-1c0-.5.2-1 .3-1.1l.4-1.6.3-1.4.3-1c0-.7.2-1.2.3-1.2 0 0 .2-.4.2-.9l.3-.9.3-.8c0-.5.2-.8.3-.8 0 0 .2-.3.2-.7 0-.3.3-.8.4-1.1l.3-.7c0-.1 0-.5.2-.7.2-.3.3-.7.3-1 0-.2 0-.4.2-.4l.4-1c0-.5.3-1 .3-1l.3-1c0-.3.2-.6.3-.6 0 0 .2-.3.2-.7l.3-.8.3-.7c0-.4.2-.7.3-.7l.1-.2a66.2 66.2 0 015.4-11l.6-1c0-.2.2-.4.3-.4l.1-.2.3-.6.6-.8a16 16 0 012.5-2.6v1.8M340 36a35.9 35.9 0 01-2.2 11c0 .5-.2 1-.3 1l-.3.8a35 35 0 01-1.3 4.6l-.4 1.4c-.3 1.7-.7 2-2.4 1.8-.8-.2-1.2-.6-.7-1l.3-.7c0-.4.2-.8.3-.9 0 0 .2-.4.2-.9l.3-.9.3-.8c0-.4.2-.8.3-.8l.2-.8c0-.4.2-.8.3-.9l.4-1.1c0-.6.3-1.1.3-1.1l.3-.9c0-.4.2-.8.3-.8 0 0 .2-.3.2-.8l.3-.8.3-.8c0-.4.2-1 .4-1.2l.2-.9.2-.5.3-.9c0-.4.2-.8.3-.8l.2-.5c.1-.7 1.4-3.5 1.6-3.5v1.7m-6.2 24.9c0 .3-.1.5-.2.5l-.3.7-.2.8-.3.9c0 .4-.2.7-.3.7l-.2.4c0 .2 0 .6-.2.9l-.5 1.5c-.1.6-.3 1-.4 1l-.2.8-.3.8-.3.8c0 .4-.2.7-.3.8l-.2.8c0 .4-.2.8-.3.8l-.3.9c0 .4-.2.7-.3.8-.2.1-.2-.4 0-.8l.4-1.7.8-4.4.8-5.1c.4-2.7.2-2.5 1.7-2.5h1.2v.6M230.1 76.2c1.2.2 2.5.8 3 1.4 1.3 1.3 1.9 2 2.2 2.8.1.3.3.5.4.5l.2.7c0 .4.2.8.4 1a66.7 66.7 0 01-.4 12c0 .6-.2 1-.3 1l-.2.7-.3.7c-.1 0-.2 0-.2.2 0 .5-.7.9-1.9 1l-1.3.2c-.1.2-4.2.2-4.3 0l-1.1-.3h-1v-1.7a15.6 15.6 0 011.2-5.9l.3-.7c0-.4.2-.7.3-.7.1 0 .2 0 .2-.2 0-.4.8-1.4 2.8-3.4 2.2-2.3 2.5-3.3 1-3.3-.2 0-.5-.1-.6-.3-.3-.3-2.7-.4-2.7 0 0 0-.2.2-.5.2-.5.2-2.4 2-2.4 2.4 0 .2 0 .3-.2.3 0 0-.2 0-.2.2l-.3.6-.4.8c0 .2 0 .4-.2.4l-.1.2-.3.7-.4 1.1c0 .3-.2.7-.3.8l-.2.8c-.6 3-1 2.8-1.2-.4-.2-2.7.3-7 1-7.4l.2-.8c0-.4.2-.7.3-.7l.2-.4.3-.5.3-.4.4-.7.8-1 .8-.6c.1 0 .2 0 .2-.2s1.5-1 2.4-1l1-.2 1 .1m118.4 1.3c-.4 0-.8.2-.9.3l-.5.3a14 14 0 00-4.4 5c-.2.2-1 1.6-1 2v.2c-.2 0-.8 1.2-1 2l-.2.6-.2.6-.3 1a19 19 0 00-1 3.8l-.3 1.3-.3 1.7a20 20 0 00-.5 5.3c0 2 .1 3.5.2 3.5l.3 1.2c0 .7.2 1.4.3 1.5l.6 1.5a9.2 9.2 0 001 2.3c0 .2 2 2 2.3 2 .1 0 .3.2.3.4l.5.2c.2 0 .4.1.5.3.3.2 4 .2 4.3 0 .1-.1.5-.3.9-.3l.7-.3 1-.6c.5-.2 1-.5 1.1-.7l.5-.2a41.1 41.1 0 009.7-10.8l.4-.6 1.1-1.5.6-.7.3-.5.6-.8a108.5 108.5 0 012.9-4.1c.6-.8.5-1.5-.2-1.5-.3 0-.5-.1-.5-.2 0-.8-1-.1-1.8 1-.4.7-.6 1-1 1.3l-.3.5-.2.3-1 1.2c-.4.7-.8 1.3-1 1.4l-.2.4c0 .1-.1.3-.3.3l-.2.4-.2.3-.6.7a4 4 0 01-.7.8l-.2.3-.3.6-.4.6c0 .1-.1.3-.3.3-.1 0-.3.2-.3.4v.3c-.2 0-.4.3-.7.7a4 4 0 01-.7.8l-.2.3-.4.6-1 1.1c-.6 1-2 2.2-2.9 3-.8.6-1.5 1-1.9 1.5a2 2 0 01-.8.4l-.4.3-.5.3c-.3 0-.6.2-.7.3 0 .1-.7.2-1.8.2h-1.7l-.6-.6c-.6-.6-1.5-2-1.5-2.4l-.2-.8a36.5 36.5 0 01-.2-13.8l.3-1c.2-1.2.4-1.4 1-1 .9.6 5.7-.3 6-1.2l.3-.2a15.7 15.7 0 003.8-3.6c.5-.6 1.6-2.9 1.7-3.6 0-.4.2-.8.3-.8l.1-1.3c0-.7 0-1.2-.2-1.2l-.1-.5c0-2-3.6-3.4-6.8-2.8m-55.1.3l.5.3c.7.2.5 2-.3 2.3l-.6.8-1 1.4c-.4.3-.6.7-.6.7l-.3.5-1.9 2.4c-.4.6-.8 1-.9 1l-.2.4-.4.7a24.2 24.2 0 00-2.1 2.7l-.7.7-.2.4c0 .2-.2.4-.4.6l-.4.5-.4.6c-.3.2-.5.5-.5.6 0 0 0 .2-.2.3l-.4.5c-.4.7-2.1 2.6-2.9 3.2-1 .7-1 .6-1-1.8a21.5 21.5 0 011.3-7.2l.3-1.1.4-1 .3-.6c0-.4.2-.7.2-.7l.3-.5c0-.2.2-.5.3-.5l.8-1.3c0-.3.2-.5.3-.6l.5-.7c.5-.8.7-1 1.6-2 1.3-1.2 1.9-1.6 2.3-1.7l.5-.3.5-.3.6-.2c0-.4 4.4-.5 4.7-.1m58.1 3.6c0 1-.5 3.2-.8 3.4l-.5 1-.6.8-.2.2c0 .2 0 .4-.2.5l-.7.7c-.4.7-1.6 1.6-2.7 2-1.2.4-3.1.2-2.4-.2l.3-.7c0-.6.6-1.8.8-2l.3-.5c0-.3.2-.6.4-.7l.2-.5.3-.3c.2 0 .3-.3.3-.4l.1-.3.5-.5c.5-.9 2.4-2.7 3.2-3 1.6-.9 1.7-.8 1.7.5m-124.3 19.7l.8.2 2 .2c1 0 1.8 0 1.8-.2l.8-.2h.6v.7l-.3.8-.4.5c-.2.5-.6 1.2-.8 1.3-.2.3-.9 1.3-.9 1.5l-.1.1-.7.8c-.6 1-1.3 1.6-1.6 1.6-.2 0-.3.1-.4.3-.1.4-1 .3-1.1-.1l-.2-.4-.3-.7a24.3 24.3 0 01-1-5.6v-1.1l.5.2 1.3.1"></path>
        <path class="company-logos__svg" d="M129.4 93.1v-.5.5M129.4 93.1v-.5.5M129.4 93.1v-.5.5"></path>
    </g>
</svg>
