<?xml version="1.0" encoding="utf-8"?>
<svg version="1.1" viewBox="-1.851 -1.851 2054.478 487.613" xmlns="http://www.w3.org/2000/svg">
  <path d="M 150.925 1.956 L 152.925 1.956 L 151.925 6.956 L 131.925 46.956 L 121.925 68.956 L 108.925 101.956 L 96.925 135.956 L 87.925 162.956 L 73.925 213.956 L 66.925 245.956 L 59.925 291.956 L 54.925 334.956 L 53.925 340.956 L 81.925 329.956 L 121.925 315.956 L 149.925 307.956 L 190.925 297.956 L 229.925 289.956 L 262.925 284.956 L 299.925 280.956 L 312.925 279.956 L 340.925 278.956 L 366.925 278.956 L 392.925 279.956 L 447.925 284.956 L 477.925 289.956 L 507.925 296.956 L 545.925 307.956 L 571.925 316.956 L 602.925 329.956 L 631.925 343.956 L 657.925 357.956 L 683.925 373.956 L 686.925 377.956 L 671.925 376.956 L 637.925 376.956 L 594.925 379.956 L 558.925 383.956 L 511.925 390.956 L 474.925 397.956 L 445.925 404.956 L 410.925 414.956 L 377.925 425.956 L 349.925 436.956 L 331.925 444.956 L 308.925 455.956 L 289.925 465.956 L 274.925 474.956 L 266.925 479.956 L 261.925 480.956 L 262.925 473.956 L 266.925 461.956 L 269.925 447.956 L 274.925 441.956 L 291.925 433.956 L 307.925 425.956 L 328.925 416.956 L 359.925 404.956 L 386.925 395.956 L 423.925 385.956 L 463.925 376.956 L 494.925 371.956 L 539.925 366.956 L 575.925 363.956 L 608.925 361.956 L 587.925 358.956 L 568.925 356.956 L 531.925 354.956 L 500.925 354.956 L 456.925 356.956 L 417.925 361.956 L 367.925 371.956 L 339.925 378.956 L 301.925 390.956 L 276.925 399.956 L 242.925 413.956 L 216.925 425.956 L 190.925 438.956 L 169.925 450.956 L 152.925 461.956 L 146.925 463.956 L 147.925 455.956 L 157.925 416.956 L 162.925 409.956 L 178.925 401.956 L 197.925 392.956 L 234.925 377.956 L 277.925 363.956 L 313.925 353.956 L 351.925 345.956 L 393.925 338.956 L 435.925 334.956 L 453.925 333.956 L 505.925 333.956 L 549.925 336.956 L 566.925 337.956 L 539.925 331.956 L 474.925 320.956 L 437.925 316.956 L 401.925 314.956 L 351.925 314.956 L 311.925 317.956 L 269.925 323.956 L 230.925 330.956 L 198.925 338.956 L 149.925 353.956 L 110.925 368.956 L 84.925 379.956 L 50.925 395.956 L 19.925 411.956 L 3.925 420.956 L 0.925 420.956 L 0.925 407.956 L 2.925 391.956 L 6.925 356.956 L 13.925 314.956 L 23.925 266.956 L 33.925 230.956 L 46.925 189.956 L 61.925 150.956 L 70.925 130.956 L 84.925 101.956 L 96.925 79.956 L 112.925 53.956 L 120.925 41.956 L 132.925 24.956 L 144.925 8.956 L 150.925 1.956 Z" fill="#B1A095"/>
  <path d="M 1283.92 37.956 L 1293.92 37.956 L 1298.92 42.956 L 1308.92 59.956 L 1320.92 78.956 L 1335.92 103.956 L 1341.92 112.956 L 1343.92 113.956 L 1367.92 73.956 L 1381.92 51.956 L 1389.92 38.956 L 1432.92 37.956 L 1433.92 38.956 L 1433.92 220.956 L 1432.92 221.956 L 1395.92 222.956 L 1393.92 221.956 L 1392.92 106.956 L 1390.92 106.956 L 1388.92 110.956 L 1377.92 128.956 L 1363.92 149.956 L 1347.92 174.956 L 1343.92 180.956 L 1339.92 178.956 L 1332.92 168.956 L 1310.92 135.956 L 1296.92 112.956 L 1291.92 106.956 L 1289.92 105.956 L 1290.92 108.956 L 1290.92 221.956 L 1250.92 221.956 L 1250.92 38.956 L 1283.92 37.956 Z" fill="#B1A095"/>
  <path d="M 1886.92 37.956 L 1919.92 37.956 L 1925.92 40.956 L 1932.92 48.956 L 1960.92 86.956 L 1986.92 120.956 L 2000.92 138.956 L 2008.92 148.956 L 2007.92 125.956 L 2007.92 38.956 L 2008.92 37.956 L 2026.92 37.956 L 2048.93 38.956 L 2048.93 221.956 L 2015.92 222.956 L 2009.92 217.956 L 2001.92 206.956 L 1990.92 192.956 L 1954.92 144.956 L 1940.92 126.956 L 1930.92 112.956 L 1926.92 108.956 L 1926.92 220.956 L 1925.92 221.956 L 1890.92 222.956 L 1885.92 221.956 L 1884.92 40.956 L 1886.92 37.956 Z" fill="#B1A095"/>
  <path d="M 1105.92 35.956 L 1124.92 35.956 L 1139.92 37.956 L 1155.92 42.956 L 1170.92 50.956 L 1180.92 58.956 L 1192.92 70.956 L 1201.92 85.956 L 1207.92 100.956 L 1210.92 111.956 L 1211.92 117.956 L 1211.92 142.956 L 1207.92 160.956 L 1200.92 176.956 L 1192.92 188.956 L 1183.92 198.956 L 1174.92 206.956 L 1161.92 214.956 L 1150.92 219.956 L 1128.92 224.956 L 1121.92 225.956 L 1104.92 225.956 L 1090.92 223.956 L 1072.92 217.956 L 1060.92 211.956 L 1050.92 203.956 L 1041.92 195.956 L 1032.92 183.956 L 1024.92 168.956 L 1019.92 154.956 L 1016.92 138.956 L 1016.92 122.956 L 1019.92 106.956 L 1025.92 90.956 L 1034.92 74.956 L 1046.92 60.956 L 1059.92 50.956 L 1074.92 42.956 L 1090.92 37.956 L 1105.92 35.956 Z M 1107.92 72.956 L 1095.92 75.956 L 1085.92 80.956 L 1075.92 89.956 L 1068.92 98.956 L 1062.92 111.956 L 1060.92 118.956 L 1059.92 134.956 L 1062.92 148.956 L 1070.92 164.956 L 1079.92 174.956 L 1087.92 180.956 L 1098.92 185.956 L 1107.92 187.956 L 1122.92 187.956 L 1135.92 183.956 L 1145.92 178.956 L 1155.92 169.956 L 1161.92 161.956 L 1166.92 150.956 L 1168.92 141.956 L 1168.92 120.956 L 1165.92 108.956 L 1158.92 95.956 L 1149.92 85.956 L 1138.92 78.956 L 1126.92 73.956 L 1120.92 72.956 L 1107.92 72.956 Z" fill="#B1A095"/>
  <path d="M 1737.92 35.956 L 1755.92 35.956 L 1771.92 37.956 L 1784.92 41.956 L 1800.92 49.956 L 1812.92 58.956 L 1822.92 68.956 L 1832.92 83.956 L 1839.92 99.956 L 1842.92 114.956 L 1843.92 132.956 L 1841.92 152.956 L 1836.92 168.956 L 1827.92 184.956 L 1816.92 197.956 L 1808.92 204.956 L 1795.92 213.956 L 1782.92 219.956 L 1760.92 224.956 L 1753.92 225.956 L 1736.92 225.956 L 1722.92 223.956 L 1706.92 218.956 L 1692.92 211.956 L 1679.92 201.956 L 1670.92 192.956 L 1660.92 177.956 L 1654.92 164.956 L 1650.92 149.956 L 1649.92 143.956 L 1649.92 118.956 L 1652.92 103.956 L 1658.92 87.956 L 1665.92 75.956 L 1676.92 62.956 L 1686.92 53.956 L 1699.92 45.956 L 1714.92 39.956 L 1727.92 36.956 L 1737.92 35.956 Z M 1739.92 72.956 L 1726.92 75.956 L 1714.92 82.956 L 1705.92 90.956 L 1698.92 100.956 L 1693.92 114.956 L 1692.92 119.956 L 1692.92 141.956 L 1696.92 154.956 L 1701.92 163.956 L 1710.92 173.956 L 1719.92 180.956 L 1730.92 185.956 L 1739.92 187.956 L 1754.92 187.956 L 1770.92 182.956 L 1781.92 175.956 L 1788.92 168.956 L 1795.92 157.956 L 1799.92 145.956 L 1800.92 136.956 L 1800.92 127.956 L 1798.92 112.956 L 1793.92 100.956 L 1786.92 90.956 L 1777.92 82.956 L 1761.92 74.956 L 1751.92 72.956 L 1739.92 72.956 Z" fill="#B1A095"/>
  <path d="M 194.925 37.956 L 221.925 37.956 L 273.925 38.956 L 289.925 40.956 L 309.925 46.956 L 323.925 54.956 L 334.925 63.956 L 342.925 71.956 L 351.925 85.956 L 358.925 102.956 L 361.925 115.956 L 362.925 134.956 L 360.925 150.956 L 354.925 168.956 L 347.925 181.956 L 340.925 190.956 L 329.925 201.956 L 315.925 210.956 L 307.925 214.956 L 291.925 219.956 L 273.925 221.956 L 195.925 222.956 L 193.925 221.956 L 193.925 38.956 L 194.925 37.956 Z M 234.925 75.956 L 234.925 185.956 L 268.925 185.956 L 281.925 183.956 L 295.925 177.956 L 304.925 170.956 L 310.925 163.956 L 315.925 153.956 L 318.925 142.956 L 318.925 119.956 L 315.925 107.956 L 308.925 94.956 L 299.925 85.956 L 285.925 78.956 L 271.925 75.956 L 234.925 75.956 Z" fill="#B1A095"/>
  <path d="M 822.925 38.956 L 862.925 38.956 L 863.925 39.956 L 863.925 111.956 L 876.925 110.956 L 934.925 110.956 L 935.925 38.956 L 975.925 38.956 L 976.925 39.956 L 976.925 221.956 L 935.925 221.956 L 935.925 149.956 L 884.925 149.956 L 863.925 148.956 L 863.925 221.956 L 822.925 221.956 L 821.925 150.956 L 821.925 39.956 L 822.925 38.956 Z" fill="#B1A095"/>
  <path d="M 1537.92 35.956 L 1549.92 35.956 L 1566.92 37.956 L 1581.92 41.956 L 1597.92 48.956 L 1608.92 55.956 L 1611.92 58.956 L 1609.92 63.956 L 1599.92 77.956 L 1591.92 89.956 L 1586.92 88.956 L 1568.92 78.956 L 1554.92 73.956 L 1549.92 72.956 L 1537.92 72.956 L 1526.92 76.956 L 1520.92 83.956 L 1520.92 92.956 L 1527.92 100.956 L 1538.92 105.956 L 1551.92 109.956 L 1570.92 114.956 L 1587.92 121.956 L 1597.92 127.956 L 1607.92 136.956 L 1613.92 146.956 L 1616.92 158.956 L 1616.92 178.956 L 1613.92 190.956 L 1606.92 201.956 L 1598.92 210.956 L 1587.92 217.956 L 1571.92 222.956 L 1559.92 224.956 L 1535.92 224.956 L 1515.92 220.956 L 1499.92 214.956 L 1486.92 207.956 L 1474.92 198.956 L 1472.92 194.956 L 1478.92 185.956 L 1488.92 174.956 L 1494.92 167.956 L 1499.92 168.956 L 1513.92 177.956 L 1526.92 183.956 L 1540.92 187.956 L 1552.92 188.956 L 1565.92 185.956 L 1572.92 180.956 L 1574.92 177.956 L 1575.92 168.956 L 1571.92 160.956 L 1561.92 155.956 L 1517.92 142.956 L 1500.92 134.956 L 1490.92 126.956 L 1483.92 115.956 L 1479.92 104.956 L 1478.92 97.956 L 1478.92 87.956 L 1481.92 73.956 L 1488.92 59.956 L 1497.92 49.956 L 1511.92 41.956 L 1522.92 37.956 L 1537.92 35.956 Z" fill="#B1A095"/>
  <path d="M 475.925 35.956 L 499.925 35.956 L 518.925 38.956 L 531.925 43.956 L 544.925 50.956 L 554.925 58.956 L 558.925 62.956 L 556.925 67.956 L 546.925 78.956 L 535.925 92.956 L 531.925 93.956 L 521.925 85.956 L 509.925 78.956 L 494.925 73.956 L 478.925 73.956 L 468.925 76.956 L 457.925 82.956 L 447.925 91.956 L 439.925 104.956 L 436.925 113.956 L 434.925 128.956 L 435.925 142.956 L 439.925 155.956 L 444.925 164.956 L 453.925 174.956 L 463.925 181.956 L 473.925 185.956 L 478.925 186.956 L 495.925 186.956 L 506.925 183.956 L 520.925 176.956 L 531.925 167.956 L 536.925 168.956 L 541.925 173.956 L 557.925 188.956 L 559.925 190.956 L 558.925 194.956 L 549.925 203.956 L 535.925 213.956 L 522.925 219.956 L 501.925 224.956 L 494.925 225.956 L 475.925 225.956 L 458.925 222.956 L 444.925 217.956 L 433.925 211.956 L 424.925 204.956 L 411.925 191.956 L 402.925 177.956 L 395.925 162.956 L 391.925 145.956 L 391.925 117.956 L 394.925 102.956 L 399.925 89.956 L 408.925 73.956 L 420.925 59.956 L 430.925 51.956 L 444.925 43.956 L 457.925 38.956 L 475.925 35.956 Z" fill="#B1A095"/>
  <path d="M 633.925 38.956 L 781.925 38.956 L 784.925 39.956 L 785.925 74.956 L 784.925 76.956 L 729.925 76.956 L 729.925 220.956 L 728.925 221.956 L 688.925 221.956 L 687.925 210.956 L 688.925 76.956 L 633.925 76.956 L 632.925 67.956 L 632.925 39.956 L 633.925 38.956 Z" fill="#B1A095"/>
</svg>