<svg width="325" height="54" xmlns="http://www.w3.org/2000/svg" version="1.1">
 <g id="Layer_1">
  <title>Layer 1</title>
  <g stroke="null">
   <g stroke="null" fill="none" fill-rule="nonzero">
    <path stroke="null" d="m26.71272,41.54686l-1.03315,0c-2.76019,0 -4.43406,-2.5119 -5.07699,-7.48691c-0.63851,-4.97723 -1.91995,-7.93255 -3.84212,-8.86813c-3.8909,2.46091 -4.7777,3.20139 -5.81306,5.81307c-1.42778,3.54724 -1.379,7.24303 -1.77362,9.85249c0,0 -0.14632,0.29708 -0.29488,0.44339c-0.19732,0.14854 -0.39463,0.29708 -1.33021,0.59194c-0.98657,0.29487 -0.64072,0.34587 -1.62509,0.34587c-0.98657,0 -1.52976,-0.9866 -1.82461,-1.42999c-0.44342,-0.59193 -0.54097,-1.18167 -0.78706,-2.11724c-0.64293,-2.11948 -1.08633,-6.30748 -1.28145,-12.61491c-0.14852,-4.28553 -0.54095,-1.8224 -0.39461,-8.61983c0.09976,-6.75086 -0.04878,-6.06137 0.15074,-9.26276c0.04879,-0.88681 0.19733,-1.52753 0.44342,-2.01972c0.24387,-0.4434 0.58973,-0.6895 1.03313,-0.6895c1.91996,0 3.44748,-0.29708 4.23454,4.53162c0.59194,3.40092 0.98657,5.91282 1.08634,8.86812c0.14632,3.05507 0.14632,0.59195 0,3.94187c1.33023,-1.87117 2.5119,-3.34992 3.64479,-4.38528c1.77364,-1.77362 3.39873,-1.52754 4.87748,-1.52754c3.34994,0 5.91283,3.40093 7.73522,10.19836c1.42776,5.32086 2.06851,10.14956 1.87118,14.43508zm32.31988,-15.8141c0,4.3853 -2.80898,8.32718 -8.37596,11.9232c-5.02379,3.20141 -9.95224,4.8287 -14.63238,4.8287c-2.51191,0 -4.28554,-0.64293 -5.26991,-1.97317c-0.98657,-1.33022 -1.47875,-3.25016 -1.47875,-5.86182c0,-3.30116 0.83803,-6.40502 2.46312,-9.31153a21.21256,21.21256 0 0 1 6.69988,-7.19206c1.03535,-0.83804 1.77364,-1.47875 2.31679,-1.87339c0.98437,-0.78704 1.87118,-1.18168 2.758,-1.18168c3.59604,0 6.89717,0.88682 10.00103,2.61167c3.69578,2.11727 5.52039,4.7777 5.52039,8.03007l-0.00221,0zm-5.56696,0.49221c0,-1.33022 -0.59196,-2.36336 -1.82242,-3.2014c-1.23267,-0.83804 -2.51411,-1.28145 -3.89311,-1.28145c-2.80676,0 -5.66451,1.23267 -8.52225,3.74458c-2.90654,2.51188 -4.33654,5.12355 -4.33654,7.83276c0,1.08633 0.39463,1.8734 1.23266,2.31679c0.83805,0.44342 1.82241,0.68729 3.0041,0.68729c2.46312,0 5.37185,-1.08192 8.77058,-3.20139c3.6958,-2.3146 5.56697,-4.58039 5.56697,-6.89497l0,-0.00221zm14.48386,16.55456l-1.57409,0.14855a6.40722,6.40722 0 0 1 -1.72707,-0.24609a1.8357,1.8357 0 0 1 -1.18167,-0.88682c-0.04879,-0.14855 -0.24612,-2.71143 -0.64073,-7.68644c-0.49219,-6.94596 -0.83804,-5.32088 -0.98437,-7.784c-0.34586,-5.12356 -0.49218,-6.99695 -0.49218,-7.73744l0,-11.1295c0,-0.74049 0.04879,-1.38121 0.1951,-1.92217c0.14856,-0.54096 0.44341,-0.88681 0.98657,-1.03535a5.54258,5.54258 0 0 1 2.75799,2.16826c0.49442,0.83804 0.88682,1.97094 1.1329,3.4497c0.24831,1.47655 0.39465,3.00408 0.49442,4.67794c0.09754,1.67607 0.14632,3.4497 0.14632,5.42064l0,-0.24387l0,5.26988c0,2.66043 0.14853,0.29485 0.44341,5.61574c0.29707,5.2721 0.44341,9.26276 0.44341,11.92322l0,-0.00224zm8.52448,-33.50156c0,0.6895 -0.14854,1.28145 -0.49219,1.77363c-0.34584,0.54096 -0.83802,0.78705 -1.47875,0.78705c-0.88682,0 -1.6251,-0.54096 -2.21704,-1.67386c-0.59193,-1.08412 -0.88682,-2.16826 -0.88682,-3.20361c0,-0.63851 0.14856,-1.27923 0.44344,-1.87118s0.73824,-0.88681 1.379,-0.88681c0.88679,0 1.62505,0.59195 2.31677,1.77363c0.58974,1.23267 0.93559,2.31457 0.93559,3.30116zm3.34769,18.96669c0,2.90876 -0.04654,5.37189 -0.19507,7.44037c-0.14856,2.06849 -0.44341,4.23676 -0.98437,6.50254c-1.97314,-0.24387 -3.35216,-1.03312 -4.04165,-2.36336c-0.14632,-0.24609 -0.54095,-1.87337 -1.33023,-4.77991a22.46296,22.46296 0 0 1 -0.54095,-4.97501c0,-1.08636 0.09755,-2.71144 0.24608,-4.92848c0.14855,-2.21703 0.24612,-3.84211 0.24612,-4.975c0.39461,0 1.13287,-0.19732 2.16824,-0.54097c0.59193,-0.19953 0.98436,-0.29707 1.23044,-0.29707c0.54317,0 1.18391,0.88681 1.97317,2.61166c0.78703,1.72485 1.13067,2.95531 1.13067,3.64481l0.09978,2.66042l-0.00224,0zm28.03436,-15.46821c0,4.63137 0,4.13697 -0.04875,6.99473c-0.14853,11.431 -0.24609,17.68747 -0.24609,18.82259c-0.24609,-0.05098 -0.98438,-0.15076 -2.16825,-0.34585c-1.23044,-0.19955 -2.11727,-0.29707 -2.75799,-0.29707a70.6834,70.6834 0 0 1 -5.27209,3.15262a11.00313,11.00313 0 0 1 -5.4694,1.3812c-2.36338,0 -4.38309,-0.93781 -6.10793,-2.85997c-1.72487,-1.91994 -2.56291,-4.08821 -2.56291,-6.50255c0,-2.90433 1.28145,-6.00817 3.79334,-9.26054c2.71144,-3.49848 5.46941,-5.22555 8.27842,-5.22555c0.8868,0 1.62505,0.04879 2.26579,0.19732c0.64072,0.14854 1.5763,0.34586 2.758,0.6895c0.2461,-0.83803 0.44343,-1.62507 0.59194,-6.60232c0.14853,-4.97501 0.93557,-6.10791 2.41434,-7.63545c1.57632,0.64072 2.70922,1.57631 3.44749,2.85775c0.74047,1.28145 1.08633,2.80676 1.08633,4.63138l-0.00224,0.00221zm-6.55128,14.48385c0,-0.88682 -0.24612,-1.62506 -0.78927,-2.21703a2.58062,2.58062 0 0 0 -2.01752,-0.88681c-1.87339,0 -3.69801,1.08414 -5.56916,3.30117c-1.82243,2.21704 -2.758,4.23674 -2.758,6.15892c0,0.83581 0.24387,1.57409 0.68726,2.16603c0.44341,0.64293 1.08637,0.93781 1.92219,0.93781c1.47875,0 3.30339,-1.1839 5.37187,-3.59824c2.11724,-2.41215 3.15263,-4.38308 3.15263,-5.86185zm32.4174,8.12986c0,1.42776 -0.09752,2.70922 -0.29485,3.8909a14.45504,14.45504 0 0 1 -0.98659,3.44971a6.68435,6.68435 0 0 1 -3.79114,-2.46312c-0.39682,-0.44342 -1.13509,-1.77364 -2.26802,-4.04166c-0.14856,0.39463 -1.67606,1.52975 -4.48281,3.40093c-2.80901,1.87118 -4.53387,2.758 -5.12358,2.758c-2.21702,0 -3.79557,-0.73829 -4.8287,-2.16826c-0.98655,-1.47655 -1.47874,-3.34773 -1.47874,-5.61575c0,-3.25238 1.77363,-7.78399 5.36964,-13.64582c3.79334,-6.20768 6.99695,-9.26276 9.65739,-9.26276c2.758,0 4.8287,1.97094 6.20767,5.91061c1.33022,3.89311 2.01971,9.85471 2.01971,17.78724zm-7.0457,-15.37288c0,-0.24388 0,-0.54096 -0.0488,-0.88683c0,-0.34363 -0.09754,-0.83581 -0.19732,-1.37898c-0.39462,0 -0.8868,0.19732 -1.47878,0.54317a10.29368,10.29368 0 0 0 -1.52528,1.18168c-0.93782,0.93559 -2.26807,3.15261 -3.99067,6.65108c-1.72485,3.49849 -2.61165,5.86185 -2.61165,7.04573l0,0.68727c2.90429,-0.63849 5.27207,-2.36334 7.0945,-5.12133c1.82236,-2.76019 2.75799,-5.66673 2.75799,-8.72179zm33.10912,-1.57409c0,1.23045 -1.33018,5.51597 -4.04164,12.759c-2.36333,6.35403 -0.58969,3.0551 -3.59599,10.29591c-3.00409,7.24304 -2.80904,6.30746 -3.7446,7.784c-0.39464,0.64294 -0.88683,1.18388 -1.42772,1.52974a3.51399,3.51399 0 0 1 -1.9222,0.54096c-0.93561,0 -1.77364,-0.19953 -2.51189,-0.64294c-0.68951,-0.39241 -1.03537,-1.0819 -1.03537,-1.96872c0,-1.23267 0.83803,-3.05509 1.57631,-4.53383c0.6895,-1.47654 1.13289,-1.91995 1.87338,-3.44748c0.73825,-1.52753 0.68727,-1.77362 0.68727,-3.4497c0,-2.41435 -1.57407,-5.02379 -3.39868,-7.78179c-1.72264,-2.36557 -3.39873,-4.77991 -5.12134,-7.14549c-1.87343,-2.90652 -2.80901,-5.61574 -2.80901,-8.07886c3.44749,0.58972 6.69987,3.49626 9.70396,8.71959c1.97318,3.39871 3.49844,5.66452 4.68236,6.79964a92.48346,92.48346 0 0 0 3.25017,-8.62425c0.83803,-2.60945 1.62732,-5.56476 2.41655,-8.86813l0.93338,-0.68728c1.43001,0.29486 2.61166,1.13069 3.44971,2.56068c0.68948,1.23266 1.03534,2.61166 1.03534,4.23674l0,0.00222z" fill="#542E91"/>
    <g stroke="null" fill="#542E91">
     <path stroke="null" d="m189.83746,35.88234c0,2.11727 -1.87115,3.8909 -5.61575,5.36964c-3.05507,1.18169 -5.81305,1.72487 -8.42468,1.72487c-4.13921,0 -7.53793,-0.88682 -10.19836,-2.70921c-3.10382,-2.11949 -4.68016,-5.17456 -4.68016,-9.11645c0,-3.79111 1.57634,-7.24082 4.77769,-10.34466c3.15483,-3.10384 6.70209,-4.63359 10.54419,-4.63359c2.5119,0 4.92625,0.9378 7.14328,2.85997c2.26581,1.91995 3.34995,4.13698 3.34995,6.60233c0,2.90431 -4.0882,4.82646 -12.21585,5.66452c-4.63358,0.39461 -7.44035,0.59193 -8.52449,0.68949l0,1.18389c0,1.08191 0.93561,2.01751 2.85776,2.80678c1.62511,0.68949 3.05286,0.98656 4.3831,0.98656c1.62729,0 3.647,-0.44341 6.06133,-1.33022c2.41437,-0.88681 4.87746,-1.77361 7.43816,-2.76019c0.74046,0 1.42999,0.29707 2.11949,0.88681c0.68947,0.68949 0.98436,1.33022 0.98436,2.11947zm-8.76837,-10.7925c0,-0.98436 -0.64293,-1.8224 -1.92215,-2.46312c-1.28146,-0.64073 -2.46312,-0.98436 -3.59602,-0.98436c-1.42999,0 -2.76022,0.4434 -4.03943,1.37899c-0.74051,0.54095 -1.77364,1.52753 -3.10385,3.00407c1.87115,0.4434 3.99065,0.68951 6.40503,0.68951c0.93559,0 1.96867,-0.04879 3.10381,-0.19511a30.55069,30.55069 0 0 0 3.15262,-0.4944l0,-0.93558zm33.55034,14.23777l0,2.76021c-1.77364,-0.44342 -3.44751,-1.379 -4.97502,-2.90655c-3.74678,-3.69579 -6.99693,-5.61794 -7.44032,-5.81526c-0.98441,1.67607 -2.51193,3.74678 -4.58263,6.15893c-0.98436,1.18388 -2.01749,2.36557 -3.00406,3.54724c-0.29489,-0.34366 -0.78928,-0.88682 -1.37903,-1.52755c-1.13289,-1.18167 -1.72482,-2.11727 -1.72482,-2.85775c0,-1.18167 1.42775,-3.54725 4.23676,-7.04351c1.33022,-1.62729 1.97092,-3.10383 1.97092,-4.43407c0,-1.5763 -3.10382,-3.64701 -4.77992,-6.15891c-1.62506,-2.51189 -2.46092,-4.1392 -2.46092,-4.87746c0,-0.6895 0.14636,-1.28145 0.39243,-1.87339a1.87339,1.87339 0 0 1 1.33023,-1.08191c0.59196,0.1951 1.47876,1.03314 2.56291,2.5119c2.75795,3.69801 6.74861,5.81305 7.38936,6.30745c1.33022,-3.10384 2.11725,-4.7777 2.26581,-5.12134c1.33017,-2.3168 2.76018,-3.5007 4.23672,-3.5007c0.59195,0 1.08635,0.24831 1.42996,0.74049c0.34366,0.49218 0.49222,1.28144 0.49222,2.46091c0,1.82461 -0.49222,3.64702 -1.43001,5.5204c-0.93561,1.8224 -1.91992,3.69358 -2.90433,5.56476c0,0.4434 2.75804,2.61386 6.00818,6.50476c1.57852,1.8734 2.36557,3.54725 2.36557,5.12356l0,-0.00222zm27.68854,-22.17032l-0.44344,-0.14631l-0.39465,-0.05099c-0.29483,0.29707 -0.44339,0.59195 -0.44339,0.8868c0,0.19954 0.09975,0.54317 0.29712,0.93781c-0.39467,1.72264 -2.31683,2.66045 -5.81534,2.75798c-3.49622,0.09978 -5.81302,0.83805 -6.89491,2.21705a10.17396,10.17396 0 0 0 -0.24835,2.21703l0,2.85997c0,0.8868 -0.24605,3.05506 -0.73824,6.50255a26.53565,26.53565 0 0 0 -0.34584,3.84432c0,1.18169 0.19951,2.36337 0.54312,3.49627l-1.23264,0c-1.52753,0 -2.66046,-0.49219 -3.44749,-1.47655c-0.88684,-1.1839 -1.33022,-3.25237 -1.33022,-6.30745c0,-0.98437 0.04877,-2.16605 0.19511,-3.54725c0.29709,-3.15261 0.44337,-5.12134 0.44337,-5.91061c0,-2.51411 -1.72264,-3.94188 -5.22108,-4.23675c-3.49847,-0.29707 -5.22333,-1.82462 -5.22333,-4.68236l0,-0.88682c0.05096,-0.24388 0.14853,-0.78705 0.29706,-1.57409c1.97096,0.34363 3.05289,0.54095 3.30115,0.54095c1.33026,0.19732 2.46092,0.29486 3.44751,0.29486c2.11946,0 3.59604,-0.64071 4.48285,-1.87117a5.23219,5.23219 0 0 0 0.83804,-3.05507c0,-0.78926 -0.14854,-1.42999 -0.14854,-1.52754c0,-1.1329 0.09978,-1.08412 0.24828,-1.92216c1.72266,0.39463 3.00409,0.19953 3.84216,1.6273c1.03531,1.67386 1.08411,2.01749 1.23042,2.5119c0.14854,0.49218 0.14854,0.93559 0.14854,1.47876a1.81797,1.81797 0 0 0 0.19733,0.78704c0.09753,0.29708 0.19734,0.49218 0.24606,0.59195c0.44341,0.24609 0.93559,0.39462 1.47881,0.49218c0.49217,0.09976 1.08411,0.14853 1.77362,0.14853c0.39461,0 1.03313,0 1.87117,-0.04877c0.83798,-0.05099 1.42992,-0.05099 1.72484,-0.05099c1.37903,0 2.46312,0.19954 3.25238,0.64294c0.88678,0.48995 1.57408,1.33022 2.06851,2.46089l0,-0.00222z"/>
     <path stroke="null" d="m268.66623,20.21459a1.88448,1.88448 0 0 1 -0.49219,1.23267c-0.34586,0.39241 -0.68951,0.64071 -1.13293,0.64071c-0.24829,0 -0.93774,-0.19951 -2.07065,-0.54316c-0.64075,-0.19732 -1.08417,-0.29486 -1.4278,-0.29486c-2.70923,0 -5.52039,1.87118 -8.4735,5.56475c-1.33018,1.67607 -3.54726,5.12577 -6.75085,10.3491c-2.26581,3.74235 -3.84215,5.61574 -4.77769,5.61574c-1.97319,0 -3.30338,-2.70922 -3.99065,-8.17863c-0.39465,-3.54723 -0.74054,-7.14326 -1.13515,-10.79029l-1.96872,-7.78177c0.4922,-0.14855 1.03314,-0.44341 1.62508,-0.88681c0.59193,-0.39685 1.0354,-0.7405 1.37901,-0.9378c2.06847,1.52754 3.44968,2.75799 4.03943,3.59602c0.39461,0.59195 0.64293,1.33021 0.64293,2.16826a17.73625,17.73625 0 0 0 0.14633,2.61166c0.09753,0.58973 0.4922,1.57408 1.13292,2.9553a721.0473,721.0473 0 0 0 5.7155,-7.0945c2.06851,-2.0685 4.87746,-3.10385 8.47353,-3.10385c2.06848,0 3.94183,0.29487 5.56696,0.93559c2.31674,0.88681 3.49844,2.21703 3.49844,3.94189zm19.70715,15.17557c0,1.42776 -0.0997,2.70922 -0.29703,3.8909a14.45504,14.45504 0 0 1 -0.98438,3.44971a6.68435,6.68435 0 0 1 -3.79333,-2.46312c-0.39459,-0.44342 -1.1329,-1.77364 -2.26581,-4.04166c-0.14853,0.39463 -1.67609,1.52975 -4.48505,3.40093c-2.80679,1.87118 -4.53165,2.758 -5.12137,2.758c-2.21698,0 -3.79556,-0.73829 -4.8287,-2.16826c-1.03534,-1.42777 -1.52969,-3.30116 -1.52969,-5.61575c0,-3.25238 1.77359,-7.78399 5.37183,-13.64803c3.79337,-6.20769 6.99475,-9.26056 9.65521,-9.26056c2.80899,0 4.82867,1.97094 6.20764,5.91061c1.38123,3.94188 2.07068,9.85471 2.07068,17.78724zm-7.04572,-15.37288c0,-0.24388 0,-0.54096 -0.04874,-0.88683c0,-0.34363 -0.09982,-0.83803 -0.19958,-1.37898c-0.39233,0 -0.83582,0.19732 -1.47653,0.54096a10.29368,10.29368 0 0 0 -1.5275,1.1839c-0.93561,0.93559 -2.26584,3.20139 -3.99069,6.65108c-1.7226,3.49849 -2.60944,5.86185 -2.60944,7.04573l0,0.68727c2.90436,-0.63849 5.2699,-2.36334 7.09451,-5.12133c1.82239,-2.71143 2.75797,-5.61795 2.75797,-8.72179z"/>
     <path stroke="null" d="m320.39624,32.72972c0,4.38307 -3.30115,7.38937 -9.95224,9.11201c-3.89093,0.98657 -9.01453,1.47875 -15.3197,1.47875c-3.00632,0 -4.04163,-0.19731 -5.32089,-0.54096c-2.3656,-0.6895 -3.54727,-2.21704 -3.54727,-4.48283l0.19513,-2.07071c1.5275,0 3.84207,0.14854 6.89719,0.49441c3.05505,0.34364 4.33655,0.49217 5.86401,0.49217c2.56067,0 4.729,-0.24609 6.40503,-0.74049a12.87652,12.87652 0 0 0 5.46722,-3.25016l-0.64072,-0.54317a10.50873,10.50873 0 0 1 -2.60947,-0.3924a45.10107,45.10107 0 0 1 -2.76016,-0.83805c-3.99072,-0.78925 -6.74872,-1.92216 -8.27625,-3.44971c-1.3302,-1.28144 -1.97314,-2.9553 -1.97314,-5.02378c0,-2.7602 1.42999,-5.07699 4.38748,-7.04572c2.56067,-1.72485 5.32086,-2.61166 8.27621,-2.61166c1.82242,0 3.39871,0.39463 4.68011,1.23267c1.28146,0.83582 2.11951,2.11727 2.5629,3.79112c-4.33652,0.4944 -6.70206,0.78925 -7.09448,0.88681c-2.76016,0.59195 -4.77988,1.67608 -6.11014,3.30338c7.48914,1.77362 11.2825,2.70922 11.38007,2.75798c4.97717,1.77363 7.48911,4.23675 7.48911,7.44036z"/>
    </g>
   </g>
  </g>
 </g>

</svg>