<svg viewBox="0 0 180 26" fill="none" xmlns="http://www.w3.org/2000/svg">
<g clip-path="url(#clip0_84_462)">
<path d="M13.5939 20.5925H14.1773C14.2887 18.2293 13.9269 15.5666 13.1208 12.6325C12.0918 8.88421 10.6447 7.00883 8.75322 7.00883C8.66349 7.00883 8.57281 7.00726 8.48118 7.00568C7.72009 6.99253 6.89308 6.97824 5.99925 7.85117C5.35958 8.4221 4.69238 9.23753 3.94129 10.2694C3.98366 9.32195 4.0043 9.21771 4.00321 9.1137C4.00217 9.01491 3.98153 8.91632 3.94129 8.09568C3.88496 6.46603 3.66214 5.08089 3.32791 3.20551C2.90815 0.690433 2.11538 0.697151 1.11519 0.705626C1.05649 0.706124 0.997065 0.706628 0.936962 0.706628C0.686605 0.706628 0.491322 0.842335 0.353626 1.08684C0.214676 1.35825 0.130806 1.71156 0.103258 2.20058C0.0382325 3.21955 0.0386833 3.52369 0.0398557 4.31462C0.0407145 4.89396 0.0419604 5.73446 0.0181456 7.30836C-0.0318731 9.57741 0.0295834 9.97516 0.104484 10.4599C0.153314 10.776 0.207859 11.129 0.240954 12.0616C0.351125 15.5397 0.601482 17.8491 0.964499 19.0179C0.985346 19.0953 1.00431 19.1684 1.02232 19.2379C1.12437 19.6314 1.19609 19.908 1.4089 20.1854C1.42328 20.2065 1.4387 20.2299 1.45524 20.2549C1.63023 20.5198 1.93019 20.9739 2.43913 20.9739C2.81362 20.9739 2.84713 20.9612 2.99954 20.9031C3.07333 20.875 3.17499 20.8363 3.3567 20.7832C3.88496 20.6206 3.99636 20.5387 4.10778 20.4568C4.19166 20.3761 4.27427 20.2123 4.27427 20.2123C4.33406 19.8262 4.37582 19.397 4.42049 18.9378C4.54233 17.6856 4.68585 16.2106 5.27571 14.7793C5.86031 13.3392 6.36102 12.9308 8.55794 11.5738C9.64325 12.0897 10.3668 13.7194 10.7273 16.464C11.0903 19.2074 12.0354 20.5925 13.5939 20.5925Z" fill="#B1A095"/>
<path fill-rule="evenodd" clip-rule="evenodd" d="M27.6967 18.4469C30.84 16.464 32.426 14.2903 32.426 11.8721L32.4273 11.8721C32.4273 10.0786 31.3971 8.61159 29.3103 7.44406C27.5578 6.49292 25.6939 6.0039 23.6634 6.0039C23.1627 6.0039 22.662 6.22151 22.1062 6.65551C21.9105 6.79437 21.6699 6.98849 21.3696 7.23087C21.1992 7.36833 21.0096 7.52132 20.7981 7.68856C19.2365 8.70305 17.9408 10.0615 17.0151 11.6545C16.0975 13.2572 15.6244 14.9688 15.6244 16.7892C15.6244 18.2293 15.9023 19.288 16.4593 20.0216C17.0151 20.7551 18.0166 21.1096 19.4349 21.1096C22.0774 21.1096 24.8602 20.2123 27.6967 18.4469ZM28.2538 10.3782C28.9485 10.8403 29.2828 11.41 29.2828 12.1435L29.2828 12.1447C29.2828 13.4211 28.2263 14.6705 26.1395 15.9468C24.2205 17.1156 22.5781 17.7122 21.1874 17.7122C20.5201 17.7122 19.9643 17.5777 19.4912 17.3332C19.018 17.0887 18.7952 16.6547 18.7952 16.0557C18.7952 14.5617 19.6026 13.1215 21.2437 11.7364C22.8573 10.3513 24.4708 9.67153 26.0556 9.67153C26.8342 9.67153 27.5578 9.91604 28.2538 10.3782Z" fill="#B1A095"/>
<path d="M36.572 21.3542L37.4608 21.2722L37.4608 21.2735C37.4608 19.8064 37.3782 17.6058 37.2104 14.6986C37.1201 13.1062 37.0541 12.7623 37.0126 12.5462C36.9776 12.3641 36.9601 12.2728 36.9601 11.6019V8.83043C36.9601 7.74359 36.9325 6.76555 36.8775 5.84131C36.8211 4.91829 36.7385 4.07596 36.5983 3.26174C36.4594 2.44631 36.2378 1.82159 35.9586 1.35947C35.5858 0.80676 35.0393 0.387184 34.4014 0.16382C34.0947 0.245729 33.9282 0.436442 33.8443 0.734745C33.7617 1.03305 33.7342 1.38636 33.7342 1.79469V7.93186C33.7342 8.2351 33.7797 8.88287 33.8832 10.3533C33.919 10.863 33.9618 11.4714 34.0121 12.1985C34.0435 12.7156 34.0913 12.906 34.1538 13.1548C34.2554 13.5595 34.3958 14.1188 34.5679 16.4909C34.5968 16.8472 34.6239 17.181 34.6491 17.4924C34.8182 19.5789 34.9057 20.6582 34.9297 20.7294C35.0001 20.8516 35.0958 20.9582 35.2107 21.0424C35.3255 21.1266 35.457 21.1865 35.5969 21.2185C35.9141 21.3069 36.2422 21.3526 36.572 21.3542Z" fill="#B1A095"/>
<path d="M41.9961 3.77643C42.1901 3.50503 42.274 3.17861 42.274 2.7984C42.274 2.25436 42.0787 1.65777 41.7457 0.978037C41.3551 0.32642 40.9383 0 40.4376 0C40.0758 0 39.8255 0.162595 39.659 0.489016C39.4925 0.815436 39.4086 1.16875 39.4086 1.52085C39.4086 2.09177 39.5751 2.6896 39.9093 3.28742C40.2435 3.91214 40.6604 4.21044 41.1611 4.21044C41.5229 4.21044 41.8008 4.07474 41.9961 3.77643Z" fill="#B1A095"/>
<path d="M44.054 17.3601C44.1379 16.2195 44.1642 14.8612 44.1642 13.2572H44.1654L44.1091 11.7902C44.1091 11.41 43.9151 10.7315 43.4707 9.78034C43.0251 8.8292 42.6633 8.34018 42.3566 8.34018C42.2176 8.34018 41.9961 8.39397 41.6618 8.504C41.0772 8.6935 40.6604 8.8023 40.4376 8.8023C40.4376 9.42702 40.3825 10.3231 40.2986 11.5457C40.2148 12.7682 40.1597 13.6643 40.1597 14.2634C40.1565 15.1861 40.259 16.1063 40.4651 17.0068C40.6062 17.5144 40.725 17.9512 40.8241 18.3155C41.0378 19.1015 41.1597 19.5499 41.2162 19.6426C41.6055 20.3761 42.3841 20.8113 43.4982 20.9458C43.8037 19.6964 43.9702 18.5007 44.054 17.3601Z" fill="#B1A095"/>
<path fill-rule="evenodd" clip-rule="evenodd" d="M59.9729 8.17583C59.9932 7.03513 59.9932 7.03495 59.9932 4.72757L59.9945 4.72635C59.9945 3.7202 59.7992 2.87909 59.3811 2.17246C58.9643 1.46583 58.3246 0.949919 57.4345 0.596606C56.5996 1.43894 56.1552 2.06366 56.0713 4.80704C55.9875 7.55166 55.8761 7.98566 55.7371 8.44777C55.1816 8.28999 54.7224 8.18815 54.3754 8.1112C54.3056 8.09573 54.2404 8.08127 54.1799 8.06756C53.8181 7.98566 53.4012 7.95875 52.9005 7.95875C51.3145 7.95875 49.7573 8.91111 48.2263 10.8403C46.808 12.6337 46.0845 14.3453 46.0845 15.9468C46.0845 17.2782 46.5576 18.4738 47.5316 19.5326C48.5054 20.5925 49.6458 21.1096 50.9803 21.1096C52.0599 21.1222 53.1243 20.8597 54.0685 20.348C55.086 19.8109 56.0792 19.2309 57.0452 18.6096C57.407 18.6096 57.9077 18.6633 58.6025 18.7734C58.9387 18.8275 59.2113 18.8683 59.4169 18.8991C59.62 18.9295 59.7577 18.9501 59.8267 18.9641C59.8267 18.6047 59.8449 17.3143 59.8762 15.0874C59.8995 13.4358 59.93 11.269 59.9657 8.58469C59.9683 8.43259 59.9707 8.2977 59.9729 8.17583ZM55.8485 11.4919C56.1552 11.8183 56.2942 12.2254 56.2942 12.7144C56.2942 13.5299 55.7096 14.6167 54.5141 15.9468C53.3462 17.2782 52.3159 17.931 51.481 17.931C51.0091 17.931 50.646 17.7684 50.3957 17.4139C50.1453 17.0875 50.0076 16.6804 50.0076 16.2195C50.0076 15.1595 50.5359 14.0458 51.5649 12.8232C52.6214 11.6007 53.6516 11.0029 54.7094 11.0029C54.9244 10.9972 55.1381 11.0381 55.3351 11.1227C55.532 11.2072 55.7074 11.3333 55.8485 11.4919Z" fill="#B1A095"/>
<path fill-rule="evenodd" clip-rule="evenodd" d="M74.4315 19.3431C74.5429 18.6915 74.598 17.9848 74.598 17.1975C74.598 12.8232 74.2087 9.53584 73.4576 7.38905C72.679 5.21659 71.5098 4.12975 69.9526 4.12975C68.4504 4.12975 66.6415 5.81442 64.4997 9.23754C62.4693 12.4699 61.4679 14.9688 61.4679 16.7623C61.4679 18.0129 61.7458 19.0448 62.3028 19.859C62.8861 20.6475 63.7774 21.0546 65.0292 21.0546C65.3622 21.0546 66.3361 20.5656 67.9221 19.5338C69.5069 18.502 70.3694 17.876 70.4533 17.6584C71.093 18.9091 71.5098 19.6426 71.7339 19.8871C72.2642 20.5689 73.021 21.0492 73.8745 21.2454C74.1403 20.6363 74.3274 19.9973 74.4315 19.3431ZM70.5922 8.23137C70.6198 8.4221 70.6198 8.58592 70.6198 8.7204C70.6198 10.4051 70.0915 12.0078 69.0625 13.5299C68.0335 15.0507 66.6966 16.0019 65.0568 16.3539V15.975C65.0568 15.3221 65.5575 14.0189 66.5314 12.0897C67.504 10.1605 68.2551 8.93801 68.7846 8.4221C69.0502 8.17904 69.3385 7.96087 69.6459 7.77048C69.9801 7.57977 70.258 7.47096 70.4808 7.47096C70.4861 7.49887 70.4913 7.52653 70.4965 7.55391C70.5469 7.82035 70.5922 8.05954 70.5922 8.23137Z" fill="#B1A095"/>
<path d="M87.0322 14.8881C88.5631 10.8941 89.3142 8.53091 89.3142 7.8524L89.3142 7.85118C89.3142 6.95506 89.1189 6.19463 88.7296 5.5149C88.2564 4.72636 87.5892 4.26546 86.7818 4.10286L86.2548 4.48185C85.8091 6.30343 85.3635 7.93309 84.8903 9.37202C84.3599 10.9861 83.7474 12.5733 83.0552 14.1277C82.3867 13.5018 81.5255 12.2523 80.4114 10.3782C78.7152 7.49786 76.8788 5.8951 74.9322 5.56991C74.9322 6.92815 75.4605 8.4221 76.5183 10.0249C77.0045 10.6769 77.4841 11.3358 77.9638 11.9946C78.4437 12.6537 78.9235 13.3127 79.4099 13.9651C80.4402 15.486 81.3289 16.9249 81.3289 18.2562C81.3289 18.3152 81.329 18.3709 81.3292 18.4238C81.3308 19.2007 81.3311 19.3699 80.9409 20.1585C80.7378 20.5676 80.5744 20.8357 80.4153 21.0965C80.2468 21.3727 80.0834 21.6408 79.8831 22.0596C79.4663 22.875 78.9931 23.8799 78.9931 24.5597C78.9931 25.0487 79.1884 25.4289 79.5777 25.6453C79.9945 25.8898 80.4677 25.9998 80.996 25.9998C81.3797 26.005 81.7567 25.9014 82.0813 25.7015C82.3867 25.5108 82.6646 25.2125 82.8874 24.858C82.9832 24.7103 83.0581 24.6064 83.1265 24.5113C83.4352 24.0825 83.6132 23.8352 85.0017 20.5656C85.944 18.3491 86.0546 17.9236 86.1948 17.3844C86.3072 16.9522 86.4385 16.4469 87.0322 14.8881Z" fill="#B1A095"/>
<path fill-rule="evenodd" clip-rule="evenodd" d="M106.282 17.4689C106.282 18.6365 105.226 19.6145 103.112 20.4299C101.387 21.0816 99.8293 21.3811 98.3547 21.3811C96.0176 21.3811 94.0986 20.8921 92.5964 19.8871C90.8439 18.7184 89.9539 17.0337 89.9539 14.86C89.9539 12.7695 90.8439 10.8672 92.6515 9.15566C94.4328 7.4441 96.4357 6.60055 98.605 6.60055C100.023 6.60055 101.387 7.11768 102.638 8.17763C103.918 9.23635 104.53 10.4589 104.53 11.8184C104.53 13.4199 102.222 14.4798 97.6324 14.942C96.0204 15.076 94.8001 15.1688 93.9575 15.2329C93.4326 15.2728 93.0542 15.3015 92.8192 15.3222V15.975C92.8192 16.5716 93.3475 17.0875 94.4328 17.5228C95.3504 17.903 96.1565 18.0668 96.9076 18.0668C97.8265 18.0668 98.9668 17.8223 100.33 17.3333C100.627 17.2268 100.925 17.1204 101.224 17.0135C102.301 16.6288 103.399 16.2368 104.53 15.8112C104.948 15.8112 105.337 15.975 105.727 16.3002C106.116 16.6804 106.282 17.0337 106.282 17.4689ZM101.331 11.5176C101.331 10.9748 100.968 10.5127 100.246 10.1594C99.5226 9.80605 98.8554 9.61656 98.2158 9.61656C97.4083 9.61656 96.6573 9.86107 95.935 10.377C95.5169 10.6753 94.9335 11.2193 94.1824 12.0335C95.239 12.278 96.4357 12.4137 97.7989 12.4137C98.3272 12.4137 98.9105 12.3868 99.5514 12.3061C100.149 12.2456 100.743 12.1546 101.331 12.0335L101.331 11.5176Z" fill="#B1A095"/>
<path d="M120.275 19.37L120.275 20.8908C119.274 20.6463 118.328 20.1304 117.466 19.2881C115.35 17.2501 113.515 16.1902 113.265 16.0814C112.709 17.0056 111.847 18.1475 110.677 19.4776C110.388 19.8178 110.091 20.1577 109.794 20.4974C109.521 20.8093 109.248 21.1218 108.981 21.4337C108.815 21.2442 108.536 20.9446 108.203 20.5913C107.563 19.9397 107.229 19.4238 107.229 19.0155C107.229 18.3638 108.035 17.0594 109.621 15.1314C110.372 14.2341 110.734 13.4199 110.734 12.6864C110.734 12.1775 110.133 11.5753 109.445 10.8855C108.958 10.3969 108.427 9.86443 108.035 9.29013C107.117 7.90499 106.645 7.00764 106.645 6.60054C106.645 6.22033 106.728 5.89391 106.867 5.56749C106.934 5.41684 107.038 5.28411 107.169 5.18035C107.299 5.07658 107.453 5.00477 107.618 4.97089C107.952 5.07848 108.453 5.5406 109.065 6.35604C110.349 8.03757 112.107 9.12556 112.886 9.60835C113.052 9.71104 113.174 9.78635 113.237 9.83417C113.812 8.52583 114.206 7.67825 114.398 7.26687C114.457 7.14009 114.497 7.05474 114.517 7.01009C115.268 5.73254 116.075 5.0797 116.909 5.0797C117.243 5.0797 117.522 5.21662 117.716 5.48803C117.91 5.75943 117.994 6.19465 117.994 6.84505C117.994 7.8512 117.716 8.85614 117.187 9.88918C116.659 10.8941 116.103 11.9259 115.547 12.9578C115.547 13.0668 115.857 13.3653 116.363 13.8529C116.991 14.4586 117.923 15.3561 118.939 16.5447C119.831 17.5778 120.275 18.5008 120.275 19.37Z" fill="#B1A095"/>
<path d="M136.576 7.498C136.373 7.21593 136.003 6.85324 135.48 6.42188C135.269 6.15311 135.023 5.93969 134.741 5.78755C134.675 5.75153 134.606 5.71842 134.533 5.68816C134.456 5.63125 134.376 5.57354 134.295 5.51504C134.264 5.53286 134.23 5.55284 134.195 5.57476C133.833 5.47812 133.403 5.43301 132.904 5.43301C132.738 5.43301 132.404 5.43301 131.931 5.46113C131.457 5.48802 131.097 5.48802 130.874 5.48802C130.485 5.48802 130.15 5.46113 129.873 5.40612C129.566 5.35232 129.288 5.27041 129.038 5.13471L129.031 5.12153C129.002 5.06335 128.95 4.9599 128.899 4.80829C128.829 4.67367 128.79 4.52531 128.787 4.37429C128.787 4.07484 128.787 3.83021 128.703 3.55886C128.697 3.53654 128.69 3.51479 128.684 3.49314C128.613 3.25042 128.545 3.02077 128.009 2.17371C127.647 1.57138 127.138 1.49283 126.484 1.39172C126.283 1.36067 126.068 1.3275 125.839 1.27637C125.814 1.41326 125.792 1.50724 125.773 1.58795C125.727 1.7797 125.699 1.89668 125.699 2.33631C125.699 2.3503 125.705 2.38456 125.713 2.43525C125.737 2.57948 125.783 2.8567 125.783 3.17864C125.807 3.77446 125.642 4.363 125.31 4.86331C124.809 5.54182 123.975 5.89513 122.779 5.89513C122.222 5.89513 121.583 5.84134 120.832 5.73254C120.713 5.73254 120.258 5.65462 119.446 5.51583L118.968 5.43424C118.936 5.59831 118.909 5.74317 118.885 5.86715L118.884 5.87145C118.846 6.07319 118.818 6.21919 118.8 6.30224V6.79126C118.8 8.36712 119.774 9.20945 121.75 9.37327C123.725 9.53587 124.698 10.3232 124.698 11.7095C124.698 12.1448 124.615 13.2304 124.447 14.9689C124.365 15.7305 124.337 16.3821 124.337 16.9249C124.337 18.6096 124.587 19.7502 125.088 20.403C125.533 20.9459 126.172 21.2173 127.035 21.2173H127.731C127.537 20.5926 127.424 19.9409 127.424 19.2893C127.436 18.579 127.502 17.8705 127.619 17.1694C127.897 15.2684 128.036 14.0727 128.036 13.5837V12.0066C128.037 11.5953 128.084 11.1854 128.176 10.7841C128.787 10.0237 130.095 9.61656 132.069 9.56154C132.551 9.54843 132.979 9.50782 133.355 9.44014L133.711 10.8123C133.81 11.7112 133.904 12.6044 133.998 13.4921C134.114 14.5903 134.228 15.6809 134.352 16.7624C134.74 19.7784 135.491 21.2724 136.605 21.2724C137.133 21.2724 138.023 20.2393 139.303 18.1757C141.111 15.2954 142.363 13.3931 143.114 12.4689C144.782 10.4321 146.369 9.40027 147.899 9.40027C148.093 9.40027 148.343 9.45406 148.705 9.56286C149.344 9.75236 149.734 9.86238 149.874 9.86238C150.124 9.86238 150.318 9.72546 150.514 9.50907C150.688 9.32291 150.786 9.08133 150.792 8.82934C150.792 7.87819 150.124 7.14468 148.816 6.65566C147.899 6.30235 146.841 6.13975 145.673 6.13975C143.643 6.13975 142.057 6.71068 140.889 7.85131C139.821 9.16198 138.746 10.4661 137.661 11.7634C137.3 11.0018 137.077 10.459 137.022 10.1338C136.958 9.65639 136.93 9.17503 136.939 8.69365C136.939 8.23152 136.799 7.82442 136.576 7.498Z" fill="#B1A095"/>
<path fill-rule="evenodd" clip-rule="evenodd" d="M161.911 17.6907C161.916 17.5298 161.919 17.3656 161.919 17.1976C161.919 12.8234 161.53 9.56287 160.75 7.38918C159.971 5.21672 158.831 4.12988 157.245 4.12988C155.742 4.12988 153.935 5.81333 151.793 9.23646C149.761 12.4701 148.76 14.969 148.76 16.7624C148.76 18.0388 149.039 19.0718 149.624 19.8591C150.207 20.6477 151.098 21.0548 152.35 21.0548C152.683 21.0548 153.657 20.5658 155.242 19.5339C156.828 18.5021 157.69 17.8762 157.774 17.6585C158.414 18.9092 158.831 19.6427 159.053 19.8872C159.584 20.5693 160.341 21.0496 161.195 21.2455C161.288 21.0331 161.371 20.8171 161.444 20.598C161.765 20.8945 162.192 21.1206 162.726 21.2727C163.449 21.4622 164.033 21.571 165.731 21.571C169.291 21.571 172.184 21.2996 174.381 20.7556C178.136 19.8057 180 18.1479 180 15.7309C180 13.9644 178.582 12.6061 175.771 11.6281C175.716 11.6012 173.574 11.0853 169.346 10.1073C170.097 9.20991 171.237 8.61208 172.796 8.28566C173.017 8.23186 174.353 8.06927 176.802 7.79665C176.551 6.87363 176.078 6.167 175.354 5.7061C174.631 5.24398 173.741 5.02637 172.712 5.02637C171.043 5.02637 169.485 5.51538 168.039 6.46652C166.369 7.55214 165.562 8.82969 165.562 10.3518C165.562 11.4924 165.925 12.4154 166.676 13.122C167.538 13.9644 169.095 14.5891 171.349 15.0243C171.863 15.1945 172.383 15.3487 172.907 15.4864C173.387 15.6187 173.882 15.6914 174.381 15.7028L174.742 16.0023C173.883 16.8425 172.822 17.4587 171.655 17.7946C170.709 18.0672 169.485 18.2029 168.039 18.2029C167.198 18.2029 166.489 18.125 164.853 17.9453L164.728 17.9315C163.611 17.8081 162.67 17.7302 161.911 17.6907ZM157.913 8.23151C157.941 8.42223 157.941 8.58605 157.941 8.72054C157.941 10.4321 157.412 12.0348 156.383 13.53C155.353 15.0509 154.017 16.002 152.378 16.3541V15.9751C152.378 15.3223 152.878 14.019 153.851 12.0899C154.825 10.1876 155.576 8.93815 156.104 8.42224C156.37 8.17869 156.659 7.96011 156.967 7.7694C157.328 7.5799 157.579 7.47109 157.8 7.47109L157.819 7.56733C157.868 7.82765 157.913 8.06261 157.913 8.23151Z" fill="#B1A095"/>
</g>
<defs>
<clipPath id="clip0_84_462">
<rect width="100%" height="100%" fill="white"/>
</clipPath>
</defs>
</svg>
