<svg viewBox="0 0 120 26" fill="none" xmlns="http://www.w3.org/2000/svg">
<g clip-path="url(#clip0_84_471)">
<path fill-rule="evenodd" clip-rule="evenodd" d="M42.8481 12.9532C42.8481 4.96476 47.4484 0 54.8439 0C60.0322 0 64.0415 2.33862 65.8465 6.58392L62.3509 8.0944C61.3941 5.21652 58.4861 3.38138 54.8439 3.38138C49.6556 3.38138 46.6749 6.87144 46.6749 12.9532C46.6749 19.0336 49.6556 22.5237 54.8439 22.5237C58.4861 22.5237 61.3941 20.6886 62.3509 17.8107L65.8465 19.3212C64.0432 23.5664 60.0322 25.9064 54.8439 25.9064C47.4484 25.9064 42.8481 20.9403 42.8481 12.9532ZM3.68019 0.359375H0V25.5477H16.7268V22.165H3.68019V0.359375ZM28.7943 0.359375L18.5654 25.5464H22.5382L24.8566 19.609H36.1898L38.5082 25.5464H42.4826L32.2536 0.359375H28.7943ZM34.8295 16.2276H26.2184L30.0829 6.36825H30.965L34.8295 16.2276ZM87.3694 0.359375H69.7068V25.5477H87.3694V22.165H73.387V14.2852H84.7935V10.9025H73.387V3.74212H87.3694V0.359375ZM91.0469 0.359375H100.724C107.42 0.359375 113.124 4.56889 113.124 12.9536C113.124 21.3369 107.42 25.5477 100.724 25.5477H91.0469V0.359375ZM101.093 22.165C105.618 22.165 109.298 18.9982 109.298 12.9536C109.298 6.90889 105.618 3.74212 101.093 3.74212H94.7271V22.165H101.093ZM119.934 22.8043C119.934 24.5502 118.487 25.9656 116.701 25.9656C114.916 25.9656 113.468 24.5502 113.468 22.8043C113.468 21.0584 114.916 19.6431 116.701 19.6431C118.487 19.6431 119.934 21.0584 119.934 22.8043Z" fill="#B1A095"/>
</g>
<defs>
<clipPath id="clip0_84_471">
<rect width="100%" height="100%" fill="white"/>
</clipPath>
</defs>
</svg>
