<svg viewBox="0 0 130 31" fill="none" xmlns="http://www.w3.org/2000/svg">
<g clip-path="url(#clip0_161_707)">
<path d="M25.9062 7.7927C25.3199 7.28549 24.6181 6.91457 23.7974 6.68512C22.9766 6.45395 22.0858 6.33836 21.1268 6.33836C19.8615 6.33836 18.7659 6.63854 17.8402 7.23891C16.9144 7.83928 16.1811 8.53281 15.6438 9.31777C15.1521 8.21019 14.431 7.43558 13.4825 6.99738C12.5305 6.55746 11.4822 6.33836 10.3341 6.33836C9.13883 6.33836 8.0783 6.59196 7.15251 7.1009C6.22673 7.60983 5.4357 8.32578 4.77942 9.24876H4.70942V6.82487H0V24.7289H4.99118V14.3381C4.99118 13.4617 5.12069 12.7509 5.37795 12.2075C5.63521 11.6658 5.94497 11.25 6.30898 10.9602C6.67124 10.672 7.04751 10.4754 7.43427 10.3719C7.82104 10.2684 8.1308 10.2166 8.36531 10.2166C9.16159 10.2166 9.76536 10.3494 10.1749 10.6151C10.5844 10.8808 10.8784 11.2327 11.0534 11.6709C11.2284 12.1091 11.3282 12.5887 11.3509 13.108C11.3737 13.6273 11.3877 14.1535 11.3877 14.6831V24.7272H16.3806V14.7521C16.3806 14.1983 16.4209 13.6497 16.5031 13.1063C16.5854 12.5646 16.7499 12.0798 16.9949 11.652C17.2416 11.2258 17.5811 10.8791 18.0152 10.6134C18.4492 10.3477 19.0179 10.2149 19.7197 10.2149C20.4232 10.2149 20.9798 10.3305 21.3893 10.5616C21.7988 10.7928 22.1103 11.1051 22.3203 11.4967C22.5321 11.89 22.6598 12.3507 22.7071 12.882C22.7526 13.4134 22.7771 13.9792 22.7771 14.5796V24.7272H27.7683V12.744C27.7683 11.5898 27.6038 10.603 27.2765 9.78357C26.9475 8.96583 26.4907 8.30163 25.9062 7.7927ZM46.7092 23.0676C46.6147 22.3292 46.5692 21.5563 46.5692 20.7472V11.4311C46.5692 10.346 46.3224 9.47476 45.8307 8.81574C45.3389 8.15844 44.7054 7.64433 43.9336 7.27514C43.1601 6.90595 42.3043 6.65752 41.368 6.52986C40.43 6.40392 39.5059 6.34009 38.5907 6.34009C37.5826 6.34009 36.5816 6.43842 35.5858 6.63509C34.59 6.83177 33.694 7.16128 32.8977 7.6219C32.0997 8.08426 31.4434 8.69497 30.9289 9.45751C30.4126 10.22 30.1204 11.1775 30.0503 12.3317H35.0415C35.1343 11.3621 35.4633 10.6686 36.0251 10.2528C36.5886 9.83705 37.3621 9.63003 38.3457 9.63003C38.7902 9.63003 39.2067 9.65936 39.5934 9.71629C39.9802 9.77495 40.3197 9.88881 40.612 10.0631C40.9042 10.2356 41.1405 10.4788 41.3155 10.7911C41.4923 11.1033 41.5798 11.5243 41.5798 12.0557C41.6025 12.5646 41.4503 12.951 41.123 13.2167C40.794 13.4824 40.3495 13.6842 39.7877 13.8222C39.2259 13.9603 38.5802 14.0655 37.8556 14.1345C37.1276 14.2035 36.3908 14.2967 35.6401 14.4123C34.8893 14.5279 34.1455 14.6831 33.4087 14.8798C32.6702 15.0765 32.0139 15.3715 31.4399 15.7631C30.8659 16.1564 30.3969 16.6809 30.0346 17.3382C29.6723 17.9955 29.4903 18.8339 29.4903 19.8501C29.4903 20.7731 29.6478 21.5701 29.9646 22.2395C30.2814 22.9088 30.7206 23.4644 31.2824 23.9026C31.8459 24.3408 32.5004 24.6651 33.2512 24.8721C34.0002 25.0791 34.8088 25.1844 35.6768 25.1844C36.8021 25.1844 37.9029 25.0222 38.9809 24.6996C40.059 24.377 40.9952 23.8111 41.7915 23.002C41.816 23.3022 41.8563 23.5972 41.914 23.8853C41.9735 24.1751 42.0488 24.4563 42.1433 24.7341H47.2045C46.9665 24.3597 46.8037 23.8059 46.7092 23.0676ZM41.578 17.8023C41.578 18.08 41.5483 18.4492 41.4905 18.9098C41.431 19.3722 41.2735 19.8276 41.0163 20.2779C40.759 20.7282 40.36 21.1146 39.821 21.439C39.2819 21.7633 38.5207 21.9238 37.5354 21.9238C37.1364 21.9238 36.7496 21.8893 36.3751 21.8202C36.0006 21.7512 35.6716 21.6305 35.3915 21.4562C35.1098 21.2837 34.8875 21.0474 34.723 20.7454C34.5585 20.4453 34.478 20.0761 34.478 19.6379C34.478 19.1755 34.5585 18.796 34.723 18.4958C34.8875 18.1956 35.1045 17.9472 35.374 17.7505C35.6418 17.5538 35.9586 17.3986 36.3226 17.283C36.6866 17.1674 37.0541 17.076 37.4304 17.0052C37.8294 16.9362 38.2266 16.8793 38.6257 16.8327C39.0247 16.7861 39.4044 16.7292 39.7685 16.6602C40.1325 16.5912 40.472 16.5049 40.7887 16.3997C41.1055 16.2944 41.3698 16.1513 41.5798 15.9667V17.8023H41.578ZM49.0228 25.3534C49.0228 26.0228 48.8303 26.4558 48.4418 26.6525C48.055 26.8492 47.6035 26.9475 47.089 26.9475C46.6445 26.9475 46.2927 26.9009 46.0337 26.8095V30.862C46.5027 30.9534 47.0295 31 47.614 31C48.8793 31 49.9223 30.8896 50.7431 30.6705C51.5639 30.4514 52.2132 30.1167 52.6944 29.6664C53.1757 29.2161 53.5152 28.6555 53.7147 27.9861C53.9142 27.3167 54.014 26.5197 54.014 25.5967V6.82314H49.0228V25.3534ZM49.0228 4.05248H54.014V0H49.0228V4.05248ZM73.6164 12.9873C73.2874 11.7175 72.7554 10.5858 72.0169 9.5938C71.2784 8.60181 70.3351 7.80995 69.187 7.22166C68.039 6.63337 66.6914 6.33836 65.1444 6.33836C63.7601 6.33836 62.5018 6.58161 61.366 7.06639C60.2285 7.55117 59.2519 8.21537 58.4311 9.05727C57.6104 9.90089 56.9786 10.8998 56.5341 12.0539C56.0896 13.2081 55.8655 14.4554 55.8655 15.7941C55.8655 17.1795 56.0825 18.4492 56.5166 19.6034C56.9506 20.7575 57.5649 21.7512 58.3629 22.5828C59.1592 23.4143 60.1322 24.0544 61.2802 24.5046C62.4283 24.9549 63.7181 25.1792 65.1461 25.1792C67.2077 25.1792 68.9648 24.7168 70.4191 23.7939C71.8716 22.8709 72.9497 21.3355 73.6532 19.1876H69.2605C69.096 19.7414 68.6498 20.2676 67.9235 20.7627C67.1972 21.2596 66.3292 21.508 65.3229 21.508C63.9176 21.508 62.8395 21.1509 62.0888 20.4349C61.338 19.719 60.9285 18.5648 60.8585 16.9707H73.97C74.0627 15.5854 73.9455 14.2587 73.6164 12.9873ZM60.8567 13.8533C60.8812 13.5065 60.9565 13.1149 61.086 12.675C61.2137 12.2368 61.4377 11.821 61.7528 11.4277C62.0695 11.0361 62.4913 10.7066 63.0181 10.4409C63.5448 10.1752 64.2081 10.0424 65.0044 10.0424C66.2224 10.0424 67.1307 10.3667 67.7292 11.0119C68.3277 11.6589 68.7425 12.6043 68.977 13.8516L60.8567 13.8533ZM90.3243 15.4646C89.7853 15.0834 89.1693 14.778 88.4797 14.5468C87.7885 14.3157 87.0797 14.1207 86.3534 13.9585C85.6499 13.7964 84.9586 13.6463 84.2796 13.5083C83.5988 13.3702 82.9968 13.2133 82.47 13.0407C81.9432 12.8682 81.5145 12.6422 81.1872 12.3662C80.8582 12.0884 80.6955 11.7313 80.6955 11.2931C80.6955 10.9239 80.79 10.6289 80.9772 10.4098C81.1645 10.1907 81.3937 10.0234 81.6632 9.90779C81.9327 9.7922 82.232 9.71801 82.561 9.68351C82.8883 9.64901 83.1928 9.63176 83.4746 9.63176C84.3653 9.63176 85.1389 9.7991 85.7951 10.1338C86.4514 10.4685 86.8154 11.1102 86.8854 12.0557H91.6299C91.5354 10.9481 91.2483 10.0303 90.7688 9.30224C90.2893 8.57421 89.6855 7.99282 88.9593 7.5529C88.233 7.1147 87.4069 6.80244 86.4812 6.61784C85.5554 6.43325 84.5998 6.34009 83.6163 6.34009C82.6328 6.34009 81.6702 6.42635 80.734 6.60059C79.7959 6.77311 78.9524 7.07329 78.2034 7.50114C77.4526 7.92899 76.8506 8.5121 76.392 9.25049C75.9353 9.99059 75.706 10.936 75.706 12.0902C75.706 12.8751 75.8705 13.5393 76.1978 14.081C76.5268 14.6245 76.9591 15.0747 77.4981 15.4319C78.0371 15.7907 78.6514 16.0788 79.3444 16.2979C80.0357 16.517 80.7445 16.7085 81.4707 16.8689C83.2523 17.2381 84.6401 17.609 85.6359 17.9765C86.6317 18.3457 87.1304 18.8995 87.1304 19.6396C87.1304 20.0778 87.0254 20.4418 86.8137 20.7299C86.6019 21.018 86.3394 21.2492 86.0226 21.4217C85.7059 21.5942 85.3559 21.7219 84.9674 21.803C84.5806 21.8841 84.2113 21.9238 83.8613 21.9238C83.3695 21.9238 82.8935 21.8668 82.4385 21.7512C81.9817 21.6357 81.5775 21.4562 81.2257 21.2147C80.874 20.9714 80.587 20.6609 80.3647 20.2796C80.1424 19.8984 80.0304 19.4429 80.0304 18.9116H75.286C75.3315 20.1123 75.608 21.1112 76.112 21.9082C76.6161 22.7053 77.2601 23.3453 78.0459 23.8301C78.8299 24.3149 79.7259 24.6616 80.734 24.8687C81.742 25.0757 82.7728 25.1809 83.8281 25.1809C84.8589 25.1809 85.8721 25.0826 86.8679 24.8859C87.8637 24.6892 88.7492 24.3494 89.5228 23.8646C90.2963 23.3798 90.9228 22.7398 91.4041 21.9427C91.8836 21.1457 92.1251 20.1589 92.1251 18.9823C92.1251 18.1508 91.9606 17.4538 91.6334 16.8862C91.2973 16.3186 90.8633 15.8459 90.3243 15.4646ZM100.062 1.45434H95.0705V6.82314H92.0464V10.1131H95.0705V20.6764C95.0705 21.577 95.2227 22.305 95.5272 22.8588C95.8318 23.4126 96.2483 23.8404 96.775 24.1406C97.3018 24.4408 97.9108 24.6427 98.6021 24.7462C99.2934 24.8497 100.025 24.9014 100.798 24.9014C101.29 24.9014 101.794 24.8894 102.309 24.8669C102.823 24.8445 103.292 24.7979 103.716 24.7289V20.9197C103.481 20.9663 103.236 21.0008 102.977 21.0232C102.72 21.0456 102.45 21.0577 102.169 21.0577C101.325 21.0577 100.763 20.9197 100.482 20.6419C100.2 20.3642 100.06 19.8104 100.06 18.9789V10.1131H103.716V6.82314H100.06L100.062 1.45434ZM105.392 4.05248H110.384V0H105.392V4.05248ZM105.392 24.7289H110.384V6.82314H105.392V24.7289ZM125.186 17.8713C125.021 18.9789 124.617 19.8621 123.973 20.5212C123.329 21.1785 122.408 21.508 121.213 21.508C120.439 21.508 119.783 21.3355 119.244 20.9887C118.705 20.6419 118.278 20.1986 117.961 19.6551C117.645 19.1134 117.417 18.5061 117.275 17.8368C117.135 17.1674 117.064 16.5101 117.064 15.8632C117.064 15.1938 117.135 14.5175 117.275 13.8378C117.417 13.1563 117.655 12.5335 117.996 11.9677C118.336 11.4018 118.775 10.9412 119.314 10.5823C119.853 10.2252 120.52 10.0458 121.318 10.0458C123.45 10.0458 124.68 11.074 125.009 13.1287H129.895C129.825 11.9746 129.543 10.9757 129.051 10.1321C128.56 9.29017 127.921 8.58456 127.135 8.0187C126.349 7.45283 125.459 7.03189 124.465 6.75413C123.469 6.47638 122.431 6.33836 121.355 6.33836C119.878 6.33836 118.565 6.58161 117.417 7.06639C116.269 7.55117 115.296 8.22745 114.5 9.09177C113.702 9.95781 113.098 10.986 112.688 12.1747C112.279 13.3633 112.072 14.6503 112.072 16.0357C112.072 17.3744 112.295 18.6045 112.741 19.7241C113.185 20.8438 113.807 21.8082 114.603 22.6156C115.399 23.4247 116.365 24.0526 117.503 24.5029C118.64 24.9532 119.886 25.1775 121.246 25.1775C123.66 25.1775 125.641 24.5547 127.188 23.3074C128.735 22.06 129.671 20.2486 130 17.8696L125.186 17.8713Z" fill="#B1A095"/>
</g>
<defs>
<clipPath id="clip0_161_707">
<rect width="100%" height="100%" fill="white"/>
</clipPath>
</defs>
</svg>
