<svg width="325" height="132" xmlns="http://www.w3.org/2000/svg" version="1.1">
 <!-- Generator: Sketch 52.6 (67491) - http://www.bohemiancoding.com/sketch -->

 <title>placeholder</title>
 <desc>Created with Sketch.</desc>
 <g>
  <title>Layer 1</title>
  <g stroke="null">
   <!-- Generator: Sketch 48.2 (47327) - http://www.bohemiancoding.com/sketch -->
   <title stroke="null">Combined Shape</title>
   <desc stroke="null">Created with Sketch.</desc>

   <g stroke="null" transform="translate(-153 -9)" fill-rule="evenodd" fill="none" id="svg_1">
    <g stroke="null" fill="#BE1421" transform="translate(153 9)" id="svg_2">
     <path stroke="null" id="svg_3" d="m105.6145,86.63025c-1.10625,2.75197 -2.23309,5.12459 -3.36496,7.12053c-1.13811,1.99866 -2.45531,3.64276 -3.95204,4.93869c-1.49889,1.29376 -3.20021,2.25221 -5.11522,2.87291c-1.91284,0.61923 -4.14525,0.93094 -6.69574,0.93094c-1.44141,0 -2.6172,-0.06779 -3.53525,-0.20256c-0.91316,-0.13478 -1.84044,-0.3372 -2.78479,-0.60742l2.49504,-10.52142c0.38765,0.10631 0.81514,0.21341 1.28874,0.32269c0.47075,0.10712 0.9274,0.16379 1.37186,0.16379c1.9413,0 3.39763,-0.36635 4.36746,-1.09404c0.97066,-0.72781 1.6757,-1.7146 2.12015,-2.95453l0.49991,-1.78241l-15.80341,-39.01247l14.3045,0l4.99158,15.53969c0.60931,1.89223 1.1347,3.76439 1.57997,5.62759c0.44444,1.86119 0.91519,3.81781 1.41225,5.86691l0.33517,0c0.4416,-1.94199 0.87262,-3.85645 1.29158,-5.74867c0.41245,-1.88599 0.86897,-3.80316 1.36887,-5.74583l4.16234,-15.53969l13.63716,0l-13.97517,39.8253zm-30.72862,0.64688l-12.97537,0l0,-15.54037c0,-1.34975 0.06602,-2.83345 0.20799,-4.45274c0.13857,-1.61929 0.2919,-3.27805 0.45665,-4.97884c0.16757,-1.70078 0.36066,-3.35953 0.58356,-4.97801c0.21938,-1.61996 0.41544,-3.07616 0.58017,-4.37193l-0.33232,0l-4.48895,12.62785l-6.6552,17.40427l-7.65149,0l-6.6552,-17.40427l-4.32422,-12.62785l-0.33232,0c0.16473,1.29578 0.35796,2.75197 0.58086,4.37193c0.22221,1.61848 0.41611,3.27724 0.58287,4.97801c0.16487,1.70079 0.31822,3.35954 0.45665,4.97884c0.13843,1.61929 0.20799,3.103 0.20799,4.45274l0,15.54037l-12.80779,0l0,-52.61357l15.30363,0l8.15125,21.53012c0.49991,1.45618 0.97066,2.96904 1.41238,4.53235c0.44514,1.56818 0.91588,3.13147 1.4158,4.69395l0.33231,0c0.4991,-1.56248 0.97066,-3.12578 1.41225,-4.69395c0.44527,-1.56331 0.91602,-3.07617 1.4158,-4.53235l7.81905,-21.53012l15.30365,0l0,52.61357zm-58.33241,-70.62532c18.07066,-17.1983 86.16263,-18.91847 102.22676,0c16.06334,18.91908 16.06334,78.37753 0,97.29668c-16.06413,18.91849 -84.1561,17.1983 -102.22676,0c-18.07135,-17.19829 -18.07135,-80.09491 0,-97.29668zm175.01187,52.01422l-2.43335,0.00203l18.54224,18.02077l-18.57843,0.01585l-31.65021,-30.76332l32.63727,0.00406l-0.01004,-9.84145l-35.75787,0.02074l0.03131,40.59448l-12.67651,0.01532l-0.46075,0l-0.05679,0l0,-53.35033l50.38971,0c6.39975,0.00475 11.59076,5.04431 11.5993,11.27675l0.00922,12.71098l0,0.00203c0,6.23529 -5.17691,11.28096 -11.58508,11.29208zm17.04739,-35.32822l13.21036,-0.00624l0.03482,53.32539l-13.21112,0.01315l-0.02985,-49.73714l-0.00421,-3.59517zm48.70044,-0.03172l13.21265,12.84357l-30.02072,0.01804l0.00421,9.57245l22.05969,-0.01315l0.00992,12.85132l-22.06039,0.01518l0.01639,18.05113l-13.20978,0.00963l-0.03473,-53.33095l30.02277,-0.01721zm56.68683,12.81279l-14.22369,0.00827l0.03131,40.47775l-13.21182,0.00961l-0.02985,-40.47624l-8.79459,0.0076l-13.21686,-12.84358l48.76459,-0.0381l0.67252,-0.00069l0,0.00069l0.00839,12.85469z"/>
    </g>
   </g>
  </g>
 </g>
</svg>