<?xml version="1.0" encoding="UTF-8"?>
<svg version="1.1" viewBox="0 0 2048 200" xmlns="http://www.w3.org/2000/svg">
<path transform="translate(1043,8)" d="m0 0h94l15 3 12 5 9 7 7 8 5 12 1 6v12l-3 12-7 11-8 6-11 5 13 5 9 7 6 7 5 11 1 5v20l-4 13-6 9-5 5-8 6-11 5-12 3-9 1h-93zm46 38v35h47l1-1v-34zm7 71-7 1v36h53v-36l-2-1z" fill="#B1A095"/>
<path transform="translate(365,8)" d="m0 0h83l16 3 13 5 10 6 10 9 7 11 4 11 1 6v22l-4 14-7 11-10 8-10 5-6 2 12 11 9 12 7 15 5 19 1 14h-46l-4-16-4-12-7-13-10-11-12-7-11-3v62h-46l-1-1zm47 39v45h47l1-15v-29l-1-1z" fill="#B1A095"/>
<path transform="translate(1224,8)" d="m0 0h82l16 3 14 5 11 7 6 5 8 11 5 12 2 11v15l-3 14-5 10-9 10-10 6-10 4 4 4 8 7 9 13 7 15 4 15 1 7v10h-46l-5-22-8-16-8-11-10-7-12-5-5-1v62h-46zm47 39-1 1v44h48v-45z" fill="#B1A095"/>
<path transform="translate(1956,3)" d="m0 0h25l15 3 15 6 11 8 7 7 8 14 3 10 1 12h-46l-4-10-5-5-8-4-4-1h-15l-9 3-4 4-1 3v8l3 5 8 4 43 12 16 6 11 7 8 7 7 11 3 9 1 6v17l-3 12-6 12-9 10-9 7-12 6-15 4-8 1h-18l-14-2-16-5-11-6-11-9-8-11-6-13-3-17v-4h46l2 7 4 9 5 5 10 5 6 1h11l10-3 6-5 2-5-1-9-4-5-10-5-41-12-15-6-11-7-9-9-7-14-2-7v-20l4-13 6-10 10-10 14-8 12-4z" fill="#B1A095"/>
<path transform="translate(1724,8)" d="m0 0h46l1 76 14-18 9-12 16-21 14-19 5-6h57l-6 8-11 14-12 15-13 17-13 16-11 14-4 5 1 5 11 13 10 13 13 16 10 13 13 16 13 17 1 2h-59l-14-18-14-19-14-18-14-19-1-3h-2v77h-46z" fill="#B1A095"/>
<path transform="translate(178,8)" d="m0 0h46l1 120 3 12 5 8 7 4 4 1h15l10-5 5-7 3-11 1-122h46l1 7v101l-1 17-3 15-5 13-7 11-10 10-15 8-16 4-9 1h-16l-14-2-13-4-11-6-12-11-8-14-5-15-2-12z" fill="#B1A095"/>
<path transform="translate(1600,3)" d="m0 0h25l16 3 12 5 9 5 10 9 8 9 8 16 4 17v5h-48l-5-15-7-8-9-4-5-1h-10l-9 2-10 6-6 8-5 11-3 14v29l3 15 7 14 5 5 8 5 6 2h18l10-4 6-5 5-9 3-11h47l-1 10-4 15-9 17-9 10-13 9-11 5-16 4-8 1h-19l-17-3-14-5-11-7-10-9-8-10-8-16-5-16-2-12-1-12v-15l2-18 5-19 8-16 6-9 11-11 11-7 14-6z" fill="#B1A095"/>
<path transform="translate(876,8)" d="m0 0h128l1 4v35l-1 1h-82l1 32 62 1-8 16-11 21-2 2h-42l1 31 82 1v40h-129z" fill="#B1A095"/>
<path transform="translate(545,8)" d="m0 0h85l15 3 13 5 11 7 9 9 7 12 4 15v21l-3 12-7 14-8 9-12 8-13 5-15 3-13 1h-26v59l-1 1h-45l-1-1zm47 39v45h47v-45z" fill="#B1A095"/>
<path transform="translate(2,8)" d="m0 0h85l15 3 15 6 11 8 8 9 7 14 3 14v16l-4 16-5 10-9 10-9 7-16 7-15 3-14 1h-26v60h-46zm46 39v45h49v-45z" fill="#B1A095"/>
<path transform="translate(1394,8)" d="m0 0h115v39h-34v99l-1 6h34l1 1v38l-1 1h-114v-40h34v-105h-34z" fill="#B1A095"/>
<path transform="translate(721,8)" d="m0 0h46l1 143 85 1-9 19-10 20-1 1h-112z" fill="#B1A095"/>
</svg>
