<svg viewBox="0 0 80 25" fill="none" xmlns="http://www.w3.org/2000/svg">
<g clip-path="url(#clip0_84_458)">
<path fill-rule="evenodd" clip-rule="evenodd" d="M23.333 16.5522L22.2067 16.5532L30.7887 24.9786L22.19 24.9861L7.54115 10.6029L22.6468 10.6048L22.6422 6.00347L6.09218 6.01317L6.10667 24.9928L0.23954 25H0.0262847H0V0.0564216H23.3221C26.2841 0.0586424 28.6867 2.41486 28.6907 5.32879L28.6949 11.2717C28.6949 14.187 26.2989 16.547 23.333 16.5522ZM31.2231 0.0347432L37.3373 0.0318247L37.3534 24.9637L31.2389 24.9699L31.225 1.71563L31.2231 0.0347432ZM53.7634 0.019913L59.8786 6.02483L45.984 6.03327L45.9859 10.5088L56.1959 10.5027L56.2005 16.5112L45.9902 16.5183L45.9978 24.958L39.8838 24.9625L39.8678 0.0279633L53.7634 0.019913ZM80 6.01044L73.4168 6.01431L73.4313 24.9394L67.3164 24.9439L67.3026 6.01951L63.2321 6.02306L57.1149 0.018137L79.6849 0.000322141L79.9961 0L80 6.01044Z" fill="#B1A095"/>
</g>
<defs>
<clipPath id="clip0_84_458">
<rect width="100%" height="100%" fill="white"/>
</clipPath>
</defs>
</svg>
