<svg viewBox="0 0 120 35" fill="none" xmlns="http://www.w3.org/2000/svg">
<g clip-path="url(#clip0_84_469)">
<path d="M94.7959 0.057183C93.5102 0.219237 93.6122 0.128081 93.5408 1.14092C93.5102 1.63721 92.8061 6.75202 91.9796 12.5151C90.4286 23.322 90.3163 24.3754 90.602 25.3781C91.0306 26.8973 92.3265 27.7076 94.3469 27.7076C95.4184 27.7076 96.1224 27.5658 96.898 27.2113C98 26.7049 98.6735 25.844 98.8878 24.6995C99.0408 23.8791 98.9592 23.6562 98.5102 23.6562C97.949 23.6562 97.551 23.2106 97.551 22.5826C97.551 22.3193 98.1939 17.5691 98.9898 12.0188C99.9286 5.42521 100.408 1.75875 100.378 1.42451C100.337 0.99912 100.276 0.87758 99.9592 0.604114C99.7551 0.421804 99.3878 0.229365 99.1531 0.158467C98.602 0.00654127 95.7857 -0.0542288 94.7959 0.057183ZM54.5 0.25975C53.3469 0.502831 52.3367 1.32323 51.9388 2.34619C51.7551 2.8121 51.7041 3.15646 51.6939 3.9566C51.6837 4.87828 51.7041 5.00995 51.9592 5.43534C52.1531 5.75945 52.3878 5.97214 52.7755 6.18484C53.2551 6.44817 53.4388 6.47856 54.449 6.51907C55.6939 6.56971 56.449 6.41779 57.1327 5.98227C58.0816 5.3847 58.6735 4.34148 58.7551 3.15646C58.8367 1.87016 58.4286 1.04976 57.4388 0.512959C56.949 0.249622 56.7755 0.209108 55.9184 0.188852C55.3878 0.178723 54.7449 0.209108 54.5 0.25975ZM82.7245 4.78712C82.7041 4.83777 82.3469 5.86073 81.949 7.066L81.2041 9.27398L80.8367 9.36514C80.6327 9.42591 79.9694 9.58796 79.3673 9.73989C78.7551 9.88168 78.2653 10.0437 78.2653 10.0843C78.2653 10.1349 78.1531 10.9452 78.0102 11.9074C77.8673 12.8695 77.7551 13.6899 77.7551 13.7406C77.7551 13.7912 78.2551 13.8317 78.8571 13.8317H79.9592L79.3673 17.954C78.8163 21.7724 78.7755 22.1978 78.8061 23.6056C78.8265 25.0236 78.8571 25.1654 79.1225 25.7629C79.8163 27.2619 81.1123 27.7987 83.8163 27.6772C85.2653 27.6164 86.2245 27.4442 87.5 27.0189L88.3163 26.7454L88.3878 25.9351C88.4184 25.4895 88.4796 24.5475 88.5204 23.8386L88.5918 22.5523L87.8265 22.613C87.4082 22.6434 86.898 22.6434 86.6837 22.6029C86.2041 22.5117 85.8163 22.137 85.8163 21.7622C85.8163 21.6103 86.051 19.7568 86.3469 17.6501L86.8776 13.8317H88.4388C89.2959 13.8317 90 13.8216 90.0102 13.8014C90.0102 13.7912 90.1633 12.7683 90.3469 11.5225L90.6735 9.27398H89.1122C88.2551 9.27398 87.551 9.25373 87.551 9.23347C87.551 9.21321 87.6939 8.25102 87.8571 7.09639C88.0306 5.94176 88.1633 4.92892 88.1633 4.85802C88.1633 4.73648 87.6939 4.71623 85.4694 4.71623C83.9796 4.71623 82.7449 4.74661 82.7245 4.78712ZM7.90816 8.92962C5.71429 9.28411 3.95918 10.1552 2.94898 11.4212C1.95918 12.667 1.34694 14.5509 1.45918 16.0701C1.59184 17.9742 2.78571 19.3011 5.19388 20.2126C7.4898 21.0836 8 21.428 7.93878 22.0357C7.91837 22.2585 7.81633 22.4408 7.62245 22.5826C7.36735 22.765 7.16327 22.7953 6.07143 22.8257C4.63265 22.8662 3.52041 22.6941 2.21429 22.2383C1.7551 22.0762 1.34694 21.9749 1.31633 22.0155C1.2551 22.0762 0 26.2997 0 26.4314C0 26.5124 1.52041 27.0695 2.2449 27.2518C4.9898 27.9608 7.81633 27.9709 9.94898 27.2923C12.7041 26.4213 14.551 24.2943 14.8878 21.6204C15.0714 20.1923 14.6939 19.058 13.7041 18.1262C13.051 17.4982 12.0714 16.9817 10.2347 16.2625C8.79592 15.7055 8.26531 15.351 8.26531 14.9155C8.26531 14.1559 8.65306 13.9837 10.3061 13.9938C11.5102 14.0039 12.398 14.166 13.9694 14.6521C14.1327 14.7028 14.602 13.9634 14.9796 13.0721C15.3367 12.2213 15.3571 11.2186 15.0102 10.6211C14.5918 9.90194 13.6837 9.41578 12.1939 9.11193C11.4796 8.97013 8.4898 8.83846 7.90816 8.92962ZM46.4286 8.93975C45.1633 9.14232 43.7347 9.90194 42.7143 10.9148C42.3367 11.2895 42.0102 11.6035 41.9898 11.6035C41.9796 11.6035 41.9082 11.3199 41.8469 10.9654C41.7755 10.6211 41.6837 10.0944 41.6224 9.80066L41.5204 9.27398H36.5306L36.4796 9.49681C36.4184 9.7804 33.9796 27.0999 33.9796 27.2822C33.9796 27.4645 40.8061 27.4645 40.8673 27.2822C40.8878 27.2113 41.2551 24.6387 41.6837 21.5799C42.102 18.511 42.4694 15.8574 42.5102 15.6751C42.5918 15.1687 43.2143 14.9256 44.5408 14.8648C45.4796 14.8243 46.6939 15.0066 47.4592 15.3004C47.5816 15.3409 47.7449 15.0877 48.1939 14.166C49.0816 12.3125 49.2245 11.8162 49.2347 10.6717C49.2347 9.77027 49.2143 9.67912 48.9796 9.42591C48.8367 9.27398 48.5816 9.08155 48.398 9.01065C48.0918 8.87898 47.0204 8.83846 46.4286 8.93975ZM52.6837 9.07142C52.3878 9.19296 51.9286 9.48668 51.6429 9.73989C50.6633 10.6109 50.7245 10.3476 49.4796 19.0681C48.8673 23.3423 48.3673 26.9682 48.3673 27.1201V27.4037H55.2041L55.2551 27.1708C55.2755 27.0492 55.7653 23.6259 56.3265 19.5644C57.2245 13.0822 57.3367 12.1201 57.2449 11.6339C57.051 10.54 56.3469 9.64873 55.3163 9.15244C54.6429 8.82834 53.398 8.79795 52.6837 9.07142ZM27.1429 9.12206C26.0612 9.41578 24.9592 10.0336 24.0918 10.8439C23.6531 11.2693 23.2653 11.5731 23.2347 11.5326C23.2143 11.4921 23.1122 10.9654 23.0102 10.3577L22.8265 9.27398H20.2857C18.898 9.27398 17.7551 9.30437 17.7551 9.34488C17.7551 9.3854 16.949 15.0573 15.9694 21.9446C14.9898 28.8318 14.1837 34.5037 14.1837 34.5341C14.1837 34.5645 15.7449 34.5949 17.6531 34.5949C19.8571 34.5949 21.1224 34.5544 21.1224 34.4936C21.1224 34.4429 21.3776 32.6097 21.6837 30.422C21.9898 28.2343 22.2449 26.4213 22.2449 26.4112C22.2449 26.3909 22.449 26.553 22.7041 26.7758C23.5816 27.5354 23.949 27.6569 25.4592 27.6569C26.9286 27.6468 27.7449 27.4645 28.9184 26.8771C31.6224 25.53 33.3469 22.4915 33.9388 18.0553C34.1531 16.4752 34.0816 14.4394 33.7857 13.2747C33.2959 11.4212 32.3163 10.0741 30.949 9.40565C30.2041 9.04103 30.1429 9.0309 28.9388 9.00052C28.0816 8.98026 27.5306 9.02078 27.1429 9.12206ZM26.3878 14.4394C26.7857 14.8142 27.0306 15.4422 27.102 16.2828C27.2347 17.7615 26.7551 20.3848 26.1429 21.5901C25.8776 22.1167 25.0408 23.0384 24.8265 23.0485C24.7755 23.0587 24.5408 23.0992 24.2857 23.1498C23.8163 23.241 22.9082 23.1093 22.8061 22.9473C22.7551 22.8662 23.8265 14.9459 23.9184 14.6825C23.9388 14.6218 24.1633 14.4698 24.4082 14.3483C25.0204 14.0343 25.9898 14.085 26.3878 14.4394ZM69.6939 9.12206C68.2959 9.46642 66.8163 10.4084 65.9694 11.5123C65.7551 11.7959 65.5612 11.9985 65.5408 11.9681C65.5102 11.9377 65.4184 11.3402 65.3163 10.6211L65.1429 9.32463L62.6327 9.29424L60.1225 9.27398L60.0714 9.59809C60.0306 9.7804 59.4796 13.7102 58.8265 18.3389C58.1837 22.9574 57.6327 26.8973 57.602 27.0695L57.5408 27.4037H64.4694L64.5204 27.0796C64.551 26.8973 64.9286 24.193 65.3571 21.0735C65.7857 17.954 66.1735 15.3004 66.2347 15.1687C66.3571 14.875 67.0714 14.5509 67.6122 14.5407C68.1327 14.5407 68.6633 14.8648 68.898 15.351C69.1837 15.8979 69.1327 16.7994 68.6122 20.3645C68.1122 23.8487 68.0816 24.74 68.4184 25.692C68.8878 27.0087 70.1531 27.7076 72.0918 27.7076C74.7653 27.7076 76.4592 26.4517 76.6122 24.3652L76.6633 23.6562H76.3469C75.6633 23.6562 75.3061 23.2916 75.3061 22.5826C75.3061 22.3801 75.5102 20.719 75.7653 18.8757C76.398 14.2673 76.3673 12.9303 75.6224 11.33C74.8673 9.72976 73.449 8.96 71.2755 8.98026C70.7143 8.98026 70 9.05116 69.6939 9.12206ZM102.398 9.07142C101.214 9.1727 100.612 9.27398 100.612 9.36514C100.612 9.41578 100.684 9.64873 100.765 9.88169C100.857 10.1248 101.724 14.247 102.714 19.0377L104.51 27.7481L104.224 28.3355C103.918 28.9635 103.276 29.6624 102.837 29.8244C102.296 30.027 101.286 30.0574 100.255 29.9054C99.7041 29.8143 99.2143 29.7636 99.1735 29.794C99.1429 29.8143 98.9388 30.1789 98.7245 30.5942C98.0714 31.9109 98.1122 32.9845 98.8571 33.8049C99.5816 34.5949 100.776 35 102.408 35C104.245 35 105.592 34.6354 106.867 33.7846C108.082 32.9743 109.163 31.688 110.153 29.8953C111.092 28.1735 120 9.73989 120 9.51706V9.27398H112.806L112.051 11.2794C110.622 15.1079 109.163 19.6049 108.367 22.7346C108.306 22.9675 108.235 23.1498 108.224 23.1397C108.204 23.1194 108.224 22.2585 108.276 21.2254C108.429 17.8628 108.051 11.2085 107.663 10.3375C107.306 9.55758 106.755 9.2436 105.398 9.08155C104.469 8.96 103.673 8.96001 102.398 9.07142Z" fill="#B1A095"/>
</g>
<defs>
<clipPath id="clip0_84_469">
<rect width="100%" height="100%" fill="white"/>
</clipPath>
</defs>
</svg>
