<svg viewBox="0 0 134 25" fill="none" xmlns="http://www.w3.org/2000/svg">
<g clip-path="url(#clip0_84_465)">
<path fill-rule="evenodd" clip-rule="evenodd" d="M57.936 16.2153C57.936 10.8102 62.0781 7.43259 66.6396 7.43259C68.9384 7.43259 71.1317 8.41254 72.4199 9.96695V0H76.111V24.6616H72.4199V22.33C71.097 23.9858 68.9038 24.998 66.6049 24.998C62.1837 24.998 57.936 21.5881 57.936 16.2153ZM72.6296 16.1815C72.6296 13.1756 70.2976 10.7088 67.1284 10.7088C64.0285 10.7088 61.6256 13.108 61.6256 16.1815C61.6256 19.255 64.0285 21.688 67.1284 21.688C70.2976 21.688 72.6296 19.2212 72.6296 16.1815Z" fill="#B1A095"/>
<path fill-rule="evenodd" clip-rule="evenodd" d="M89.1085 21.5856C91.3159 21.5856 92.9226 20.7024 93.8859 19.7793L96.2558 22.2676C94.6885 23.8343 92.5221 25.0001 89.1495 25.0001C83.366 25.0001 79.6323 21.2646 79.6323 16.2051C79.6323 11.1855 83.5678 7.41162 88.626 7.41162C94.3684 7.41162 97.6196 11.6678 97.339 17.5706H83.7681C84.2506 20.0204 86.0165 21.5856 89.1085 21.5856ZM93.2442 14.7597C92.8831 12.4711 91.4783 10.7846 88.667 10.7846C86.0559 10.7846 84.2506 12.23 83.7681 14.7597H93.2442Z" fill="#B1A095"/>
<path d="M0 21.4023L10.4458 11.0667H0.244393V7.82275H15.2848V11.1328L4.83898 21.4699H15.4251V24.7123H0V21.4023Z" fill="#B1A095"/>
<path fill-rule="evenodd" clip-rule="evenodd" d="M31.9299 19.7793C30.9665 20.7024 29.3598 21.5856 27.1524 21.5856C24.0604 21.5856 22.2945 20.0204 21.812 17.5706H35.3829C35.6636 11.6678 32.4124 7.41162 26.6699 7.41162C21.6118 7.41162 17.6763 11.1855 17.6763 16.2051C17.6763 21.2646 21.41 25.0001 27.1918 25.0001C30.566 25.0001 32.7324 23.8343 34.2997 22.2676L31.9299 19.7793ZM26.7109 10.7846C29.5222 10.7846 30.9271 12.4711 31.2882 14.7597H21.812C22.2945 12.23 24.0999 10.7846 26.7109 10.7846Z" fill="#B1A095"/>
<path d="M103.083 19.3917L99.7419 21.0797C101.204 23.5803 103.747 24.998 107.367 24.998C112.313 25.0333 114.401 21.8907 114.401 19.5606C114.401 16.0463 111.162 15.1355 108.308 14.5257L108.253 14.5138C105.778 13.98 104.199 13.6397 104.199 12.4322C104.199 11.3524 105.208 10.4047 107.194 10.4047C108.934 10.4047 110.292 11.1481 111.093 12.3308L114.193 10.6766C112.835 8.64907 110.431 7.39878 107.194 7.39878C103.083 7.36499 100.474 9.83023 100.474 12.5013C100.474 15.9787 103.536 16.9249 106.497 17.5331C106.639 17.5617 106.781 17.5896 106.921 17.6173C108.945 18.0163 110.71 18.3643 110.71 19.6282C110.71 20.8109 109.63 21.8569 107.54 21.8569C105.557 21.8569 104.024 20.9445 103.083 19.3917Z" fill="#B1A095"/>
<path d="M124.423 17.1619L121.5 20.2692V24.6606H117.809V0.000488281H121.5V16.1482L129.333 7.77099H133.825L127.034 14.9993L134 24.6606H129.822L124.423 17.1619Z" fill="#B1A095"/>
<path d="M38.7212 14.7927C38.7212 10.1986 42.395 7.4292 46.783 7.4292C51.1695 7.4292 54.8432 10.1986 54.8432 14.7927V24.6613H51.0827V15.2504C51.0827 12.481 49.6889 10.8222 46.9013 10.8222C44.1183 10.8222 42.4817 12.481 42.4817 15.2504V24.6613H38.7212V14.7927Z" fill="#B1A095"/>
</g>
<defs>
<clipPath id="clip0_84_465">
<rect width="100%" height="100%" fill="white"/>
</clipPath>
</defs>
</svg>
