<?xml version="1.0" encoding="utf-8"?>
<!-- Generator: Adobe Illustrator 23.1.1, SVG Export Plug-In . SVG Version: 6.00 Build 0)  -->
<svg version="1.1" id="Layer_1" xmlns="http://www.w3.org/2000/svg" xmlns:xlink="http://www.w3.org/1999/xlink" x="0px" y="0px"
	 viewBox="0 0 200 200" style="enable-background:new 0 0 200 200;" xml:space="preserve">
<style type="text/css">
	.st0{fill:#FFFFFF;}
	.st1{fill:#542E91;}
	.st2{fill:#FDDC06;}
</style>
<g>
	<g>
		<g>
			<path class="st0" d="M92.5,16.7c-1,0-2.1,0.2-3.1,0.7c-0.4,0-0.8,0-1.3,0c-4.2,0-8.6,1.3-12.2,3.5c-2.1,1.3-3.6,2.7-4.8,3.8
				c-1.8,1.7-2.3,2.1-3.9,2.1c-0.8,0-1.7-0.1-2.8-0.3c-2.4-0.5-4.3-0.7-5.8-0.7c-4.6,0-6.8,2.1-8.8,3.9c-0.7,0.7-1.4,1.3-2.4,2.1
				c-0.1,0.1-0.4,0.3-1.2,0.3c-1.7,0-3.9-1-4.5-1.4c-0.7-0.4-1.5-0.6-2.3-0.6c-1.3,0-2.5,0.5-3.4,1.5c-1.4,1.6-1.5,4-0.2,5.7
				c3.8,4.9,8.1,7.4,12.8,7.4c3,0,6-1.1,9-3.2c1-0.7,1.5-0.9,1.7-0.9c0.3,0.1,1,0.6,1.5,0.9c1.4,0.9,3.3,2.2,5.9,3
				c1.2,0.3,2.4,0.5,3.6,0.5c0.8,0,1.5-0.1,2.2-0.2c-1,1.2-1.6,2.6-1.6,4.2l-0.1,27.4c-0.2,0-0.4,0-0.5,0c-0.2,0-0.4,0-0.6,0
				l-5.1,0.4c0,0,0,0-0.1,0c-0.3,0-0.6,0.1-0.9,0.1L62,64.6c0-0.1,0-0.1,0-0.2c-0.6-3.2-3.3-5.5-6.5-5.5c-0.2,0-0.4,0-0.5,0
				l-5.4,0.4c0,0,0,0-0.1,0c-1.7,0.2-3.2,0.9-4.3,2.2c0,0.1-0.1,0.1-0.1,0.2c-1.1-1.1-2.7-1.7-4.3-1.7c-0.2,0-0.3,0-0.5,0l-5,0.3
				c0,0-0.1,0-0.1,0c-1.8,0.2-3.3,1-4.3,2.2C29.5,61.5,28,61,26.5,61c-0.2,0-0.4,0-0.5,0l-5.4,0.4c0,0-0.1,0-0.1,0
				c-3.4,0.3-6.1,3.2-6.1,6.6l-0.2,97.6c0,2.2,0.9,4.7,2.1,6.3c1.3,1.7,3.3,2.5,11.6,2.5c4.5,0,10.4-0.2,17.6-0.7
				c19.7-1.3,25-3.6,26.5-4.5c0,0,0,0,0,0c0.3-0.1,1.1-0.4,1.5-0.5l57.5-3.9c0,0,0.1,0,0.1,0c0.3,0,1.1,0.2,1.7,0.4
				c2.1,0.9,6.7,1.4,13,1.4c3.9,0,8.4-0.2,13.6-0.5c26.4-1.8,27.6-3.7,28.7-5.5c0-0.1,0.1-0.1,0.1-0.2c1.1-2,1.5-4.6,1.2-6.6
				l-13.5-96.7c0-0.1,0-0.1,0-0.2c-0.6-3.2-3.3-5.5-6.5-5.5c-0.2,0-0.4,0-0.5,0l-5.4,0.4c0,0-0.1,0-0.1,0c-1.7,0.2-3.2,0.9-4.3,2.2
				c0,0.1-0.1,0.1-0.1,0.2c-1.1-1.1-2.7-1.7-4.3-1.7c-0.2,0-0.3,0-0.5,0l-5,0.3c0,0-0.1,0-0.1,0c-1.8,0.2-3.3,1-4.3,2.2
				c-1.1-0.9-2.5-1.5-4.1-1.5c-0.2,0-0.4,0-0.5,0l-5.4,0.4c0,0,0,0-0.1,0c-3.4,0.3-6.1,3.2-6.1,6.6v12.2l-5,0.3c0,0-0.1,0-0.1,0
				c-0.2,0-0.3,0-0.5,0.1l-3.8-27.2c0-0.1,0-0.1,0-0.2c-0.6-3.2-3.3-5.5-6.5-5.5c-0.2,0-0.4,0-0.5,0l-5.4,0.4c0,0-0.1,0-0.1,0
				c-1.9,0.2-3.6,1.1-4.6,2.5c-0.7-0.7-1.5-1.2-2.4-1.6c-0.9-15.8-1-19-1-19.6c0-1.2-0.4-2.4-1.2-3.3C96.3,17.7,94.9,16.7,92.5,16.7
				L92.5,16.7z M77.9,42.1c0.2-0.1,0.4-0.3,0.6-0.4c1.4-0.9,2.8-1.8,4.4-2.2c0.7-0.2,1.4-0.3,2-0.3c1,0,1.8,0.2,2.6,0.4l0.1,3
				c-0.2,0.2-0.5,0.4-0.7,0.6c-1.1-0.9-2.5-1.5-4.1-1.5c-0.2,0-0.4,0-0.5,0L77.9,42.1L77.9,42.1z"/>
			<path class="st1" d="M184.9,154.3l-13.5-96.8c-0.2-1.1-1.2-1.9-2.3-1.8l-5.4,0.4c-1.1,0.1-1.9,1-1.8,2.1l0.1,2.1
				c0.1,1.1-0.8,2-1.8,2.1l-1.6,0.1c-1.1,0.1-2-0.8-2.1-1.8l-0.1-2.1c-0.1-1.1-1-1.9-2.1-1.8l-5.1,0.3c-1.1,0.1-1.9,1-1.8,2.1
				l0.1,2.1c0.1,1.1-0.8,2-1.8,2.1l-1.2,0.1c-1.1,0.1-2-0.8-2.1-1.8l-0.1-2.1c-0.1-1.1-1-1.9-2.1-1.8l-5.4,0.4c-1.1,0.1-2,1-2,2.1
				v20c0,1.1-0.4,2-0.9,2s-1-0.8-1-1.9l-0.1-1.6c-0.1-1.1-1-1.9-2.1-1.8l-5.1,0.3c-1.1,0.1-1.9,1-1.8,2.1l0.1,1.6
				c0.1,1.1-0.4,2-1.1,2.1c-0.7,0-1.4-0.8-1.5-1.9l-4.9-34.9c-0.2-1.1-1.2-1.9-2.3-1.8l-5.4,0.4c-1.1,0.1-1.9,1-1.8,2.1l0.1,2.1
				c0.1,1.1-0.8,2-1.8,2.1l-1.6,0.1c-1.1,0.1-2-0.8-2.1-1.8L99,47.3c-0.1-1.1-1-1.9-2.1-1.8L95,45.6h0c-0.6-11.4-1.3-23.6-1.3-24
				c0.1-0.6-2.5-0.5-2.5,0c0,0,0,0.3,0,0.6c-2.7-0.9-8.3-0.4-12.9,2.4c-5.9,3.6-5.9,8-14.7,6.1s-8.3,0.5-13.4,4.4
				c-4.1,3.1-10.7-0.8-10.7-0.8c4.1,5.3,9.4,7.9,15.6,3.3c6.2-4.5,7.1,0.6,13,2.3c5.9,1.7,7.8-3.1,13.9-4.8c5-1.3,8.9,0.8,10.1,1.6
				c0.1,2.9,0.3,5.9,0.4,8.8h-0.6c-1.1,0.1-1.9,1-1.8,2.1l0.1,2.1c0.1,1.1-0.8,2-1.8,2.1L87.1,52c-1.1,0.1-2-0.8-2.1-1.8l-0.1-2.1
				c-0.1-1.1-1-1.9-2.1-1.8l-5.4,0.4c-1.1,0.1-2,1-2,2.1L75.3,84c0,1.1-0.6,2-1.4,2.1c-0.8,0.1-1.5-0.8-1.6-1.9l-0.1-1.7
				c-0.1-1.1-1-1.9-2.1-1.8L65,81.1c-1.1,0.1-1.9,1-1.8,2.1l0.1,1.7c0.1,1.1-0.5,2-1.3,2.1c-0.8,0.1-1.5-0.8-1.7-1.9l-2.8-19.9
				c-0.2-1.1-1.2-1.9-2.3-1.8l-5.4,0.4c-1.1,0.1-1.9,1-1.8,2.1l0.1,2.1c0.1,1.1-0.8,2-1.8,2.1l-1.6,0.1c-1.1,0.1-2-0.8-2.1-1.8
				l-0.1-2.1c-0.1-1.1-1-1.9-2.1-1.8l-5.1,0.3c-1.1,0.1-1.9,1-1.8,2.1l0.1,2.1c0.1,1.1-0.8,2-1.8,2.1l-1.2,0.1
				c-1.1,0.1-2-0.8-2.1-1.8l-0.1-2.1c-0.1-1.1-1-1.9-2.1-1.8l-5.4,0.4c-1.1,0.1-2,1-2,2.1l-0.2,97.6c0,1.1,0.5,2.7,1.2,3.6
				c0,0,1.2,1.6,25.3,0c20.6-1.4,24.3-3.8,24.3-3.8c0.9-0.6,2.6-1.1,3.6-1.2l57.6-3.9c1.1-0.1,2.8,0.3,3.8,0.7c0,0,3.9,1.9,24.5,0.5
				c24.1-1.6,25.2-3.4,25.2-3.4C184.8,157,185.1,155.4,184.9,154.3z"/>
		</g>
	</g>
	<g>
		<g>
			<path class="st0" d="M59.7,122.6l-0.8,0.1c-2.1,0.2-3.5-1.6-4.2-5.3c-0.8-3.7-1.9-5.8-3.4-6.4c-2.7,2.1-3.4,2.7-4,4.7
				c-0.9,2.7-0.6,5.5-0.7,7.4c0,0-0.1,0.2-0.2,0.4c-0.1,0.1-0.3,0.2-1,0.5s-0.4,0.3-1.2,0.4s-1.2-0.6-1.5-1s-0.4-0.9-0.6-1.5
				c-0.6-1.5-1.2-4.6-1.7-9.3c-0.4-3.2-0.5-1.3-0.8-6.4c-0.3-5-0.4-4.5-0.4-6.9c0-0.7,0.1-1.2,0.2-1.5c0.2-0.4,0.4-0.5,0.7-0.6
				c1.4-0.1,2.5-0.4,3.4,3.1c0.6,2.5,1.1,4.4,1.3,6.5c0.3,2.3,0.2,0.4,0.2,2.9c0.9-1.5,1.7-2.6,2.5-3.5c1.2-1.4,2.4-1.3,3.5-1.4
				c2.5-0.2,4.6,2.2,6.3,7.1C58.9,115.9,59.6,119.4,59.7,122.6z"/>
			<path class="st0" d="M82.9,109c0.3,3.2-1.6,6.4-5.5,9.4c-3.6,2.7-7.1,4.2-10.6,4.5c-1.9,0.1-3.2-0.2-4-1.1s-1.3-2.3-1.5-4.3
				c-0.2-2.5,0.2-4.8,1.3-7.1c1.1-2.3,2.6-4.2,4.6-5.8c0.7-0.7,1.2-1.2,1.6-1.6c0.7-0.6,1.3-1,2-1c2.7-0.2,5.2,0.2,7.6,1.4
				C81.2,104.7,82.7,106.5,82.9,109z M78.8,109.7c-0.1-1-0.6-1.7-1.5-2.3c-1-0.6-2-0.8-3-0.7c-2.1,0.2-4.1,1.3-6.1,3.3
				s-2.9,4.1-2.8,6.1c0.1,0.8,0.4,1.4,1.1,1.7c0.6,0.3,1.4,0.4,2.3,0.3c1.8-0.2,3.9-1.1,6.4-2.9C77.6,113.2,78.9,111.4,78.8,109.7z"
				/>
			<path class="st0" d="M90.5,121.1l-1.2,0.2c-0.5,0-0.9,0-1.3-0.1s-0.7-0.3-0.9-0.6c0-0.1-0.3-2-0.9-5.7c-0.8-5.1-0.9-3.9-1.2-5.7
				c-0.5-3.8-0.8-5.2-0.8-5.7L83.6,96c0-0.3,0-0.6-0.1-0.8c0-0.6,0-1.1,0-1.5c0.1-0.4,0.3-0.7,0.7-0.8c0.9,0.3,1.6,0.8,2.2,1.5
				c0.4,0.6,0.8,1.4,1,2.5c0.3,1.1,0.5,2.2,0.6,3.4c0.2,1.2,0.3,2.6,0.4,4c0,0.2,0-0.3,0-0.2c0,0.7,0.1,1.3,0.2,2s0.1,1.3,0.2,2
				c0.2,2,0.1,0.2,0.7,4.1C90,116.2,90.4,119.1,90.5,121.1z"/>
			<path class="st0" d="M94.9,95.7c0,0.5,0,0.9-0.3,1.4c-0.2,0.4-0.6,0.6-1.1,0.7c-0.7,0-1.2-0.3-1.8-1.1c-0.5-0.8-0.8-1.6-0.9-2.3
				c0-0.5,0-1,0.2-1.4c0.2-0.5,0.5-0.7,1-0.7c0.6,0,1.3,0.3,1.8,1.2C94.5,94.2,94.8,95,94.9,95.7z M98.5,109.6
				c0.2,2.2,0.3,4,0.3,5.6c0,1.5-0.1,3.2-0.3,4.9c-1.5-0.1-2.6-0.6-3.1-1.5c-0.1-0.2-0.5-1.3-1.3-3.5c-0.2-0.5-0.3-1.1-0.4-1.7
				c-0.1-0.7-0.2-1.3-0.2-2c-0.1-0.8-0.1-2-0.1-3.7s0-2.9-0.1-3.7c0.3,0,0.8-0.2,1.6-0.5c0.4-0.2,0.7-0.3,0.9-0.3
				c0.4,0,0.9,0.6,1.6,1.8c0.7,1.2,1,2.1,1.1,2.6V109.6L98.5,109.6z"/>
			<path class="st0" d="M118.5,96.5c0.3,3.4,0.2,3.1,0.4,5.2c0.5,8.5,0.9,13.2,0.9,14c-0.2,0-0.7-0.1-1.6-0.1
				c-0.9-0.1-1.6-0.1-2.1,0c-1.3,1-2.5,1.9-3.7,2.7c-1.2,0.8-2.5,1.2-4,1.3c-1.8,0.1-3.3-0.5-4.7-1.8c-1.4-1.3-2.1-2.9-2.3-4.7
				c-0.2-2.2,0.6-4.5,2.3-7.1c1.8-2.8,3.8-4.2,5.9-4.4c0.7-0.1,1.2,0,1.7,0c0.5,0.1,1.2,0.2,2.1,0.4c0.1-0.6,0.2-1.2,0.1-4.9
				c-0.2-3.7,0.3-4.6,1.3-5.8c1.2,0.4,2.1,1,2.7,1.9C118,94,118.4,95.1,118.5,96.5z M114.4,107.6c-0.1-0.6-0.3-1.2-0.7-1.6
				c-0.4-0.4-0.9-0.6-1.6-0.6c-1.4,0.1-2.7,1-3.9,2.8c-1.2,1.7-1.8,3.3-1.7,4.8c0,0.6,0.3,1.1,0.6,1.6c0.4,0.4,0.9,0.6,1.5,0.6
				c1.1-0.1,2.4-1.1,3.8-3C113.9,110.2,114.5,108.7,114.4,107.6z"/>
			<path class="st0" d="M139,111.8c0.1,1.1,0.1,2,0,2.9s-0.2,1.8-0.5,2.6c-1.2-0.2-2.2-0.8-3-1.6c-0.3-0.3-0.9-1.3-1.9-2.9
				c-0.1,0.3-1.2,1.2-3.1,2.8c-2,1.5-3.2,2.3-3.6,2.4c-1.6,0.1-2.9-0.3-3.7-1.3c-0.8-1-1.3-2.4-1.5-4.1c-0.2-2.4,0.9-5.9,3.2-10.5
				c2.4-4.8,4.7-7.3,6.6-7.5c2.1-0.2,3.7,1.2,5,4C137.7,101.5,138.6,105.9,139,111.8z M132.9,100.7c0-0.2,0-0.4-0.1-0.7
				c0-0.3-0.1-0.6-0.2-1c-0.3,0-0.6,0.2-1,0.5s-0.8,0.6-1.1,1c-0.6,0.8-1.5,2.5-2.6,5.2s-1.6,4.5-1.5,5.4v0.5c2.1-0.7,3.8-2.1,5-4.2
				C132.6,105.2,133.1,103,132.9,100.7z"/>
			<path class="st0" d="M157.5,97.6c0.1,0.9-0.7,4.2-2.3,9.7c-1.4,4.9-0.2,2.3-2.1,7.9c-1.8,5.6-1.7,4.8-2.3,6
				c-0.3,0.5-0.6,0.9-1,1.2c-0.4,0.3-0.9,0.5-1.4,0.5c-0.7,0.1-1.3,0-1.9-0.3c-0.6-0.3-0.9-0.7-0.9-1.4c-0.1-0.9,0.5-2.3,0.9-3.5
				c0.4-1.1,0.7-1.5,1.2-2.7c0.4-1.2,0.4-1.3,0.3-2.6c-0.1-1.8-1.5-3.6-3-5.6c-1.4-1.7-2.8-3.3-4.2-5c-1.6-2-2.4-4-2.6-5.9
				c2.6,0.2,5.2,2.2,7.7,5.9c1.7,2.4,2.9,4,3.9,4.8c0.7-2.1,1.4-4.3,1.9-6.6c0.5-2,0.9-4.2,1.3-6.7l0.7-0.5c1.1,0.1,2,0.7,2.7,1.7
				C157,95.4,157.4,96.4,157.5,97.6z"/>
		</g>
		<g>
			<path class="st2" d="M64.2,148.7c0.1,1.6-1.2,3-3.9,4.3c-2.2,1-4.2,1.6-6.2,1.8c-3.1,0.2-5.7-0.2-7.8-1.4c-2.4-1.4-3.8-3.6-4-6.5
				c-0.2-2.8,0.8-5.5,2.9-8c2.2-2.5,4.7-3.9,7.6-4.1c1.9-0.1,3.7,0.4,5.5,1.7s2.8,2.9,2.9,4.7c0.2,2.2-2.7,3.8-8.8,4.9
				c-3.4,0.5-5.5,0.9-6.3,1l0.1,0.9c0.1,0.8,0.8,1.5,2.3,1.9c1.2,0.4,2.3,0.6,3.3,0.5c1.2-0.1,2.7-0.5,4.4-1.3s3.5-1.6,5.4-2.5
				c0.6,0,1.1,0.1,1.6,0.5C63.8,147.6,64.1,148.1,64.2,148.7z M57,141.2c-0.1-0.7-0.6-1.3-1.6-1.7s-1.9-0.6-2.7-0.5
				c-1.1,0.1-2,0.5-2.9,1.3c-0.5,0.4-1.2,1.3-2.1,2.4c1.4,0.2,3,0.3,4.8,0.1c0.7,0,1.5-0.2,2.3-0.3c0.8-0.2,1.6-0.3,2.3-0.6
				L57,141.2z"/>
			<path class="st2" d="M82.8,149.8l0.2,2c-1.4-0.2-2.6-0.8-3.9-1.9c-3-2.5-5.5-3.8-5.9-3.9c-0.6,1.3-1.7,2.9-3.1,4.9
				c-0.7,0.9-1.4,1.9-2,2.8c-0.2-0.3-0.6-0.6-1.1-1.1c-0.9-0.8-1.4-1.5-1.4-2c-0.1-0.9,0.8-2.7,2.8-5.5c0.9-1.3,1.3-2.4,1.2-3.4
				c-0.1-1.2-2.5-2.5-3.9-4.3s-2.1-2.9-2.1-3.5c0-0.5,0-1,0.2-1.4s0.5-0.7,0.9-0.9c0.5,0.1,1.2,0.7,2.1,1.7c2.3,2.6,5.4,3.9,5.9,4.3
				c0.8-2.4,1.3-3.7,1.4-3.9c0.9-1.8,1.9-2.8,3-2.8c0.5,0,0.8,0.1,1.1,0.5c0.3,0.3,0.4,0.9,0.5,1.8c0.1,1.4-0.1,2.8-0.7,4.2
				s-1.2,2.9-1.8,4.3c0,0.4,2.2,1.8,4.9,4.5C82,147.4,82.7,148.7,82.8,149.8z"/>
			<path class="st2" d="M102.1,131.7l-0.3-0.1h-0.3c-0.2,0.2-0.3,0.5-0.3,0.7s0.1,0.4,0.3,0.7c-0.2,1.3-1.6,2.1-4.2,2.4
				c-2.6,0.3-4.3,1-5,2c-0.1,0.5-0.1,1.1-0.1,1.7c0,0.2,0,0.6,0.1,1c0,0.5,0.1,0.8,0.1,1.1c0.1,0.6,0,2.3-0.2,4.9
				c-0.1,1.2-0.1,2.2,0,2.9c0.1,0.9,0.3,1.7,0.6,2.6l-0.9,0.1c-1.1,0.1-2-0.2-2.6-0.9c-0.7-0.8-1.2-2.3-1.3-4.6
				c-0.1-0.7-0.1-1.6-0.1-2.6c0-2.4,0-3.8,0-4.4c-0.1-1.9-1.5-2.8-4.1-2.8s-4-1.1-4.2-3.2c0-0.2,0-0.4,0-0.7c0-0.2,0.1-0.6,0.1-1.2
				c1.5,0.1,2.3,0.2,2.5,0.2c1,0.1,1.9,0.1,2.6,0c1.6-0.1,2.7-0.7,3.2-1.7c0.5-0.8,0.5-1.7,0.5-2.3c-0.1-0.6-0.2-1.1-0.2-1.1
				c-0.1-0.8,0-0.8,0.1-1.5c1.3,0.2,2.2,0,3,1c0.9,1.2,0.9,1.4,1.1,1.8c0.1,0.3,0.2,0.7,0.2,1.1c0,0.2,0.1,0.3,0.2,0.6
				c0.1,0.2,0.2,0.4,0.2,0.4c0.3,0.2,0.7,0.3,1.1,0.3s0.8,0,1.3,0c0.3,0,0.8-0.1,1.4-0.2c0.6-0.1,1-0.1,1.3-0.1c1-0.1,1.8,0,2.5,0.3
				C101.1,130.3,101.7,130.9,102.1,131.7z"/>
			<path class="st2" d="M121.9,132.4c0,0.3-0.1,0.6-0.3,1c-0.2,0.3-0.5,0.5-0.8,0.5c-0.2,0-0.7-0.1-1.6-0.3
				c-0.5-0.1-0.8-0.2-1.1-0.1c-2,0.2-4,1.7-6,4.6c-0.9,1.3-2.4,4-4.4,8.1c-1.5,2.9-2.5,4.4-3.2,4.5c-1.5,0.1-2.6-1.8-3.4-5.8
				c-0.5-2.6-1-5.3-1.5-8l-1.9-5.7c0.4-0.2,0.7-0.4,1.2-0.7c0.4-0.3,0.7-0.6,1-0.8c1.6,1,2.7,1.8,3.2,2.5c0.3,0.4,0.5,0.9,0.6,1.6
				c0.1,0.8,0.2,1.5,0.3,1.9c0.1,0.4,0.5,1.1,1,2.1c1.3-1.9,2.6-3.7,3.9-5.6c1.4-1.7,3.5-2.6,6.1-2.8c1.5-0.1,2.9,0,4.2,0.4
				C120.9,130.2,121.8,131.1,121.9,132.4z"/>
			<path class="st2" d="M137.5,142.6c0.1,1,0.1,2,0,2.9s-0.2,1.8-0.5,2.6c-1.2-0.2-2.2-0.8-3-1.6c-0.3-0.3-0.9-1.3-1.9-2.9
				c-0.1,0.3-1.1,1.2-3.1,2.8c-2,1.5-3.2,2.3-3.6,2.4c-1.6,0.1-2.9-0.3-3.7-1.3c-0.8-1-1.3-2.4-1.5-4.1c-0.2-2.4,0.9-5.9,3.2-10.5
				c2.4-4.8,4.7-7.3,6.6-7.5c2.1-0.2,3.7,1.2,5,4C136.2,132.3,137,136.7,137.5,142.6z M131.3,131.5c0-0.2,0-0.4-0.1-0.7
				c0-0.3-0.1-0.6-0.2-1c-0.3,0-0.6,0.2-1,0.5s-0.8,0.6-1.1,1c-0.6,0.8-1.5,2.5-2.6,5.2s-1.6,4.5-1.5,5.4v0.5c2.1-0.7,3.8-2.1,5-4.2
				C131,136,131.5,133.8,131.3,131.5z"/>
			<path class="st2" d="M161.1,138.7c0.3,3.3-2,5.7-6.9,7.4c-2.8,1-6.6,1.6-11.3,2c-2.2,0.2-3,0.1-4-0.1c-1.8-0.4-2.8-1.4-2.9-3.1
				v-1.5c1.1-0.1,2.9-0.1,5.2,0s3.2,0.1,4.4,0c1.9-0.1,3.5-0.5,4.7-0.9c1.5-0.6,2.8-1.5,3.9-2.7l-0.5-0.4c-0.6,0.1-1.2,0-2-0.1
				c-0.7-0.1-1.4-0.3-2.1-0.5c-3-0.3-5.1-1-6.4-2.1c-1.1-0.9-1.6-2.1-1.8-3.6c-0.2-2,0.8-3.9,2.8-5.5c1.8-1.5,3.8-2.3,6-2.4
				c1.3-0.1,2.5,0.1,3.5,0.7c1,0.5,1.7,1.4,2.1,2.7c-3.2,0.6-4.9,1-5.2,1.1c-2,0.6-3.5,1.5-4.3,2.8c5.7,0.9,8.5,1.3,8.6,1.4
				C159,134.6,161,136.3,161.1,138.7z"/>
		</g>
	</g>
</g>
</svg>
