<svg id="Layer_1" enable-background="new 0 0 512 512" height="512" viewBox="0 0 512 512" width="512" xmlns="http://www.w3.org/2000/svg"><path clip-rule="evenodd" d="m120.5 386.562c52.296 0 96.539 34.479 111.238 81.945 2.583 8.339 1.179 16.636-4.001 23.663s-12.69 10.821-21.42 10.821h-171.633c-8.73 0-16.241-3.794-21.421-10.821s-6.584-15.324-4.001-23.663c14.699-47.465 58.943-81.945 111.238-81.945zm149.172-376.708c61.665 7.551 105.533 63.662 97.982 125.326-7.551 61.665-63.662 105.533-125.327 97.982-19.089-2.337-36.47-9.332-51.151-19.701l-34.365 15.144c-1.901.838-4.005.461-5.496-.985s-1.934-3.537-1.156-5.463l14.269-35.324c-15.773-22.094-23.643-49.928-20.083-78.998 7.551-61.664 63.662-105.532 125.327-97.981zm-13.804 100.654c-6.075 0-11 4.925-11 11s4.925 11 11 11 11-4.925 11-11-4.925-11-11-11zm-53.334 0c-6.075 0-11 4.925-11 11s4.925 11 11 11c6.076 0 11-4.925 11-11s-4.925-11-11-11zm106.932 0c-6.075 0-11 4.925-11 11s4.925 11 11 11 11-4.925 11-11-4.925-11-11-11zm82.035 142.598c32.511 0 58.866 26.355 58.866 58.866s-26.356 58.866-58.866 58.866c-32.511 0-58.866-26.355-58.866-58.866-.001-32.51 26.355-58.866 58.866-58.866zm-.001 133.456c52.296 0 96.539 34.479 111.238 81.945 2.583 8.339 1.179 16.636-4.001 23.663s-12.69 10.821-21.42 10.821h-171.633c-8.73 0-16.241-3.794-21.421-10.821s-6.584-15.324-4.001-23.663c14.698-47.465 58.943-81.945 111.238-81.945zm-270.999-133.456c32.511 0 58.866 26.355 58.866 58.866s-26.356 58.866-58.866 58.866c-32.511 0-58.866-26.355-58.866-58.866 0-32.51 26.355-58.866 58.866-58.866z" fill-rule="evenodd"/></svg>