<svg id="Layer_1" enable-background="new 0 0 512 512" height="512" viewBox="0 0 512 512" width="512" xmlns="http://www.w3.org/2000/svg"><path clip-rule="evenodd" d="m301.08 80.202c16.846 4.307 32.747 10.977 47.332 19.628l59.247-42.896 47.408 47.408-42.897 59.248c8.65 14.586 15.315 30.487 19.625 47.331l72.205 11.556v67.045l-72.202 11.557c-4.307 16.846-10.977 32.747-19.628 47.332l42.896 59.247-47.408 47.408-59.247-42.897c-14.586 8.65-30.487 15.315-47.331 19.624l-11.557 72.207h-67.045l-11.557-72.202c-16.846-4.307-32.747-10.977-47.332-19.628l-59.247 42.896-47.408-47.408 42.897-59.247c-8.65-14.586-15.315-30.487-19.625-47.331l-72.206-11.558v-67.045l72.207-11.559c4.307-16.844 10.973-32.745 19.623-47.331l-42.897-59.247 47.408-47.408 59.245 42.894c14.586-8.651 30.487-15.318 47.334-19.626l11.557-72.2h67.045zm-45.08 54.888c-66.777 0-120.91 54.133-120.91 120.91s54.133 120.91 120.91 120.91 120.91-54.133 120.91-120.91-54.133-120.91-120.91-120.91zm-72.471 129.136 47.656 47.655c6.948 6.948 18.214 6.948 25.162 0 34.135-34.134 39.804-40.551 73.777-74.863 6.909-6.949 6.879-18.183-.07-25.093-6.948-6.91-18.182-6.879-25.092.069l-61.224 62.116-35.047-35.047c-6.948-6.948-18.214-6.948-25.162 0-6.949 6.949-6.949 18.215 0 25.163z" fill-rule="evenodd"/></svg>