<svg id="Layer_1" enable-background="new 0 0 512 512" height="512" viewBox="0 0 512 512" width="512" xmlns="http://www.w3.org/2000/svg"><path clip-rule="evenodd" d="m264 80.906c66.701 4.13 119.523 59.525 119.523 127.266 0 .564-.011 1.108-.017 1.663h-25.141c.857-3.036 1.316-6.215 1.316-9.476 0-9.688-3.928-18.46-10.278-24.81s-15.122-10.277-24.81-10.277-18.46 3.928-24.811 10.277c-6.35 6.35-10.278 15.122-10.278 24.81 0 3.261.459 6.441 1.317 9.476h-26.821v-39.899c0-4.418-3.582-8-8-8-2.127 0-4.06.831-5.493 2.185-1.618 1.307-3.439 2.351-5.399 3.068-2.016.738-4.232 1.14-6.583 1.14-5.272 0-10.044-2.137-13.498-5.59-3.454-3.454-5.59-8.226-5.59-13.498 0-5.271 2.137-10.044 5.59-13.498 3.454-3.454 8.226-5.59 13.498-5.59 2.351 0 4.567.403 6.583 1.14 2.097.767 4.035 1.909 5.737 3.347 3.365 2.848 8.402 2.428 11.25-.937 1.27-1.5 1.889-3.333 1.888-5.156h.017zm0-38.649c0 4.418-3.582 8-8 8s-8-3.582-8-8v-25.754c0-4.418 3.582-8 8-8s8 3.582 8 8zm138.828 89.368c-3.814 2.209-8.697.908-10.906-2.906s-.908-8.697 2.906-10.906l22.303-12.877c3.814-2.209 8.697-.908 10.906 2.906s.908 8.697-2.906 10.906zm-57.46-63.304c-2.192 3.814-7.061 5.129-10.875 2.938-3.814-2.192-5.129-7.061-2.938-10.875l12.877-22.303c2.192-3.814 7.061-5.129 10.875-2.938 3.814 2.192 5.129 7.061 2.938 10.875zm-228.196 49.491c3.814 2.209 5.115 7.092 2.906 10.906s-7.092 5.115-10.906 2.906l-22.303-12.877c-3.814-2.209-5.115-7.092-2.906-10.906s7.092-5.115 10.906-2.906zm63.273-57.46c2.209 3.814.908 8.697-2.906 10.906s-8.697.908-10.906-2.906l-12.877-22.303c-2.209-3.814-.908-8.697 2.906-10.906s8.697-.908 10.906 2.906zm202.006 165.482h-37.163c-4.418 0-8-3.582-8-8 0-2.128.831-4.061 2.185-5.494 1.307-1.618 2.351-3.439 3.068-5.398.738-2.016 1.14-4.232 1.14-6.584 0-5.272-2.136-10.044-5.59-13.498s-8.226-5.59-13.498-5.59-10.044 2.136-13.498 5.59-5.59 8.226-5.59 13.498c0 2.351.403 4.567 1.14 6.583.767 2.097 1.909 4.035 3.347 5.736 2.848 3.365 2.428 8.402-.937 11.25-1.5 1.27-3.333 1.889-5.156 1.888v.018h-39.899v26.822c3.036-.857 6.215-1.317 9.476-1.317 9.688 0 18.46 3.928 24.81 10.278s10.278 15.122 10.278 24.81-3.928 18.46-10.278 24.81-15.122 10.278-24.81 10.278c-3.261 0-6.44-.459-9.476-1.316v58.958h68.144c5.575-94.858 43.438-100.031 50.307-153.322zm-134.451 153.323h-68.145c-5.575-94.859-43.436-100.035-50.306-153.323h24.086c-.857 3.036-1.317 6.215-1.317 9.476 0 9.688 3.928 18.46 10.278 24.81s15.122 10.278 24.811 10.278c9.688 0 18.46-3.928 24.81-10.278s10.278-15.122 10.278-24.81c0-3.261-.459-6.44-1.316-9.476h26.821v39.899h.018c-.001 1.823.619 3.656 1.889 5.156 2.848 3.365 7.885 3.785 11.25.937 1.701-1.438 3.639-2.579 5.737-3.347 2.016-.737 4.232-1.14 6.583-1.14 5.271 0 10.044 2.137 13.498 5.59 3.454 3.454 5.59 8.227 5.59 13.498 0 5.272-2.137 10.044-5.59 13.498-3.454 3.454-8.226 5.59-13.498 5.59-2.352 0-4.568-.403-6.584-1.14-1.96-.717-3.78-1.761-5.398-3.068-1.433-1.354-3.366-2.185-5.494-2.185-4.418 0-8 3.582-8 8v72.035zm-119.506-169.323h38.217c4.418 0 8 3.582 8 8 0 2.127-.831 4.06-2.185 5.493-1.307 1.619-2.351 3.44-3.068 5.4-.737 2.016-1.14 4.232-1.14 6.583 0 5.272 2.136 10.044 5.59 13.498s8.226 5.59 13.498 5.59 10.044-2.136 13.498-5.59 5.59-8.226 5.59-13.498c0-2.351-.403-4.567-1.14-6.583-.767-2.097-1.909-4.035-3.347-5.736-2.848-3.365-2.428-8.402.937-11.25 1.5-1.27 3.333-1.889 5.156-1.888v-.018h39.9v-26.823c-3.036.857-6.215 1.316-9.476 1.316-9.688 0-18.46-3.928-24.81-10.278s-10.278-15.122-10.278-24.81 3.928-18.461 10.278-24.811 15.122-10.278 24.81-10.278c3.261 0 6.441.459 9.476 1.317v-34.562c-66.701 4.13-119.523 59.525-119.523 127.266 0 .563.011 1.109.017 1.662zm162.368 268.216v4.725c0 11.398-9.325 20.722-20.722 20.722h-26.893c-11.397 0-20.722-9.324-20.722-20.722v-4.725zm21.251-41.455v4.732c0 11.399-9.325 20.722-20.721 20.722h-69.397c-11.399 0-20.723-9.323-20.723-20.722v-4.724h110.151c.23.001.46-.003.69-.008zm20.03-41.438v4.725c0 11.398-9.324 20.722-20.721 20.722h-110.844c-11.397 0-20.723-9.324-20.723-20.722v-4.725z" fill-rule="evenodd"/></svg>