<svg id="Layer_1" enable-background="new 0 0 512 512" height="512" viewBox="0 0 512 512" width="512" xmlns="http://www.w3.org/2000/svg"><path clip-rule="evenodd" d="m256 24.055c-31.209 0-56.5 25.291-56.5 56.5 0 12.825 4.274 24.649 11.471 34.131 8.41-16.311 25.418-27.469 45.029-27.469 19.615 0 36.623 11.156 45.029 27.468 7.197-9.482 11.471-21.305 11.471-34.13 0-31.209-25.291-56.5-56.5-56.5zm0 155.646c15.968 0 28.913 9.1 28.913 30.087s-12.945 38-28.913 38-28.913-17.013-28.913-38 12.945-30.087 28.913-30.087zm37.458 316.615c0 4.202-3.427 7.629-7.629 7.629h-22.695v-94.319c0-3.371-2.733-6.104-6.103-6.104-3.371 0-6.103 2.733-6.103 6.104v94.319h-24.757c-4.202 0-7.629-3.427-7.629-7.629 0-64.949 0-129.898 0-194.848 0-3.371-2.733-6.103-6.103-6.103-3.371 0-6.103 2.733-6.103 6.103v84.423c-9.067-4.319-15.335-13.277-15.335-23.57v-78.929c0-14.473 12.917-22.554 27.542-26.315 25.351-6.519 50.301-6.107 74.916 0 14.66 3.637 27.542 11.846 27.542 26.315v78.929c0 10.289-6.268 19.25-15.335 23.569v-84.422c0-3.371-2.733-6.103-6.103-6.103s-6.103 2.733-6.103 6.103c-.002 64.95-.002 129.899-.002 194.848zm-182.748-157.126c13.413 23.36 32.319 43.188 54.965 57.728 3.71 2.381 4.788 7.32 2.406 11.031-2.381 3.711-7.32 4.788-11.031 2.406-25.835-16.589-47.243-39.508-62.044-66.579l-.25-.462c5.503-.885 10.838-2.274 15.954-4.124zm-15.987-170.619c8.473-15.607 19.146-29.846 31.601-42.302 12.456-12.456 26.695-23.128 42.302-31.601.886 5.526 2.281 10.881 4.14 16.015-12.886 7.399-24.693 16.463-35.13 26.899-10.436 10.436-19.5 22.244-26.899 35.13-5.133-1.86-10.489-3.255-16.014-4.141zm248.652-73.903c15.607 8.473 29.846 19.145 42.302 31.601s23.128 26.695 31.601 42.301c-5.526.886-10.881 2.281-16.015 4.14-7.399-12.886-16.463-24.693-26.899-35.129s-22.244-19.5-35.13-26.899c1.86-5.133 3.255-10.488 4.141-16.014zm73.87 248.647-.25.462c-14.801 27.071-36.209 49.99-62.044 66.579-3.711 2.381-8.65 1.304-11.031-2.406-2.381-3.711-1.304-8.65 2.406-11.031 22.646-14.541 41.551-34.368 54.965-57.728 5.115 1.849 10.45 3.239 15.954 4.124zm14.146-135.401c14.137 0 25.598 11.461 25.598 25.598s-11.461 25.598-25.598 25.598-25.598-11.461-25.598-25.598 11.461-25.598 25.598-25.598zm-350.781 0c14.137 0 25.598 11.461 25.598 25.598s-11.461 25.598-25.598 25.598-25.598-11.461-25.598-25.598 11.461-25.598 25.598-25.598zm175.391-175.391c14.137 0 25.598 11.461 25.598 25.598s-11.461 25.598-25.598 25.598-25.598-11.461-25.598-25.598 11.461-25.598 25.598-25.598zm175.39 230.084c19.615 0 36.623 11.155 45.029 27.468 7.197-9.482 11.471-21.305 11.471-34.13 0-31.209-25.291-56.5-56.5-56.5s-56.5 25.291-56.5 56.5c0 12.825 4.274 24.649 11.472 34.131 8.409-16.31 25.417-27.469 45.028-27.469zm-350.782 0c19.615 0 36.623 11.155 45.029 27.468 7.197-9.482 11.471-21.305 11.471-34.13 0-31.209-25.291-56.5-56.5-56.5s-56.5 25.291-56.5 56.5c0 12.825 4.274 24.649 11.472 34.131 8.409-16.31 25.418-27.469 45.028-27.469zm175.391-254.552c40.041 0 72.5 32.459 72.5 72.5s-32.459 72.5-72.5 72.5-72.5-32.459-72.5-72.5 32.46-72.5 72.5-72.5zm175.391 175.391c-40.041 0-72.5 32.459-72.5 72.5s32.459 72.5 72.5 72.5 72.5-32.459 72.5-72.5-32.459-72.5-72.5-72.5zm-350.782 0c-40.041 0-72.5 32.459-72.5 72.5s32.459 72.5 72.5 72.5 72.5-32.459 72.5-72.5-32.459-72.5-72.5-72.5z" fill-rule="evenodd"/></svg>