<svg xmlns="http://www.w3.org/2000/svg" version="1.1" id="svg" style="max-height: 500px" viewBox="78.848 350.208 860.16 323.584" preserveAspectRatio="xMidYMid meet" width="860.16" height="323.584"><path fill-rule="evenodd" fill="black" stroke="none" d="M212.500 370.420 C 177.809 378.387,130.234 421.197,111.538 461.272 C 103.730 478.007,101.583 486.001,101.539 498.500 C 101.505 508.066,101.796 510.054,103.770 513.749 C 105.018 516.086,107.910 519.236,110.196 520.749 C 113.812 523.142,115.337 523.500,121.926 523.500 C 127.846 523.500,130.538 522.989,134.250 521.161 C 136.863 519.874,139.000 518.187,139.000 517.411 C 139.000 515.513,138.385 515.589,129.160 518.628 C 119.746 521.730,115.627 521.367,110.651 516.999 C 106.537 513.386,105.000 508.421,105.000 498.739 C 105.000 489.636,107.343 481.477,114.048 467.228 C 129.192 435.046,165.637 398.160,198.675 381.578 C 208.966 376.412,217.504 374.000,225.494 374.000 C 230.607 374.000,231.540 374.340,234.475 377.275 C 236.946 379.746,237.919 381.774,238.435 385.528 C 240.395 399.780,227.360 435.971,199.005 495.000 C 175.534 543.861,165.000 570.212,165.000 580.062 C 165.000 586.110,174.746 594.873,178.739 592.417 C 179.708 591.821,184.039 584.621,188.365 576.417 C 213.610 528.541,237.733 487.165,253.157 465.289 C 264.384 449.366,278.349 431.627,285.985 423.591 C 294.024 415.130,305.232 406.197,305.773 407.820 C 305.954 408.362,297.246 426.512,286.422 448.153 C 264.376 492.231,261.511 498.472,252.409 522.239 C 245.318 540.753,241.599 552.800,240.524 560.743 C 239.947 565.003,240.204 566.783,241.892 570.243 C 244.148 574.864,250.058 579.575,252.449 578.658 C 253.268 578.344,256.236 573.507,259.045 567.911 C 266.827 552.403,286.051 517.560,294.130 504.318 C 314.908 470.264,340.913 436.102,362.500 414.503 C 371.216 405.781,387.818 391.485,388.471 392.138 C 388.695 392.362,385.418 397.100,381.189 402.667 C 362.503 427.266,351.582 444.413,338.243 470.093 C 318.585 507.937,308.120 539.685,304.479 572.531 C 302.078 594.180,304.409 610.908,312.017 626.645 C 318.933 640.948,329.283 649.755,343.542 653.469 C 357.491 657.102,371.672 653.822,387.126 643.388 C 398.133 635.956,410.863 621.789,415.517 611.791 C 419.487 603.265,418.382 603.010,412.999 611.211 C 407.336 619.837,394.883 631.917,384.599 638.762 C 359.752 655.298,335.627 652.918,325.470 632.929 C 318.258 618.735,316.722 593.629,321.589 569.500 C 324.350 555.813,331.709 531.779,337.873 516.315 C 351.762 481.468,365.158 456.980,395.805 410.412 C 404.162 397.713,411.000 386.351,411.000 385.162 C 411.000 382.493,407.897 379.263,404.519 378.415 C 399.607 377.182,381.128 390.217,362.613 407.976 C 336.611 432.915,297.700 486.767,268.081 538.808 C 265.167 543.928,262.605 547.939,262.388 547.721 C 261.587 546.920,276.479 511.778,291.876 478.133 C 309.216 440.246,312.609 431.899,316.041 418.701 C 318.704 408.458,318.139 403.908,313.803 400.690 C 311.181 398.744,310.976 398.737,306.524 400.438 C 293.082 405.571,269.312 431.864,245.602 467.824 C 229.183 492.725,199.337 542.893,189.461 562.191 C 187.859 565.321,186.391 567.724,186.198 567.531 C 185.692 567.025,191.045 555.037,200.725 535.000 C 237.198 459.506,249.000 426.872,249.000 401.514 C 249.000 386.105,245.720 378.152,236.979 372.367 C 232.046 369.103,221.788 368.287,212.500 370.420 M662.472 388.478 C 644.999 392.455,627.248 402.253,608.212 418.428 C 576.248 445.587,551.107 482.260,538.579 520.000 C 532.500 538.315,530.602 550.111,531.271 565.428 C 532.235 587.520,539.604 600.809,554.732 607.735 C 559.521 609.927,561.222 610.185,568.352 609.800 C 575.260 609.427,577.793 608.749,585.000 605.345 C 589.675 603.136,597.122 598.589,601.550 595.241 C 610.622 588.380,626.938 571.850,636.098 560.242 C 639.458 555.984,642.568 552.115,643.009 551.644 C 643.451 551.173,644.715 552.828,645.819 555.323 C 647.109 558.240,648.934 560.432,650.934 561.466 C 653.799 562.947,654.317 562.944,657.538 561.415 C 661.403 559.581,667.536 553.139,674.680 543.409 C 677.256 539.901,679.467 537.136,679.594 537.265 C 679.720 537.394,679.143 540.171,678.310 543.436 C 677.126 548.074,677.036 550.177,677.897 553.049 C 679.344 557.879,683.532 562.000,686.993 562.000 C 694.447 562.000,709.934 543.564,726.054 515.500 C 729.529 509.450,732.519 504.307,732.699 504.071 C 732.878 503.835,734.640 504.411,736.613 505.352 C 739.748 506.847,740.118 507.395,739.543 509.685 C 739.181 511.127,737.523 514.287,735.858 516.706 C 731.473 523.080,725.330 535.746,723.948 541.265 C 719.914 557.376,728.768 568.061,739.600 560.152 C 744.927 556.263,751.431 549.080,758.492 539.290 C 761.749 534.774,764.558 531.224,764.734 531.401 C 764.911 531.578,764.564 533.017,763.963 534.598 C 763.361 536.180,762.639 541.080,762.357 545.487 C 761.755 554.922,763.535 559.407,768.989 562.199 C 771.956 563.718,772.688 563.746,775.904 562.459 C 777.947 561.641,783.009 557.348,787.624 552.520 L 795.748 544.021 796.373 547.933 C 797.514 555.064,804.427 561.000,811.591 561.000 C 823.300 561.000,842.308 541.838,861.438 510.750 C 864.061 506.488,866.532 503.000,866.929 503.000 C 867.326 503.000,868.685 504.100,869.948 505.445 C 872.998 508.692,872.421 510.640,864.848 522.661 C 853.545 540.601,850.184 551.921,853.072 562.321 C 854.451 567.286,860.184 573.576,864.685 575.061 C 875.604 578.665,892.918 569.213,904.831 553.147 C 913.974 540.815,917.630 530.351,915.008 524.019 C 913.125 519.474,911.326 520.258,910.788 525.859 C 909.895 535.149,900.646 551.310,890.304 561.653 C 881.275 570.681,869.708 574.650,865.612 570.124 C 860.970 564.994,863.046 555.534,873.004 536.457 C 876.748 529.284,880.321 521.521,880.944 519.207 C 882.657 512.845,880.952 507.896,875.468 503.311 C 873.011 501.257,870.755 498.802,870.454 497.855 C 870.154 496.908,871.503 492.965,873.454 489.092 C 877.757 480.546,878.014 476.710,874.438 474.367 C 872.072 472.817,871.619 472.811,868.510 474.294 C 861.215 477.772,856.878 490.739,860.791 497.370 L 862.832 500.829 858.497 508.234 C 847.495 527.029,829.335 547.899,818.650 554.027 C 812.570 557.515,810.921 557.675,808.514 555.015 C 807.057 553.406,806.827 551.965,807.298 547.405 C 807.617 544.311,808.671 539.574,809.641 536.878 C 811.327 532.189,811.764 531.802,819.689 527.965 C 837.085 519.545,849.234 503.173,843.701 495.606 C 841.712 492.886,836.241 492.125,830.528 493.774 C 817.450 497.549,804.470 512.383,797.550 531.461 C 793.901 541.520,780.418 557.135,774.500 558.155 C 772.675 558.470,772.509 557.976,772.608 552.500 C 772.691 547.854,773.790 543.791,777.477 534.500 C 782.473 521.907,800.105 485.876,808.944 470.195 C 813.398 462.294,814.439 461.063,816.315 461.477 C 817.517 461.743,822.775 462.392,828.000 462.921 C 874.978 467.675,905.677 462.838,918.787 448.616 C 922.011 445.117,922.985 443.277,922.937 440.772 C 922.882 437.942,922.757 437.787,922.015 439.626 C 920.445 443.514,913.928 448.816,907.612 451.344 C 894.915 456.428,869.616 459.687,851.500 458.574 C 834.135 457.507,816.934 455.692,817.222 454.957 C 817.375 454.567,819.750 449.933,822.500 444.658 C 827.938 434.229,827.951 433.004,822.660 430.000 C 818.891 427.861,817.502 429.053,810.336 440.583 C 801.094 455.451,803.760 454.115,787.608 451.972 C 762.488 448.640,737.906 448.814,721.973 452.438 C 706.948 455.855,694.255 462.418,691.035 468.434 C 688.973 472.288,690.555 472.682,693.592 469.073 C 699.406 462.163,715.050 456.822,734.828 454.995 C 747.390 453.834,767.169 454.841,787.223 457.663 L 798.946 459.313 794.395 467.406 C 791.891 471.858,785.313 484.725,779.776 496.000 C 764.781 526.537,747.467 550.371,735.103 557.495 C 733.962 558.152,733.804 557.431,734.240 553.559 C 734.593 550.435,737.250 543.890,742.040 534.353 C 747.180 524.117,749.443 518.449,749.777 514.968 C 750.217 510.394,750.009 509.820,746.816 506.775 C 744.928 504.974,741.857 502.345,739.994 500.934 L 736.605 498.368 740.302 489.761 C 744.486 480.022,744.982 475.596,742.066 474.035 C 738.927 472.356,736.358 472.828,732.925 475.717 C 726.244 481.338,723.751 493.033,727.971 498.959 L 730.108 501.960 727.376 506.730 C 722.683 514.925,706.967 538.218,701.867 544.538 C 696.449 551.252,688.732 557.695,688.160 555.981 C 687.402 553.705,690.312 545.224,696.195 532.569 C 699.536 525.381,702.230 518.618,702.181 517.539 C 702.066 514.983,698.196 512.050,694.900 512.022 C 692.732 512.004,691.337 513.452,686.496 520.750 C 671.822 542.870,658.011 558.344,655.332 555.665 C 655.048 555.381,655.574 552.527,656.501 549.324 C 663.003 526.860,683.464 500.000,694.073 500.000 C 697.091 500.000,698.305 501.177,699.678 505.438 C 701.138 509.966,703.000 509.843,703.000 505.218 C 703.000 497.154,695.870 492.790,686.114 494.882 C 676.312 496.984,668.334 502.473,660.068 512.801 C 653.483 521.028,650.396 526.396,646.970 535.581 C 641.152 551.177,612.642 582.918,593.488 595.126 C 581.862 602.535,569.582 606.042,562.211 604.057 C 550.047 600.781,543.710 582.483,546.920 559.904 C 553.090 516.498,581.767 464.045,620.427 425.449 C 639.889 406.020,658.139 394.529,671.394 393.359 C 695.739 391.209,696.340 414.796,672.840 450.132 C 660.891 468.099,640.366 485.898,632.827 484.830 C 630.711 484.530,630.501 484.002,630.517 479.000 C 630.529 474.773,631.363 471.765,634.119 466.000 C 638.066 457.746,647.458 444.688,653.846 438.572 C 656.997 435.556,657.695 434.337,656.852 433.322 C 655.106 431.218,652.040 431.766,646.822 435.114 C 637.387 441.169,627.838 455.032,624.429 467.623 C 622.238 475.718,623.084 480.284,627.614 484.814 C 630.878 488.078,631.350 488.237,636.104 487.674 C 654.050 485.549,685.615 449.633,692.505 423.500 C 695.042 413.875,694.782 403.995,691.841 398.280 C 687.420 389.689,675.148 385.593,662.472 388.478 M473.296 405.428 C 455.195 415.778,432.096 448.411,409.393 495.707 C 400.644 513.934,390.700 528.576,375.774 545.214 C 369.170 552.574,362.523 557.856,361.346 556.679 C 360.185 555.518,364.525 544.721,374.106 524.938 C 379.584 513.629,384.331 502.735,384.656 500.731 C 385.211 497.313,385.025 496.979,381.672 495.381 C 378.573 493.903,377.867 493.864,376.376 495.088 C 371.685 498.941,356.210 526.999,352.157 539.001 C 348.169 550.810,349.969 560.088,356.798 562.916 C 359.367 563.980,360.384 563.912,363.422 562.470 C 367.874 560.357,379.851 547.734,388.619 535.912 C 392.255 531.011,395.387 527.000,395.580 527.000 C 395.772 527.000,395.122 528.913,394.135 531.250 C 389.328 542.641,384.806 557.089,385.358 559.289 C 386.001 561.851,389.688 564.000,393.438 564.000 C 395.267 564.000,396.151 563.066,397.456 559.750 C 400.991 550.767,409.272 533.000,409.923 533.000 C 410.299 533.000,411.648 536.263,412.921 540.250 C 423.484 573.335,449.423 603.659,480.500 619.257 C 498.388 628.235,517.532 632.837,540.500 633.681 C 569.298 634.739,595.534 629.329,657.351 609.585 C 697.849 596.650,719.596 592.091,750.468 590.062 C 783.991 587.858,812.588 594.490,827.157 607.845 C 830.601 611.002,833.536 614.785,834.657 617.512 C 835.671 619.976,836.765 621.994,837.089 621.996 C 837.955 622.002,840.000 617.190,840.000 615.149 C 840.000 614.183,838.822 611.029,837.382 608.140 C 831.533 596.401,811.566 586.734,787.666 584.069 C 753.545 580.264,717.316 586.320,653.500 606.495 C 596.136 624.630,575.288 629.127,548.500 629.146 C 522.567 629.164,500.149 622.396,477.942 607.845 C 457.366 594.362,442.711 576.127,427.837 545.500 C 424.632 538.900,422.007 533.245,422.005 532.933 C 422.002 532.621,424.408 531.606,427.352 530.678 C 446.821 524.541,461.677 504.035,453.333 494.816 C 451.067 492.311,444.718 492.474,439.130 495.179 C 434.187 497.572,422.219 508.472,417.500 514.879 C 415.850 517.120,414.187 518.963,413.804 518.976 C 413.421 518.989,415.050 515.063,417.424 510.250 C 419.798 505.438,422.753 499.140,423.991 496.256 C 425.753 492.150,428.042 489.483,434.535 483.971 C 439.096 480.098,448.193 471.379,454.751 464.595 C 487.411 430.807,499.619 402.961,481.750 403.012 C 479.113 403.020,475.905 403.936,473.296 405.428 M486.263 411.500 C 485.950 416.790,480.584 427.314,472.261 438.959 C 465.150 448.908,433.697 481.997,432.485 480.806 C 431.287 479.629,452.699 439.668,461.316 427.000 C 469.649 414.749,478.960 406.619,483.987 407.206 C 486.250 407.471,486.476 407.898,486.263 411.500 M389.306 464.498 C 388.129 465.322,386.397 468.013,385.455 470.478 C 383.861 474.652,383.857 475.133,385.395 477.480 C 387.968 481.407,391.986 480.865,396.384 475.997 C 400.684 471.237,401.205 466.958,397.777 464.557 C 394.977 462.595,392.052 462.575,389.306 464.498 M482.000 495.697 C 473.109 499.939,462.231 511.679,456.612 523.096 C 450.580 535.355,448.931 544.812,451.367 553.191 C 458.108 576.378,485.917 573.439,507.519 547.257 C 514.341 538.990,517.853 532.035,518.664 525.189 C 519.506 518.079,517.699 518.473,515.174 525.950 C 511.662 536.350,501.264 549.111,489.370 557.619 C 474.496 568.259,463.408 567.300,462.252 555.273 C 461.982 552.463,462.327 547.764,463.018 544.832 C 464.609 538.079,468.620 530.000,470.382 530.000 C 473.418 530.000,486.346 522.537,491.553 517.778 C 497.414 512.421,502.000 504.831,502.000 500.488 C 502.000 493.145,492.247 490.809,482.000 495.697 M447.401 500.192 C 445.022 504.793,436.580 513.412,429.559 518.410 C 422.622 523.348,415.061 527.394,414.263 526.596 C 413.492 525.825,420.657 516.590,427.627 509.372 C 434.664 502.086,442.307 497.000,446.221 497.000 L 449.051 497.000 447.401 500.192 M498.000 499.532 C 498.000 502.449,495.178 507.797,491.480 511.891 C 487.955 515.793,476.540 523.970,472.727 525.325 C 471.172 525.877,471.098 525.681,472.125 523.727 C 476.639 515.141,488.544 501.594,493.500 499.404 C 497.411 497.676,498.000 497.692,498.000 499.532 M841.000 500.304 C 841.000 501.572,839.684 504.684,838.075 507.220 C 833.889 513.822,817.078 527.411,815.299 525.632 C 814.169 524.503,822.816 512.082,829.487 505.250 C 837.005 497.553,841.000 495.836,841.000 500.304"/></svg>