<?xml version="1.0" encoding="UTF-8"?>
<svg width="38px" height="29px" viewBox="0 0 38 29" version="1.1" xmlns="http://www.w3.org/2000/svg" xmlns:xlink="http://www.w3.org/1999/xlink">
    <!-- Generator: Sketch 42 (36781) - http://www.bohemiancoding.com/sketch -->
    <title>Logo</title>
    <desc>Created with Sketch.</desc>
    <defs></defs>
    <g id="Page-4" stroke="none" stroke-width="1" fill="none" fill-rule="evenodd">
        <g id="Home" transform="translate(-20.000000, -21.000000)">
            <g id="Logo" transform="translate(20.000000, 21.000000)">
                <path d="M13.7920145,12.8407939 C13.8524172,11.7399117 14.7876459,10.9183159 15.8939766,11.0067531 L36.0074066,12.6145676 C37.1078855,12.702537 38,13.677628 38,14.7827618 L38,25.2127881 C38,26.3222793 37.1065807,27.2902605 36.0092487,27.3744696 L14.8880254,28.9953095 C13.7885639,29.079682 12.9463842,28.2530146 13.0066429,27.154756 L13.7920145,12.8407939 Z" id="Block" fill="#9999FF" transform="translate(25.500000, 20.000000) scale(-1, 1) translate(-25.500000, -20.000000) "></path>
                <path d="M0.900460243,1.99079514 C0.955434533,0.891309342 1.88976324,0.0711810589 3.00359486,0.160287589 L23.9964051,1.83971241 C25.10296,1.9282368 26,2.89005841 26,4.00010618 L26,16.9998938 C26,18.104522 25.1050211,19.0344223 24.0029953,19.0768079 L1.99700466,19.9231921 C0.89408944,19.9656119 0.0442590564,19.1148189 0.0995397568,18.0092049 L0.900460243,1.99079514 Z" id="Block" fill="#7373FF"></path>
            </g>
        </g>
    </g>
</svg>