<svg
    xmlns="http://www.w3.org/2000/svg" width="101" height="71.837" fill="#000000"
    xmlns:v="https://vecta.io/nano">
    <path d="M55.607 57.428s1.585-.048 2.592.925c1.155 1.12 1.135 2.682 1.135 2.682s1.77.13 2.775 1.103c.98.947.947 2.5.947 2.5l32.952-34.04-7.445-7.21-32.955 34.04zm3.193 4.279s-.198-1.872-1.175-2.815c-.918-.888-2.612-.853-2.612-.853l-6.137 13.798 13.592-6.582s.192-1.492-.935-2.582c-.975-.945-2.733-.967-2.733-.967zm-4.81 6.885c-.537-1.423-1.48-1.872-2.025-1.998l3.487-7.842c.517.052 1.263.218 1.695.632.65.632.92 1.943.968 2.397l.068.605.608.013c.413.007 1.632.16 2.265.772.563.547.7 1.243.73 1.65l-7.797 3.772zm45.312-44.704l-4.138-4.005a2.31 2.31 0 0 0-3.255.052l-2.733 2.822 7.448 7.208 2.732-2.822a2.31 2.31 0 0 0-.053-3.255zM54.475 56.752l6.007-6.077-1.905-.035c-7.29 0-12.865 1.475-15.795 2.467V7.485C48 4.652 53.448 3.215 58.995 3.215c8.062 0 14.135 3.073 16.128 4.225v28.418l7.23-7.318V12.69l-4.017-3.375V5.693l-.7-.478C77.327 5.002 69.9 0 58.995 0 52.88 0 46.892 1.6 41.177 4.72 35.462 1.6 29.475 0 23.36 0 12.457 0 5.03 5.002 4.718 5.215l-.698.478v3.622L0 12.692v42.153 7.35 1.8h51.132l3.343-7.243zm-14.907-3.645c-2.928-.993-8.503-2.467-15.793-2.467-5.565 0-11.122.863-16.545 2.572V7.438c1.982-1.152 8.027-4.222 16.127-4.222 5.547 0 10.997 1.435 16.212 4.27v45.62zm42.784 10.888v-1.8-7.352-8.867L65.208 63.995zm70.881-35.141c0"/>
</svg>
