<svg xmlns="http://www.w3.org/2000/svg" width="1568" height="466.667" version="1.0" viewBox="0 0 1176 350"><path d="M929 3c-12.6 1.6-11.6.7-12.3 10.7-.3 4.9-7.2 55.4-15.3 112.3-15.2 106.7-16.3 117.1-13.5 127 4.2 15 16.9 23 36.7 23 10.5 0 17.4-1.4 25-4.9 10.8-5 17.4-13.5 19.5-24.8 1.5-8.1.7-10.3-3.7-10.3-5.5 0-9.4-4.4-9.4-10.6 0-2.6 6.3-49.5 14.1-104.3C979.3 56 984 19.8 983.7 16.5c-.4-4.2-1-5.4-4.1-8.1-2-1.8-5.6-3.7-7.9-4.4-5.4-1.5-33-2.1-42.7-1zM534.1 5c-11.3 2.4-21.2 10.5-25.1 20.6-1.8 4.6-2.3 8-2.4 15.9-.1 9.1.1 10.4 2.6 14.6 1.9 3.2 4.2 5.3 8 7.4 4.7 2.6 6.5 2.9 16.4 3.3 12.2.5 19.6-1 26.3-5.3 9.3-5.9 15.1-16.2 15.9-27.9.8-12.7-3.2-20.8-12.9-26.1-4.8-2.6-6.5-3-14.9-3.2-5.2-.1-11.5.2-13.9.7zM810.7 49.7c-.2.5-3.7 10.6-7.6 22.5L795.8 94l-3.6.9c-2 .6-8.5 2.2-14.4 3.7-6 1.4-10.8 3-10.8 3.4 0 .5-1.1 8.5-2.5 18s-2.5 17.6-2.5 18.1 4.9.9 10.8.9h10.8l-5.8 40.7c-5.4 37.7-5.8 41.9-5.5 55.8.2 14 .5 15.4 3.1 21.3 6.8 14.8 19.5 20.1 46 18.9 14.2-.6 23.6-2.3 36.1-6.5l8-2.7.7-8c.3-4.4.9-13.7 1.3-20.7l.7-12.7-7.5.6c-4.1.3-9.1.3-11.2-.1-4.7-.9-8.5-4.6-8.5-8.3 0-1.5 2.3-19.8 5.2-40.6l5.2-37.7h15.3c8.4 0 15.3-.1 15.4-.3 0-.1 1.5-10.2 3.3-22.5l3.2-22.2h-15.3c-8.4 0-15.3-.2-15.3-.4s1.4-9.7 3-21.1c1.7-11.4 3-21.4 3-22.1 0-1.2-4.6-1.4-26.4-1.4-14.6 0-26.7.3-26.9.7zM77.5 90.6c-21.5 3.5-38.7 12.1-48.6 24.6-9.7 12.3-15.7 30.9-14.6 45.9 1.3 18.8 13 31.9 36.6 40.9 22.5 8.6 27.5 12 26.9 18-.2 2.2-1.2 4-3.1 5.4-2.5 1.8-4.5 2.1-15.2 2.4-14.1.4-25-1.3-37.8-5.8-4.5-1.6-8.5-2.6-8.8-2.2-.6.6-12.9 42.3-12.9 43.6 0 .8 14.9 6.3 22 8.1 26.9 7 54.6 7.1 75.5.4 27-8.6 45.1-29.6 48.4-56 1.8-14.1-1.9-25.3-11.6-34.5-6.4-6.2-16-11.3-34-18.4-14.1-5.5-19.3-9-19.3-13.3 0-7.5 3.8-9.2 20-9.1 11.8.1 20.5 1.7 35.9 6.5 1.6.5 6.2-6.8 9.9-15.6 3.5-8.4 3.7-18.3.3-24.2-4.1-7.1-13-11.9-27.6-14.9-7-1.4-36.3-2.7-42-1.8zM455 90.7c-12.4 2-26.4 9.5-36.4 19.5-3.7 3.7-6.9 6.8-7.1 6.8-.1 0-.8-2.8-1.4-6.3-.7-3.4-1.6-8.6-2.2-11.5l-1-5.2H358l-.5 2.2C356.9 99 333 270 333 271.8c0 1.8 66.9 1.8 67.5 0 .2-.7 3.8-26.1 8-56.3 4.1-30.3 7.7-56.5 8.1-58.3.8-5 6.9-7.4 19.9-8 9.2-.4 21.1 1.4 28.6 4.3 1.2.4 2.8-2.1 7.2-11.2 8.7-18.3 10.1-23.2 10.2-34.5 0-8.9-.2-9.8-2.5-12.3-1.4-1.5-3.9-3.4-5.7-4.1-3-1.3-13.5-1.7-19.3-.7zM516.3 92c-2.9 1.2-7.4 4.1-10.2 6.6-9.6 8.6-9 6-21.2 92.1-6 42.2-10.9 78-10.9 79.5v2.8h67l.5-2.3c.2-1.2 5-35 10.5-75.1 8.8-64 9.9-73.5 9-78.3-1.9-10.8-8.8-19.6-18.9-24.5-6.6-3.2-18.8-3.5-25.8-.8zM266 92.5c-10.6 2.9-21.4 9-29.9 17-4.3 4.2-8.1 7.2-8.4 6.8-.2-.4-1.2-5.6-2.2-11.6L223.7 94h-24.9c-13.6 0-24.8.3-24.8.7 0 .4-7.9 56.4-17.5 124.4S139 343.1 139 343.4c0 .3 15.3.6 34 .6 21.6 0 34-.4 34-1 0-.5 2.5-18.6 5.5-40.2s5.5-39.5 5.5-39.6c0-.2 2 1.4 4.5 3.6 8.6 7.5 12.2 8.7 27 8.7 14.4-.1 22.4-1.9 33.9-7.7 26.5-13.3 43.4-43.3 49.2-87.1 2.1-15.6 1.4-35.7-1.5-47.2-4.8-18.3-14.4-31.6-27.8-38.2-7.3-3.6-7.9-3.7-19.7-4-8.4-.2-13.8.2-17.6 1.2zm-7.4 52.5c3.9 3.7 6.3 9.9 7 18.2 1.3 14.6-3.4 40.5-9.4 52.4-2.6 5.2-10.8 14.3-12.9 14.4-.5.1-2.8.5-5.3 1-4.6.9-13.5-.4-14.5-2-.5-.8 10-79 10.9-81.6.2-.6 2.4-2.1 4.8-3.3 6-3.1 15.5-2.6 19.4.9zM683 92.5c-13.7 3.4-28.2 12.7-36.5 23.6-2.1 2.8-4 4.8-4.2 4.5-.3-.3-1.2-6.2-2.2-13.3l-1.7-12.8-24.6-.3-24.6-.2-.5 3.2c-.4 1.8-5.8 40.6-12.2 86.3-6.3 45.6-11.7 84.5-12 86.2l-.6 3.3h67.9l.5-3.2c.3-1.8 4-28.5 8.2-59.3 4.2-30.8 8-57 8.6-58.3 1.2-2.9 8.2-6.1 13.5-6.2 5.1 0 10.3 3.2 12.6 8 2.8 5.4 2.3 14.3-2.8 49.5-4.9 34.4-5.2 43.2-1.9 52.6 4.6 13 17 19.9 36 19.9 26.2 0 42.8-12.4 44.3-33l.5-7h-3.1c-6.7 0-10.2-3.6-10.2-10.6 0-2 2-18.4 4.5-36.6 6.2-45.5 5.9-58.7-1.4-74.5-7.4-15.8-21.3-23.4-42.6-23.2-5.5 0-12.5.7-15.5 1.4zM1003.5 92c-11.6 1-17.5 2-17.5 2.9 0 .5.7 2.8 1.5 5.1.9 2.4 9.4 43.1 19.1 90.4l17.6 86-2.8 5.8c-3 6.2-9.3 13.1-13.6 14.7-5.3 2-15.2 2.3-25.3.8-5.4-.9-10.2-1.4-10.6-1.1-.3.2-2.3 3.8-4.4 7.9-6.4 13-6 23.6 1.3 31.7 7.1 7.8 18.8 11.8 34.8 11.8 18 0 31.2-3.6 43.7-12 11.9-8 22.5-20.7 32.2-38.4 9.2-17 96.5-199 96.5-201.2V94h-70.5l-7.4 19.8c-14 37.8-28.3 82.2-36.1 113.1-.6 2.3-1.3 4.1-1.4 4-.2-.2 0-8.7.5-18.9 1.5-33.2-2.2-98.9-6-107.5-3.5-7.7-8.9-10.8-22.2-12.4-9.1-1.2-16.9-1.2-29.4-.1z"/></svg>