<?xml version="1.0" encoding="UTF-8"?>
<svg width="136px" height="28px" viewBox="0 0 136 28" version="1.1" xmlns="http://www.w3.org/2000/svg" xmlns:xlink="http://www.w3.org/1999/xlink">
    <title>Zendesk wordmark</title>
    <g id="Page-1" stroke="none" stroke-width="1" fill="none" fill-rule="evenodd">
        <g id="Zendesk-wordmark" transform="translate(0.918135, 0.599360)" fill="#03363D">
            <path d="M93.353649,15.1690583 C92.992154,12.8169726 91.5856383,11.0836907 88.7710284,11.0836907 C86.1568983,11.0836907 84.3494231,12.5691354 83.8663773,15.1690583 L93.353649,15.1690583 Z M89.2130311,22.1842722 C91.4230445,22.1842722 93.0316185,21.2765882 93.9961315,20.327861 L96.3687387,22.8851622 C94.7996292,24.4953148 92.630659,25.6934578 89.2540742,25.6934578 C83.4638391,25.6934578 79.7257594,21.8543488 79.7257594,16.654503 C79.7257594,11.4957003 83.6658975,7.61712685 88.7299853,7.61712685 C94.4791773,7.61712685 97.7342113,11.9913748 97.4532239,18.0578615 L83.8663773,18.0578615 C84.3494231,20.5756982 86.1174338,22.1842722 89.2130311,22.1842722 L89.2130311,22.1842722 Z" id="Fill-729"></path>
            <polygon id="Fill-730" points="2.1907212e-14 21.9959475 10.4580991 11.373676 0.244680054 11.373676 0.244680054 8.03971299 15.3027641 8.03971299 15.3027641 11.441555 4.84466506 22.0654051 15.4432578 22.0654051 15.4432578 25.3977896 2.1907212e-14 25.3977896"></polygon>
            <path d="M31.3248876,15.1690583 C30.9633926,12.8169726 29.5568769,11.0836907 26.742267,11.0836907 C24.1281369,11.0836907 22.3206616,12.5691354 21.8376159,15.1690583 L31.3248876,15.1690583 Z M27.1842697,22.1842722 C29.3942831,22.1842722 31.0028571,21.2765882 31.9673701,20.327861 L34.3399773,22.8851622 C32.7708678,24.4953148 30.6018975,25.6934578 27.2237342,25.6934578 C21.4350777,25.6934578 17.6969979,21.8543488 17.6969979,16.654503 C17.6969979,11.4957003 21.6371361,7.61712685 26.7012239,7.61712685 C32.4504159,7.61712685 35.7054499,11.9913748 35.4244624,18.0578615 L21.8376159,18.0578615 C22.3206616,20.5756982 24.0886723,22.1842722 27.1842697,22.1842722 L27.1842697,22.1842722 Z" id="Fill-731"></path>
            <path d="M72.7149655,16.6303507 C72.7149655,13.5410677 70.3802442,11.0058667 67.2072964,11.0058667 C64.1038062,11.0058667 61.6980487,13.4716102 61.6980487,16.6303507 C61.6980487,19.7890913 64.1038062,22.2895636 67.2072964,22.2895636 C70.3802442,22.2895636 72.7149655,19.7543625 72.7149655,16.6303507 M58.0041692,16.6650795 C58.0041692,11.110053 62.1511015,7.63875341 66.7179363,7.63875341 C69.0195074,7.63875341 71.2153135,8.64588809 72.5050142,10.243412 L72.5050142,0 L76.2004723,0 L76.2004723,25.3456964 L72.5050142,25.3456964 L72.5050142,22.9494104 C71.1805847,24.6511207 68.9847786,25.6914056 66.6832075,25.6914056 C62.2568664,25.6914056 58.0041692,22.1869558 58.0041692,16.6650795" id="Fill-732"></path>
            <path d="M99.8591392,21.6644455 L103.204152,19.929585 C104.146565,21.5255304 105.680946,22.4632075 107.666801,22.4632075 C109.758421,22.4632075 110.839749,21.3881938 110.839749,20.1726865 C110.839749,18.7835352 108.819165,18.4709762 106.62178,18.019502 C103.657205,17.3943839 100.591601,16.421978 100.591601,12.8480707 C100.591601,10.1029183 103.204152,7.56929585 107.319513,7.60402463 C110.56034,7.60402463 112.967676,8.88898956 114.326834,10.9727165 L111.223344,12.6728482 C110.421425,11.4573408 109.062266,10.6933076 107.319513,10.6933076 C105.332079,10.6933076 104.321788,11.6672921 104.321788,12.7770345 C104.321788,14.0272707 105.925626,14.3729799 108.43557,14.9286404 C111.292801,15.5553371 114.535207,16.4914356 114.535207,20.1032289 C114.535207,22.4979363 112.445165,25.727713 107.493157,25.6914056 C103.868735,25.6914056 101.322484,24.2343754 99.8591392,21.6644455" id="Fill-733"></path>
            <polygon id="Fill-734" points="124.569141 17.6378011 121.642452 20.8312705 121.642452 25.3444335 117.946994 25.3444335 117.946994 0.000315716198 121.642452 0.000315716198 121.642452 16.5959377 129.484842 7.98635695 133.982219 7.98635695 127.183271 15.4151591 134.157442 25.3444335 129.974202 25.3444335"></polygon>
            <path d="M46.8379187,7.63528054 C42.4447278,7.63528054 38.7666341,10.4814621 38.7666341,15.2029978 L38.7666341,25.3453807 L42.5315498,25.3453807 L42.5315498,15.6734149 C42.5315498,12.8272334 44.1701168,11.1223659 46.9563123,11.1223659 C49.7472435,11.1223659 51.1427091,12.8272334 51.1427091,15.6734149 L51.1427091,25.3453807 L54.9076247,25.3453807 L54.9076247,15.2029978 C54.9076247,10.4814621 51.229531,7.63528054 46.8379187,7.63528054" id="Fill-735"></path>
        </g>
    </g>
</svg>